M48
; DRILL file KiCad 10.0.0 date 2026-04-03T01:28:24
; FORMAT={-:-/ absolute / metric / decimal}
; #@! TF.CreationDate,2026-04-03T01:28:24-07:00
; #@! TF.GenerationSoftware,Kicad,Pcbnew,10.0.0
; #@! TF.FileFunction,Plated,1,4,PTH
FMAT,2
METRIC
; #@! TA.AperFunction,Plated,PTH,ComponentDrill
T1C0.200
; #@! TA.AperFunction,Plated,PTH,ViaDrill
T2C0.300
; #@! TA.AperFunction,Plated,PTH,ViaDrill
T3C0.305
; #@! TA.AperFunction,Plated,PTH,ComponentDrill
T4C0.600
; #@! TA.AperFunction,Plated,PTH,ComponentDrill
T5C0.610
; #@! TA.AperFunction,Plated,PTH,ComponentDrill
T6C1.000
%
G90
G05
T1
X204.588Y-111.522
X204.588Y-112.522
X204.588Y-113.522
X205.588Y-111.522
X205.588Y-112.522
X205.588Y-113.522
X206.588Y-111.522
X206.588Y-112.522
X206.588Y-113.522
T2
X199.898Y-105.664
X201.93Y-101.6
X201.93Y-105.664
X203.962Y-101.6
X203.962Y-105.664
T3
X156.464Y-115.316
X156.718Y-125.349
X157.988Y-107.315
X158.369Y-156.21
X158.369Y-164.465
X159.639Y-110.744
X159.956Y-129.794
X159.956Y-131.318
X160.528Y-100.33
X160.782Y-101.6
X160.909Y-102.87
X160.909Y-156.21
X160.909Y-164.465
X162.814Y-128.778
X163.068Y-139.827
X163.195Y-138.43
X163.449Y-156.21
X163.576Y-151.511
X163.957Y-125.984
X165.989Y-156.21
X165.989Y-164.592
X166.116Y-151.638
X167.132Y-133.35
X167.513Y-136.144
X168.656Y-140.97
X168.656Y-151.384
X169.545Y-109.728
X169.545Y-111.887
X169.799Y-102.108
X170.688Y-133.985
X170.739Y-129.565
X171.069Y-156.21
X171.069Y-164.338
X171.196Y-140.97
X171.196Y-151.511
X171.45Y-106.553
X171.831Y-105.156
X171.958Y-135.001
X172.085Y-136.144
X174.879Y-102.489
X175.26Y-137.16
X175.311Y-127.965
X175.641Y-132.867
X175.768Y-103.378
X176.022Y-101.346
X176.149Y-156.464
X176.149Y-164.338
X176.53Y-138.557
X176.911Y-124.841
X177.8Y-116.078
X177.8Y-121.031
X178.181Y-138.43
X178.943Y-134.239
X179.197Y-128.143
X181.229Y-156.337
X181.229Y-164.719
X181.483Y-125.73
X181.61Y-139.446
X182.499Y-136.779
X183.007Y-125.349
X183.515Y-139.446
X183.515Y-140.97
X183.515Y-141.859
X183.896Y-136.652
X184.531Y-128.397
X184.577Y-136.337
X185.039Y-124.206
X185.166Y-136.779
X185.166Y-141.478
X185.674Y-124.714
X186.03Y-145.999
X186.118Y-140.398
X186.309Y-164.465
X186.609Y-124.653
X187.198Y-125.095
X188.341Y-100.584
X188.341Y-103.759
X188.468Y-106.807
X188.468Y-120.65
X188.595Y-109.855
X188.595Y-113.03
X188.595Y-114.554
X188.595Y-117.475
X189.103Y-139.827
X189.357Y-124.841
X189.484Y-141.224
X189.611Y-133.223
X189.687Y-145.999
X189.865Y-133.985
X189.992Y-134.747
X189.992Y-156.718
X190.119Y-125.476
X190.119Y-132.461
X191.389Y-164.465
X192.151Y-139.954
X192.278Y-127.508
X192.532Y-99.06
X192.659Y-119.126
X192.786Y-105.283
X192.786Y-122.174
X192.913Y-111.506
X192.913Y-116.078
X193.04Y-108.331
X194.183Y-128.778
X194.945Y-156.845
X195.072Y-142.621
X195.707Y-128.778
X196.215Y-138.557
X196.596Y-164.719
X197.561Y-108.102
X197.612Y-102.87
X197.866Y-101.981
X197.993Y-115.062
X197.993Y-116.586
X198.628Y-117.856
X198.704Y-102.997
X198.78Y-127.737
X198.78Y-128.448
X199.009Y-135.382
X199.009Y-136.906
X199.923Y-102.489
X200.533Y-136.525
X200.66Y-108.966
X201.422Y-156.591
X201.549Y-134.112
X201.549Y-164.338
X202.057Y-118.745
X202.286Y-106.909
X202.692Y-135.89
X203.048Y-106.832
X203.454Y-115.062
X204.089Y-156.845
X204.089Y-164.719
X205.283Y-134.29
X206.629Y-156.464
X206.629Y-164.465
X207.518Y-98.679
X207.645Y-124.841
X207.772Y-144.018
X207.899Y-134.366
X207.915Y-111.403
X208.026Y-129.642
X208.026Y-130.454
X208.128Y-112.065
X208.128Y-112.878
X208.178Y-114.198
X208.305Y-110.617
X209.042Y-120.879
X209.347Y-105.918
X210.566Y-98.806
X210.566Y-103.759
X210.668Y-106.045
X210.693Y-124.968
X210.82Y-104.775
X210.82Y-135.89
X211.379Y-110.592
X211.468Y-112.357
X211.709Y-101.854
X211.861Y-106.07
X212.014Y-116.789
X212.217Y-120.65
X213.106Y-107.823
X213.233Y-117.627
X214.503Y-99.568
X216.433Y-104.978
X217.131Y-156.554
X217.297Y-117.932
X217.551Y-116.84
X217.551Y-120.269
X217.602Y-108.052
X217.602Y-112.37
X217.602Y-113.309
X217.678Y-109.195
X217.805Y-101.346
X217.932Y-122.047
X218.186Y-105.918
X218.401Y-165.444
X218.528Y-161.253
X220.091Y-158.75
X220.218Y-117.475
X220.345Y-110.363
X220.599Y-119.253
X220.853Y-108.839
X221.322Y-157.57
X221.804Y-158.911
X221.904Y-156.261
X222.123Y-124.968
X222.377Y-127.381
X226.582Y-156.261
X226.643Y-158.999
X226.846Y-157.633
X228.346Y-135.128
X228.473Y-158.75
X228.854Y-127.127
X230.085Y-165.317
X230.251Y-131.826
X230.339Y-161.253
X230.632Y-117.602
X230.759Y-107.442
X230.886Y-109.347
X231.228Y-156.427
X231.521Y-112.522
X231.775Y-120.65
X232.156Y-126.365
X232.791Y-116.078
X234.061Y-106.426
X234.188Y-109.347
X234.315Y-136.652
X234.442Y-122.936
X234.569Y-119.126
X235.077Y-112.522
X235.712Y-115.189
X238.252Y-113.157
X239.014Y-116.205
X239.522Y-127.127
X239.522Y-136.398
X240.919Y-114.681
X241.554Y-111.887
X243.459Y-117.983
X244.602Y-114.681
X245.237Y-111.633
X246.888Y-115.951
X247.65Y-120.015
X247.777Y-111.887
X248.031Y-108.585
X248.412Y-101.854
X248.412Y-127.0
T5
X163.576Y-142.367
X163.576Y-149.987
X166.116Y-142.367
X166.116Y-149.987
X168.656Y-142.367
X168.656Y-149.987
X171.196Y-142.367
X171.196Y-149.987
T6
X158.369Y-159.131
X158.369Y-161.671
X160.909Y-159.131
X160.909Y-161.671
X163.449Y-159.131
X163.449Y-161.671
X165.989Y-159.131
X165.989Y-161.671
X168.529Y-159.131
X168.529Y-161.671
X171.069Y-159.131
X171.069Y-161.671
X173.609Y-159.131
X173.609Y-161.671
X176.149Y-159.131
X176.149Y-161.671
X178.689Y-159.131
X178.689Y-161.671
X181.229Y-159.131
X181.229Y-161.671
X183.769Y-159.131
X183.769Y-161.671
X186.309Y-159.131
X186.309Y-161.671
X188.849Y-159.131
X188.849Y-161.671
X191.389Y-159.131
X191.389Y-161.671
X193.929Y-159.131
X193.929Y-161.671
X196.469Y-159.131
X196.469Y-161.671
X199.009Y-159.131
X199.009Y-161.671
X201.549Y-159.131
X201.549Y-161.671
X204.089Y-159.131
X204.089Y-161.671
X206.629Y-159.131
X206.629Y-161.671
T4
X219.923Y-160.646G85X219.923Y-161.746
G05
X219.923Y-164.976G85X219.923Y-165.776
G05
X228.563Y-160.646G85X228.563Y-161.746
G05
X228.563Y-164.976G85X228.563Y-165.776
G05
M30
