G04 #@! TF.GenerationSoftware,KiCad,Pcbnew,10.0.0*
G04 #@! TF.CreationDate,2026-04-03T01:28:08-07:00*
G04 #@! TF.ProjectId,FatChudRuns,46617443-6875-4645-9275-6e732e6b6963,1.0*
G04 #@! TF.SameCoordinates,Original*
G04 #@! TF.FileFunction,Paste,Top*
G04 #@! TF.FilePolarity,Positive*
%FSLAX46Y46*%
G04 Gerber Fmt 4.6, Leading zero omitted, Abs format (unit mm)*
G04 Created by KiCad (PCBNEW 10.0.0) date 2026-04-03 01:28:08*
%MOMM*%
%LPD*%
G01*
G04 APERTURE LIST*
G04 Aperture macros list*
%AMRoundRect*
0 Rectangle with rounded corners*
0 $1 Rounding radius*
0 $2 $3 $4 $5 $6 $7 $8 $9 X,Y pos of 4 corners*
0 Add a 4 corners polygon primitive as box body*
4,1,4,$2,$3,$4,$5,$6,$7,$8,$9,$2,$3,0*
0 Add four circle primitives for the rounded corners*
1,1,$1+$1,$2,$3*
1,1,$1+$1,$4,$5*
1,1,$1+$1,$6,$7*
1,1,$1+$1,$8,$9*
0 Add four rect primitives between the rounded corners*
20,1,$1+$1,$2,$3,$4,$5,0*
20,1,$1+$1,$4,$5,$6,$7,0*
20,1,$1+$1,$6,$7,$8,$9,0*
20,1,$1+$1,$8,$9,$2,$3,0*%
G04 Aperture macros list end*
%ADD10RoundRect,0.225000X-0.250000X0.225000X-0.250000X-0.225000X0.250000X-0.225000X0.250000X0.225000X0*%
%ADD11RoundRect,0.200000X-0.200000X-0.275000X0.200000X-0.275000X0.200000X0.275000X-0.200000X0.275000X0*%
%ADD12RoundRect,0.225000X0.250000X-0.225000X0.250000X0.225000X-0.250000X0.225000X-0.250000X-0.225000X0*%
%ADD13RoundRect,0.200000X0.200000X0.275000X-0.200000X0.275000X-0.200000X-0.275000X0.200000X-0.275000X0*%
%ADD14RoundRect,0.200000X0.275000X-0.200000X0.275000X0.200000X-0.275000X0.200000X-0.275000X-0.200000X0*%
%ADD15RoundRect,0.150000X-0.150000X-0.425000X0.150000X-0.425000X0.150000X0.425000X-0.150000X0.425000X0*%
%ADD16RoundRect,0.075000X-0.075000X-0.500000X0.075000X-0.500000X0.075000X0.500000X-0.075000X0.500000X0*%
%ADD17O,1.000000X2.100000*%
%ADD18O,1.000000X1.800000*%
%ADD19RoundRect,0.200000X-0.275000X0.200000X-0.275000X-0.200000X0.275000X-0.200000X0.275000X0.200000X0*%
%ADD20RoundRect,0.225000X-0.225000X-0.250000X0.225000X-0.250000X0.225000X0.250000X-0.225000X0.250000X0*%
%ADD21RoundRect,0.242500X0.242500X-0.242500X0.242500X0.242500X-0.242500X0.242500X-0.242500X-0.242500X0*%
%ADD22RoundRect,0.075000X0.075000X-0.662500X0.075000X0.662500X-0.075000X0.662500X-0.075000X-0.662500X0*%
%ADD23RoundRect,0.075000X0.662500X-0.075000X0.662500X0.075000X-0.662500X0.075000X-0.662500X-0.075000X0*%
%ADD24RoundRect,0.225000X0.225000X0.250000X-0.225000X0.250000X-0.225000X-0.250000X0.225000X-0.250000X0*%
%ADD25R,2.794000X0.762000*%
%ADD26R,1.400000X1.200000*%
%ADD27RoundRect,0.150000X0.150000X-0.512500X0.150000X0.512500X-0.150000X0.512500X-0.150000X-0.512500X0*%
%ADD28RoundRect,0.200000X-1.550000X-0.200000X1.550000X-0.200000X1.550000X0.200000X-1.550000X0.200000X0*%
%ADD29RoundRect,0.815000X-1.485000X-0.815000X1.485000X-0.815000X1.485000X0.815000X-1.485000X0.815000X0*%
%ADD30RoundRect,0.075000X-0.700000X-0.075000X0.700000X-0.075000X0.700000X0.075000X-0.700000X0.075000X0*%
%ADD31RoundRect,0.075000X-0.075000X-0.700000X0.075000X-0.700000X0.075000X0.700000X-0.075000X0.700000X0*%
%ADD32RoundRect,0.150000X-0.512500X-0.150000X0.512500X-0.150000X0.512500X0.150000X-0.512500X0.150000X0*%
%ADD33R,1.000000X1.700000*%
%ADD34RoundRect,0.250000X0.625000X-0.375000X0.625000X0.375000X-0.625000X0.375000X-0.625000X-0.375000X0*%
G04 APERTURE END LIST*
D10*
X178181000Y-135623000D03*
X178181000Y-137173000D03*
D11*
X189929000Y-116078000D03*
X191579000Y-116078000D03*
X214377000Y-111937800D03*
X216027000Y-111937800D03*
D12*
X199136000Y-116599000D03*
X199136000Y-115049000D03*
D13*
X210629000Y-100203000D03*
X208979000Y-100203000D03*
D14*
X159131000Y-107251000D03*
X159131000Y-105601000D03*
D11*
X189929000Y-108331000D03*
X191579000Y-108331000D03*
X189929000Y-122174000D03*
X191579000Y-122174000D03*
D14*
X248412000Y-125666000D03*
X248412000Y-124016000D03*
D11*
X189929000Y-109922000D03*
X191579000Y-109922000D03*
X184087000Y-111506000D03*
X185737000Y-111506000D03*
X184087000Y-116078000D03*
X185737000Y-116078000D03*
D15*
X221042616Y-160621000D03*
X221842616Y-160621000D03*
D16*
X222992616Y-160621000D03*
X223992616Y-160621000D03*
X224492616Y-160621000D03*
X225492616Y-160621000D03*
D15*
X226642616Y-160621000D03*
X227442616Y-160621000D03*
X227442616Y-160621000D03*
X226642616Y-160621000D03*
D16*
X225992616Y-160621000D03*
X224992616Y-160621000D03*
X223492616Y-160621000D03*
X222492616Y-160621000D03*
D15*
X221842616Y-160621000D03*
X221042616Y-160621000D03*
D17*
X219922616Y-161196000D03*
D18*
X219922616Y-165376000D03*
D17*
X228562616Y-161196000D03*
D18*
X228562616Y-165376000D03*
D13*
X167957000Y-109728000D03*
X166307000Y-109728000D03*
D19*
X216789000Y-101410000D03*
X216789000Y-103060000D03*
D11*
X189802000Y-105283000D03*
X191452000Y-105283000D03*
X195771000Y-135382000D03*
X197421000Y-135382000D03*
D19*
X213360000Y-99505000D03*
X213360000Y-101155000D03*
D14*
X222123000Y-123888000D03*
X222123000Y-122238000D03*
D19*
X248412000Y-103061000D03*
X248412000Y-104711000D03*
D14*
X209169000Y-123698000D03*
X209169000Y-122048000D03*
D19*
X234315000Y-128207000D03*
X234315000Y-129857000D03*
D11*
X189929000Y-111506000D03*
X191579000Y-111506000D03*
X176467000Y-131064000D03*
X178117000Y-131064000D03*
D20*
X172783200Y-132918200D03*
X174333200Y-132918200D03*
D21*
X204387600Y-113722000D03*
X205587600Y-113722000D03*
X206787600Y-113722000D03*
X204387600Y-112522000D03*
X205587600Y-112522000D03*
X206787600Y-112522000D03*
X204387600Y-111322000D03*
X205587600Y-111322000D03*
X206787600Y-111322000D03*
D22*
X202837600Y-116684500D03*
X203337600Y-116684500D03*
X203837600Y-116684500D03*
X204337600Y-116684500D03*
X204837600Y-116684500D03*
X205337600Y-116684500D03*
X205837600Y-116684500D03*
X206337600Y-116684500D03*
X206837600Y-116684500D03*
X207337600Y-116684500D03*
X207837600Y-116684500D03*
X208337600Y-116684500D03*
D23*
X209750100Y-115272000D03*
X209750100Y-114772000D03*
X209750100Y-114272000D03*
X209750100Y-113772000D03*
X209750100Y-113272000D03*
X209750100Y-112772000D03*
X209750100Y-112272000D03*
X209750100Y-111772000D03*
X209750100Y-111272000D03*
X209750100Y-110772000D03*
X209750100Y-110272000D03*
X209750100Y-109772000D03*
D22*
X208337600Y-108359500D03*
X207837600Y-108359500D03*
X207337600Y-108359500D03*
X206837600Y-108359500D03*
X206337600Y-108359500D03*
X205837600Y-108359500D03*
X205337600Y-108359500D03*
X204837600Y-108359500D03*
X204337600Y-108359500D03*
X203837600Y-108359500D03*
X203337600Y-108359500D03*
X202837600Y-108359500D03*
D23*
X201425100Y-109772000D03*
X201425100Y-110272000D03*
X201425100Y-110772000D03*
X201425100Y-111272000D03*
X201425100Y-111772000D03*
X201425100Y-112272000D03*
X201425100Y-112772000D03*
X201425100Y-113272000D03*
X201425100Y-113772000D03*
X201425100Y-114272000D03*
X201425100Y-114772000D03*
X201425100Y-115272000D03*
D11*
X189802000Y-102108000D03*
X191452000Y-102108000D03*
X195644000Y-132207000D03*
X197294000Y-132207000D03*
D12*
X222123000Y-111138000D03*
X222123000Y-109588000D03*
D11*
X189929000Y-120650000D03*
X191579000Y-120650000D03*
D13*
X216013800Y-113715800D03*
X214363800Y-113715800D03*
D11*
X189866000Y-106807000D03*
X191516000Y-106807000D03*
D24*
X215913000Y-108077000D03*
X214363000Y-108077000D03*
D11*
X220028000Y-106807000D03*
X221678000Y-106807000D03*
D19*
X199898000Y-102807000D03*
X199898000Y-104457000D03*
D11*
X189929000Y-113030000D03*
X191579000Y-113030000D03*
D13*
X216013800Y-109804200D03*
X214363800Y-109804200D03*
D12*
X199059800Y-109664800D03*
X199059800Y-108114800D03*
D11*
X189802000Y-100584000D03*
X191452000Y-100584000D03*
D25*
X162941000Y-98933000D03*
X167005000Y-98933000D03*
X162941000Y-100203000D03*
X167005000Y-100203000D03*
X162941000Y-101473000D03*
X167005000Y-101473000D03*
X162941000Y-102743000D03*
X167005000Y-102743000D03*
X162941000Y-104013000D03*
X167005000Y-104013000D03*
X162941000Y-105283000D03*
X167005000Y-105283000D03*
X162941000Y-106553000D03*
X167005000Y-106553000D03*
D12*
X176504600Y-129527600D03*
X176504600Y-127977600D03*
D14*
X210693000Y-123635000D03*
X210693000Y-121985000D03*
D26*
X174328000Y-129540000D03*
X172128000Y-129540000D03*
X172128000Y-131140000D03*
X174328000Y-131140000D03*
D11*
X189802000Y-99060000D03*
X191452000Y-99060000D03*
D13*
X168084000Y-111887000D03*
X166434000Y-111887000D03*
D27*
X171389000Y-103626500D03*
X172339000Y-103626500D03*
X173289000Y-103626500D03*
X173289000Y-101351500D03*
X171389000Y-101351500D03*
D24*
X215989200Y-117627400D03*
X214439200Y-117627400D03*
D10*
X176530000Y-136004000D03*
X176530000Y-137554000D03*
D12*
X201930000Y-104407000D03*
X201930000Y-102857000D03*
D14*
X207645000Y-123634000D03*
X207645000Y-121984000D03*
X223277416Y-152816300D03*
X223277416Y-151166300D03*
D11*
X189929000Y-119126000D03*
X191579000Y-119126000D03*
X214401400Y-115798600D03*
X216051400Y-115798600D03*
X189802000Y-103759000D03*
X191452000Y-103759000D03*
D10*
X222123000Y-117462000D03*
X222123000Y-119012000D03*
D13*
X215302600Y-105003600D03*
X213652600Y-105003600D03*
D14*
X225207816Y-152816300D03*
X225207816Y-151166300D03*
D12*
X178054000Y-126886000D03*
X178054000Y-125336000D03*
D14*
X219202000Y-122110000D03*
X219202000Y-120460000D03*
D11*
X161100000Y-127635000D03*
X162750000Y-127635000D03*
D28*
X225776000Y-108610400D03*
X225776000Y-109880400D03*
X225776000Y-111150400D03*
X225776000Y-112420400D03*
X225776000Y-113690400D03*
X225776000Y-114960400D03*
X225776000Y-116230400D03*
X225776000Y-117500400D03*
X225776000Y-118770400D03*
X225776000Y-120040400D03*
D29*
X242926000Y-107555400D03*
X242926000Y-121095400D03*
D14*
X196596000Y-121729000D03*
X196596000Y-120079000D03*
D19*
X239522000Y-128207000D03*
X239522000Y-129857000D03*
D11*
X189929000Y-114554000D03*
X191579000Y-114554000D03*
D20*
X161150000Y-126111000D03*
X162700000Y-126111000D03*
D30*
X180634000Y-128711000D03*
X180634000Y-129211000D03*
X180634000Y-129711000D03*
X180634000Y-130211000D03*
X180634000Y-130711000D03*
X180634000Y-131211000D03*
X180634000Y-131711000D03*
X180634000Y-132211000D03*
X180634000Y-132711000D03*
X180634000Y-133211000D03*
X180634000Y-133711000D03*
X180634000Y-134211000D03*
X180634000Y-134711000D03*
X180634000Y-135211000D03*
X180634000Y-135711000D03*
X180634000Y-136211000D03*
D31*
X182559000Y-138136000D03*
X183059000Y-138136000D03*
X183559000Y-138136000D03*
X184059000Y-138136000D03*
X184559000Y-138136000D03*
X185059000Y-138136000D03*
X185559000Y-138136000D03*
X186059000Y-138136000D03*
X186559000Y-138136000D03*
X187059000Y-138136000D03*
X187559000Y-138136000D03*
X188059000Y-138136000D03*
X188559000Y-138136000D03*
X189059000Y-138136000D03*
X189559000Y-138136000D03*
X190059000Y-138136000D03*
D30*
X191984000Y-136211000D03*
X191984000Y-135711000D03*
X191984000Y-135211000D03*
X191984000Y-134711000D03*
X191984000Y-134211000D03*
X191984000Y-133711000D03*
X191984000Y-133211000D03*
X191984000Y-132711000D03*
X191984000Y-132211000D03*
X191984000Y-131711000D03*
X191984000Y-131211000D03*
X191984000Y-130711000D03*
X191984000Y-130211000D03*
X191984000Y-129711000D03*
X191984000Y-129211000D03*
X191984000Y-128711000D03*
D31*
X190059000Y-126786000D03*
X189559000Y-126786000D03*
X189059000Y-126786000D03*
X188559000Y-126786000D03*
X188059000Y-126786000D03*
X187559000Y-126786000D03*
X187059000Y-126786000D03*
X186559000Y-126786000D03*
X186059000Y-126786000D03*
X185559000Y-126786000D03*
X185059000Y-126786000D03*
X184559000Y-126786000D03*
X184059000Y-126786000D03*
X183559000Y-126786000D03*
X183059000Y-126786000D03*
X182559000Y-126786000D03*
D12*
X203962000Y-104407000D03*
X203962000Y-102857000D03*
D32*
X161168500Y-109794000D03*
X161168500Y-110744000D03*
X161168500Y-111694000D03*
X163443500Y-111694000D03*
X163443500Y-109794000D03*
D11*
X195771000Y-136906000D03*
X197421000Y-136906000D03*
D33*
X156723000Y-123673000D03*
X156723000Y-117373000D03*
X160523000Y-123673000D03*
X160523000Y-117373000D03*
D11*
X189929000Y-117602000D03*
X191579000Y-117602000D03*
D14*
X212217000Y-123635000D03*
X212217000Y-121985000D03*
D13*
X207581000Y-100203000D03*
X205931000Y-100203000D03*
D34*
X239522000Y-134877000D03*
X239522000Y-132077000D03*
D27*
X223292616Y-157396000D03*
X224242616Y-157396000D03*
X225192616Y-157396000D03*
X225192616Y-155121000D03*
X224242616Y-155121000D03*
X223292616Y-155121000D03*
D34*
X234315000Y-134877000D03*
X234315000Y-132077000D03*
M02*
