G04 #@! TF.GenerationSoftware,KiCad,Pcbnew,10.0.0*
G04 #@! TF.CreationDate,2026-04-03T01:28:08-07:00*
G04 #@! TF.ProjectId,FatChudRuns,46617443-6875-4645-9275-6e732e6b6963,1.0*
G04 #@! TF.SameCoordinates,Original*
G04 #@! TF.FileFunction,Legend,Top*
G04 #@! TF.FilePolarity,Positive*
%FSLAX46Y46*%
G04 Gerber Fmt 4.6, Leading zero omitted, Abs format (unit mm)*
G04 Created by KiCad (PCBNEW 10.0.0) date 2026-04-03 01:28:08*
%MOMM*%
%LPD*%
G01*
G04 APERTURE LIST*
G04 Aperture macros list*
%AMRoundRect*
0 Rectangle with rounded corners*
0 $1 Rounding radius*
0 $2 $3 $4 $5 $6 $7 $8 $9 X,Y pos of 4 corners*
0 Add a 4 corners polygon primitive as box body*
4,1,4,$2,$3,$4,$5,$6,$7,$8,$9,$2,$3,0*
0 Add four circle primitives for the rounded corners*
1,1,$1+$1,$2,$3*
1,1,$1+$1,$4,$5*
1,1,$1+$1,$6,$7*
1,1,$1+$1,$8,$9*
0 Add four rect primitives between the rounded corners*
20,1,$1+$1,$2,$3,$4,$5,0*
20,1,$1+$1,$4,$5,$6,$7,0*
20,1,$1+$1,$6,$7,$8,$9,0*
20,1,$1+$1,$8,$9,$2,$3,0*%
G04 Aperture macros list end*
%ADD10C,0.152400*%
%ADD11C,0.120000*%
%ADD12RoundRect,0.225000X-0.250000X0.225000X-0.250000X-0.225000X0.250000X-0.225000X0.250000X0.225000X0*%
%ADD13RoundRect,0.200000X-0.200000X-0.275000X0.200000X-0.275000X0.200000X0.275000X-0.200000X0.275000X0*%
%ADD14RoundRect,0.225000X0.250000X-0.225000X0.250000X0.225000X-0.250000X0.225000X-0.250000X-0.225000X0*%
%ADD15RoundRect,0.200000X0.200000X0.275000X-0.200000X0.275000X-0.200000X-0.275000X0.200000X-0.275000X0*%
%ADD16RoundRect,0.200000X0.275000X-0.200000X0.275000X0.200000X-0.275000X0.200000X-0.275000X-0.200000X0*%
%ADD17C,0.650000*%
%ADD18RoundRect,0.150000X-0.150000X-0.425000X0.150000X-0.425000X0.150000X0.425000X-0.150000X0.425000X0*%
%ADD19RoundRect,0.075000X-0.075000X-0.500000X0.075000X-0.500000X0.075000X0.500000X-0.075000X0.500000X0*%
%ADD20O,1.000000X2.100000*%
%ADD21O,1.000000X1.800000*%
%ADD22RoundRect,0.200000X-0.275000X0.200000X-0.275000X-0.200000X0.275000X-0.200000X0.275000X0.200000X0*%
%ADD23RoundRect,0.225000X-0.225000X-0.250000X0.225000X-0.250000X0.225000X0.250000X-0.225000X0.250000X0*%
%ADD24RoundRect,0.075000X0.075000X-0.662500X0.075000X0.662500X-0.075000X0.662500X-0.075000X-0.662500X0*%
%ADD25RoundRect,0.075000X0.662500X-0.075000X0.662500X0.075000X-0.662500X0.075000X-0.662500X-0.075000X0*%
%ADD26R,3.600000X3.600000*%
%ADD27RoundRect,0.225000X0.225000X0.250000X-0.225000X0.250000X-0.225000X-0.250000X0.225000X-0.250000X0*%
%ADD28R,2.794000X0.762000*%
%ADD29R,1.400000X1.200000*%
%ADD30RoundRect,0.150000X0.150000X-0.512500X0.150000X0.512500X-0.150000X0.512500X-0.150000X-0.512500X0*%
%ADD31C,1.117600*%
%ADD32C,3.000000*%
%ADD33RoundRect,0.200000X-1.550000X-0.200000X1.550000X-0.200000X1.550000X0.200000X-1.550000X0.200000X0*%
%ADD34RoundRect,0.815000X-1.485000X-0.815000X1.485000X-0.815000X1.485000X0.815000X-1.485000X0.815000X0*%
%ADD35RoundRect,0.075000X-0.700000X-0.075000X0.700000X-0.075000X0.700000X0.075000X-0.700000X0.075000X0*%
%ADD36RoundRect,0.075000X-0.075000X-0.700000X0.075000X-0.700000X0.075000X0.700000X-0.075000X0.700000X0*%
%ADD37RoundRect,0.150000X-0.512500X-0.150000X0.512500X-0.150000X0.512500X0.150000X-0.512500X0.150000X0*%
%ADD38R,1.700000X1.700000*%
%ADD39C,1.700000*%
%ADD40R,1.000000X1.700000*%
%ADD41RoundRect,0.250000X0.625000X-0.375000X0.625000X0.375000X-0.625000X0.375000X-0.625000X-0.375000X0*%
G04 APERTURE END LIST*
D10*
X177633333Y-134731334D02*
X177585714Y-134779715D01*
X177585714Y-134779715D02*
X177442857Y-134828095D01*
X177442857Y-134828095D02*
X177347619Y-134828095D01*
X177347619Y-134828095D02*
X177204762Y-134779715D01*
X177204762Y-134779715D02*
X177109524Y-134682953D01*
X177109524Y-134682953D02*
X177061905Y-134586191D01*
X177061905Y-134586191D02*
X177014286Y-134392667D01*
X177014286Y-134392667D02*
X177014286Y-134247524D01*
X177014286Y-134247524D02*
X177061905Y-134054000D01*
X177061905Y-134054000D02*
X177109524Y-133957238D01*
X177109524Y-133957238D02*
X177204762Y-133860476D01*
X177204762Y-133860476D02*
X177347619Y-133812095D01*
X177347619Y-133812095D02*
X177442857Y-133812095D01*
X177442857Y-133812095D02*
X177585714Y-133860476D01*
X177585714Y-133860476D02*
X177633333Y-133908857D01*
X178204762Y-134247524D02*
X178109524Y-134199143D01*
X178109524Y-134199143D02*
X178061905Y-134150762D01*
X178061905Y-134150762D02*
X178014286Y-134054000D01*
X178014286Y-134054000D02*
X178014286Y-134005619D01*
X178014286Y-134005619D02*
X178061905Y-133908857D01*
X178061905Y-133908857D02*
X178109524Y-133860476D01*
X178109524Y-133860476D02*
X178204762Y-133812095D01*
X178204762Y-133812095D02*
X178395238Y-133812095D01*
X178395238Y-133812095D02*
X178490476Y-133860476D01*
X178490476Y-133860476D02*
X178538095Y-133908857D01*
X178538095Y-133908857D02*
X178585714Y-134005619D01*
X178585714Y-134005619D02*
X178585714Y-134054000D01*
X178585714Y-134054000D02*
X178538095Y-134150762D01*
X178538095Y-134150762D02*
X178490476Y-134199143D01*
X178490476Y-134199143D02*
X178395238Y-134247524D01*
X178395238Y-134247524D02*
X178204762Y-134247524D01*
X178204762Y-134247524D02*
X178109524Y-134295905D01*
X178109524Y-134295905D02*
X178061905Y-134344286D01*
X178061905Y-134344286D02*
X178014286Y-134441048D01*
X178014286Y-134441048D02*
X178014286Y-134634572D01*
X178014286Y-134634572D02*
X178061905Y-134731334D01*
X178061905Y-134731334D02*
X178109524Y-134779715D01*
X178109524Y-134779715D02*
X178204762Y-134828095D01*
X178204762Y-134828095D02*
X178395238Y-134828095D01*
X178395238Y-134828095D02*
X178490476Y-134779715D01*
X178490476Y-134779715D02*
X178538095Y-134731334D01*
X178538095Y-134731334D02*
X178585714Y-134634572D01*
X178585714Y-134634572D02*
X178585714Y-134441048D01*
X178585714Y-134441048D02*
X178538095Y-134344286D01*
X178538095Y-134344286D02*
X178490476Y-134295905D01*
X178490476Y-134295905D02*
X178395238Y-134247524D01*
X187063142Y-116667095D02*
X186729809Y-116183286D01*
X186491714Y-116667095D02*
X186491714Y-115651095D01*
X186491714Y-115651095D02*
X186872666Y-115651095D01*
X186872666Y-115651095D02*
X186967904Y-115699476D01*
X186967904Y-115699476D02*
X187015523Y-115747857D01*
X187015523Y-115747857D02*
X187063142Y-115844619D01*
X187063142Y-115844619D02*
X187063142Y-115989762D01*
X187063142Y-115989762D02*
X187015523Y-116086524D01*
X187015523Y-116086524D02*
X186967904Y-116134905D01*
X186967904Y-116134905D02*
X186872666Y-116183286D01*
X186872666Y-116183286D02*
X186491714Y-116183286D01*
X188015523Y-116667095D02*
X187444095Y-116667095D01*
X187729809Y-116667095D02*
X187729809Y-115651095D01*
X187729809Y-115651095D02*
X187634571Y-115796238D01*
X187634571Y-115796238D02*
X187539333Y-115893000D01*
X187539333Y-115893000D02*
X187444095Y-115941381D01*
X188872666Y-115989762D02*
X188872666Y-116667095D01*
X188634571Y-115602715D02*
X188396476Y-116328429D01*
X188396476Y-116328429D02*
X189015523Y-116328429D01*
X218559142Y-112603095D02*
X218225809Y-112119286D01*
X217987714Y-112603095D02*
X217987714Y-111587095D01*
X217987714Y-111587095D02*
X218368666Y-111587095D01*
X218368666Y-111587095D02*
X218463904Y-111635476D01*
X218463904Y-111635476D02*
X218511523Y-111683857D01*
X218511523Y-111683857D02*
X218559142Y-111780619D01*
X218559142Y-111780619D02*
X218559142Y-111925762D01*
X218559142Y-111925762D02*
X218511523Y-112022524D01*
X218511523Y-112022524D02*
X218463904Y-112070905D01*
X218463904Y-112070905D02*
X218368666Y-112119286D01*
X218368666Y-112119286D02*
X217987714Y-112119286D01*
X218892476Y-111587095D02*
X219511523Y-111587095D01*
X219511523Y-111587095D02*
X219178190Y-111974143D01*
X219178190Y-111974143D02*
X219321047Y-111974143D01*
X219321047Y-111974143D02*
X219416285Y-112022524D01*
X219416285Y-112022524D02*
X219463904Y-112070905D01*
X219463904Y-112070905D02*
X219511523Y-112167667D01*
X219511523Y-112167667D02*
X219511523Y-112409572D01*
X219511523Y-112409572D02*
X219463904Y-112506334D01*
X219463904Y-112506334D02*
X219416285Y-112554715D01*
X219416285Y-112554715D02*
X219321047Y-112603095D01*
X219321047Y-112603095D02*
X219035333Y-112603095D01*
X219035333Y-112603095D02*
X218940095Y-112554715D01*
X218940095Y-112554715D02*
X218892476Y-112506334D01*
X220368666Y-111925762D02*
X220368666Y-112603095D01*
X220130571Y-111538715D02*
X219892476Y-112264429D01*
X219892476Y-112264429D02*
X220511523Y-112264429D01*
X209129333Y-99293495D02*
X208796000Y-98809686D01*
X208557905Y-99293495D02*
X208557905Y-98277495D01*
X208557905Y-98277495D02*
X208938857Y-98277495D01*
X208938857Y-98277495D02*
X209034095Y-98325876D01*
X209034095Y-98325876D02*
X209081714Y-98374257D01*
X209081714Y-98374257D02*
X209129333Y-98471019D01*
X209129333Y-98471019D02*
X209129333Y-98616162D01*
X209129333Y-98616162D02*
X209081714Y-98712924D01*
X209081714Y-98712924D02*
X209034095Y-98761305D01*
X209034095Y-98761305D02*
X208938857Y-98809686D01*
X208938857Y-98809686D02*
X208557905Y-98809686D01*
X209462667Y-98277495D02*
X210129333Y-98277495D01*
X210129333Y-98277495D02*
X209700762Y-99293495D01*
X158361142Y-104729095D02*
X158027809Y-104245286D01*
X157789714Y-104729095D02*
X157789714Y-103713095D01*
X157789714Y-103713095D02*
X158170666Y-103713095D01*
X158170666Y-103713095D02*
X158265904Y-103761476D01*
X158265904Y-103761476D02*
X158313523Y-103809857D01*
X158313523Y-103809857D02*
X158361142Y-103906619D01*
X158361142Y-103906619D02*
X158361142Y-104051762D01*
X158361142Y-104051762D02*
X158313523Y-104148524D01*
X158313523Y-104148524D02*
X158265904Y-104196905D01*
X158265904Y-104196905D02*
X158170666Y-104245286D01*
X158170666Y-104245286D02*
X157789714Y-104245286D01*
X159218285Y-104051762D02*
X159218285Y-104729095D01*
X158980190Y-103664715D02*
X158742095Y-104390429D01*
X158742095Y-104390429D02*
X159361142Y-104390429D01*
X160170666Y-104051762D02*
X160170666Y-104729095D01*
X159932571Y-103664715D02*
X159694476Y-104390429D01*
X159694476Y-104390429D02*
X160313523Y-104390429D01*
X187063142Y-108793095D02*
X186729809Y-108309286D01*
X186491714Y-108793095D02*
X186491714Y-107777095D01*
X186491714Y-107777095D02*
X186872666Y-107777095D01*
X186872666Y-107777095D02*
X186967904Y-107825476D01*
X186967904Y-107825476D02*
X187015523Y-107873857D01*
X187015523Y-107873857D02*
X187063142Y-107970619D01*
X187063142Y-107970619D02*
X187063142Y-108115762D01*
X187063142Y-108115762D02*
X187015523Y-108212524D01*
X187015523Y-108212524D02*
X186967904Y-108260905D01*
X186967904Y-108260905D02*
X186872666Y-108309286D01*
X186872666Y-108309286D02*
X186491714Y-108309286D01*
X188015523Y-108793095D02*
X187444095Y-108793095D01*
X187729809Y-108793095D02*
X187729809Y-107777095D01*
X187729809Y-107777095D02*
X187634571Y-107922238D01*
X187634571Y-107922238D02*
X187539333Y-108019000D01*
X187539333Y-108019000D02*
X187444095Y-108067381D01*
X188872666Y-107777095D02*
X188682190Y-107777095D01*
X188682190Y-107777095D02*
X188586952Y-107825476D01*
X188586952Y-107825476D02*
X188539333Y-107873857D01*
X188539333Y-107873857D02*
X188444095Y-108019000D01*
X188444095Y-108019000D02*
X188396476Y-108212524D01*
X188396476Y-108212524D02*
X188396476Y-108599572D01*
X188396476Y-108599572D02*
X188444095Y-108696334D01*
X188444095Y-108696334D02*
X188491714Y-108744715D01*
X188491714Y-108744715D02*
X188586952Y-108793095D01*
X188586952Y-108793095D02*
X188777428Y-108793095D01*
X188777428Y-108793095D02*
X188872666Y-108744715D01*
X188872666Y-108744715D02*
X188920285Y-108696334D01*
X188920285Y-108696334D02*
X188967904Y-108599572D01*
X188967904Y-108599572D02*
X188967904Y-108357667D01*
X188967904Y-108357667D02*
X188920285Y-108260905D01*
X188920285Y-108260905D02*
X188872666Y-108212524D01*
X188872666Y-108212524D02*
X188777428Y-108164143D01*
X188777428Y-108164143D02*
X188586952Y-108164143D01*
X188586952Y-108164143D02*
X188491714Y-108212524D01*
X188491714Y-108212524D02*
X188444095Y-108260905D01*
X188444095Y-108260905D02*
X188396476Y-108357667D01*
X187063142Y-122509095D02*
X186729809Y-122025286D01*
X186491714Y-122509095D02*
X186491714Y-121493095D01*
X186491714Y-121493095D02*
X186872666Y-121493095D01*
X186872666Y-121493095D02*
X186967904Y-121541476D01*
X186967904Y-121541476D02*
X187015523Y-121589857D01*
X187015523Y-121589857D02*
X187063142Y-121686619D01*
X187063142Y-121686619D02*
X187063142Y-121831762D01*
X187063142Y-121831762D02*
X187015523Y-121928524D01*
X187015523Y-121928524D02*
X186967904Y-121976905D01*
X186967904Y-121976905D02*
X186872666Y-122025286D01*
X186872666Y-122025286D02*
X186491714Y-122025286D01*
X187444095Y-121589857D02*
X187491714Y-121541476D01*
X187491714Y-121541476D02*
X187586952Y-121493095D01*
X187586952Y-121493095D02*
X187825047Y-121493095D01*
X187825047Y-121493095D02*
X187920285Y-121541476D01*
X187920285Y-121541476D02*
X187967904Y-121589857D01*
X187967904Y-121589857D02*
X188015523Y-121686619D01*
X188015523Y-121686619D02*
X188015523Y-121783381D01*
X188015523Y-121783381D02*
X187967904Y-121928524D01*
X187967904Y-121928524D02*
X187396476Y-122509095D01*
X187396476Y-122509095D02*
X188015523Y-122509095D01*
X188872666Y-121831762D02*
X188872666Y-122509095D01*
X188634571Y-121444715D02*
X188396476Y-122170429D01*
X188396476Y-122170429D02*
X189015523Y-122170429D01*
X245229142Y-126319095D02*
X244895809Y-125835286D01*
X244657714Y-126319095D02*
X244657714Y-125303095D01*
X244657714Y-125303095D02*
X245038666Y-125303095D01*
X245038666Y-125303095D02*
X245133904Y-125351476D01*
X245133904Y-125351476D02*
X245181523Y-125399857D01*
X245181523Y-125399857D02*
X245229142Y-125496619D01*
X245229142Y-125496619D02*
X245229142Y-125641762D01*
X245229142Y-125641762D02*
X245181523Y-125738524D01*
X245181523Y-125738524D02*
X245133904Y-125786905D01*
X245133904Y-125786905D02*
X245038666Y-125835286D01*
X245038666Y-125835286D02*
X244657714Y-125835286D01*
X246133904Y-125303095D02*
X245657714Y-125303095D01*
X245657714Y-125303095D02*
X245610095Y-125786905D01*
X245610095Y-125786905D02*
X245657714Y-125738524D01*
X245657714Y-125738524D02*
X245752952Y-125690143D01*
X245752952Y-125690143D02*
X245991047Y-125690143D01*
X245991047Y-125690143D02*
X246086285Y-125738524D01*
X246086285Y-125738524D02*
X246133904Y-125786905D01*
X246133904Y-125786905D02*
X246181523Y-125883667D01*
X246181523Y-125883667D02*
X246181523Y-126125572D01*
X246181523Y-126125572D02*
X246133904Y-126222334D01*
X246133904Y-126222334D02*
X246086285Y-126270715D01*
X246086285Y-126270715D02*
X245991047Y-126319095D01*
X245991047Y-126319095D02*
X245752952Y-126319095D01*
X245752952Y-126319095D02*
X245657714Y-126270715D01*
X245657714Y-126270715D02*
X245610095Y-126222334D01*
X246752952Y-125738524D02*
X246657714Y-125690143D01*
X246657714Y-125690143D02*
X246610095Y-125641762D01*
X246610095Y-125641762D02*
X246562476Y-125545000D01*
X246562476Y-125545000D02*
X246562476Y-125496619D01*
X246562476Y-125496619D02*
X246610095Y-125399857D01*
X246610095Y-125399857D02*
X246657714Y-125351476D01*
X246657714Y-125351476D02*
X246752952Y-125303095D01*
X246752952Y-125303095D02*
X246943428Y-125303095D01*
X246943428Y-125303095D02*
X247038666Y-125351476D01*
X247038666Y-125351476D02*
X247086285Y-125399857D01*
X247086285Y-125399857D02*
X247133904Y-125496619D01*
X247133904Y-125496619D02*
X247133904Y-125545000D01*
X247133904Y-125545000D02*
X247086285Y-125641762D01*
X247086285Y-125641762D02*
X247038666Y-125690143D01*
X247038666Y-125690143D02*
X246943428Y-125738524D01*
X246943428Y-125738524D02*
X246752952Y-125738524D01*
X246752952Y-125738524D02*
X246657714Y-125786905D01*
X246657714Y-125786905D02*
X246610095Y-125835286D01*
X246610095Y-125835286D02*
X246562476Y-125932048D01*
X246562476Y-125932048D02*
X246562476Y-126125572D01*
X246562476Y-126125572D02*
X246610095Y-126222334D01*
X246610095Y-126222334D02*
X246657714Y-126270715D01*
X246657714Y-126270715D02*
X246752952Y-126319095D01*
X246752952Y-126319095D02*
X246943428Y-126319095D01*
X246943428Y-126319095D02*
X247038666Y-126270715D01*
X247038666Y-126270715D02*
X247086285Y-126222334D01*
X247086285Y-126222334D02*
X247133904Y-126125572D01*
X247133904Y-126125572D02*
X247133904Y-125932048D01*
X247133904Y-125932048D02*
X247086285Y-125835286D01*
X247086285Y-125835286D02*
X247038666Y-125786905D01*
X247038666Y-125786905D02*
X246943428Y-125738524D01*
X187063142Y-110444095D02*
X186729809Y-109960286D01*
X186491714Y-110444095D02*
X186491714Y-109428095D01*
X186491714Y-109428095D02*
X186872666Y-109428095D01*
X186872666Y-109428095D02*
X186967904Y-109476476D01*
X186967904Y-109476476D02*
X187015523Y-109524857D01*
X187015523Y-109524857D02*
X187063142Y-109621619D01*
X187063142Y-109621619D02*
X187063142Y-109766762D01*
X187063142Y-109766762D02*
X187015523Y-109863524D01*
X187015523Y-109863524D02*
X186967904Y-109911905D01*
X186967904Y-109911905D02*
X186872666Y-109960286D01*
X186872666Y-109960286D02*
X186491714Y-109960286D01*
X188015523Y-110444095D02*
X187444095Y-110444095D01*
X187729809Y-110444095D02*
X187729809Y-109428095D01*
X187729809Y-109428095D02*
X187634571Y-109573238D01*
X187634571Y-109573238D02*
X187539333Y-109670000D01*
X187539333Y-109670000D02*
X187444095Y-109718381D01*
X188586952Y-109863524D02*
X188491714Y-109815143D01*
X188491714Y-109815143D02*
X188444095Y-109766762D01*
X188444095Y-109766762D02*
X188396476Y-109670000D01*
X188396476Y-109670000D02*
X188396476Y-109621619D01*
X188396476Y-109621619D02*
X188444095Y-109524857D01*
X188444095Y-109524857D02*
X188491714Y-109476476D01*
X188491714Y-109476476D02*
X188586952Y-109428095D01*
X188586952Y-109428095D02*
X188777428Y-109428095D01*
X188777428Y-109428095D02*
X188872666Y-109476476D01*
X188872666Y-109476476D02*
X188920285Y-109524857D01*
X188920285Y-109524857D02*
X188967904Y-109621619D01*
X188967904Y-109621619D02*
X188967904Y-109670000D01*
X188967904Y-109670000D02*
X188920285Y-109766762D01*
X188920285Y-109766762D02*
X188872666Y-109815143D01*
X188872666Y-109815143D02*
X188777428Y-109863524D01*
X188777428Y-109863524D02*
X188586952Y-109863524D01*
X188586952Y-109863524D02*
X188491714Y-109911905D01*
X188491714Y-109911905D02*
X188444095Y-109960286D01*
X188444095Y-109960286D02*
X188396476Y-110057048D01*
X188396476Y-110057048D02*
X188396476Y-110250572D01*
X188396476Y-110250572D02*
X188444095Y-110347334D01*
X188444095Y-110347334D02*
X188491714Y-110395715D01*
X188491714Y-110395715D02*
X188586952Y-110444095D01*
X188586952Y-110444095D02*
X188777428Y-110444095D01*
X188777428Y-110444095D02*
X188872666Y-110395715D01*
X188872666Y-110395715D02*
X188920285Y-110347334D01*
X188920285Y-110347334D02*
X188967904Y-110250572D01*
X188967904Y-110250572D02*
X188967904Y-110057048D01*
X188967904Y-110057048D02*
X188920285Y-109960286D01*
X188920285Y-109960286D02*
X188872666Y-109911905D01*
X188872666Y-109911905D02*
X188777428Y-109863524D01*
X169855142Y-110190095D02*
X169521809Y-109706286D01*
X169283714Y-110190095D02*
X169283714Y-109174095D01*
X169283714Y-109174095D02*
X169664666Y-109174095D01*
X169664666Y-109174095D02*
X169759904Y-109222476D01*
X169759904Y-109222476D02*
X169807523Y-109270857D01*
X169807523Y-109270857D02*
X169855142Y-109367619D01*
X169855142Y-109367619D02*
X169855142Y-109512762D01*
X169855142Y-109512762D02*
X169807523Y-109609524D01*
X169807523Y-109609524D02*
X169759904Y-109657905D01*
X169759904Y-109657905D02*
X169664666Y-109706286D01*
X169664666Y-109706286D02*
X169283714Y-109706286D01*
X170759904Y-109174095D02*
X170283714Y-109174095D01*
X170283714Y-109174095D02*
X170236095Y-109657905D01*
X170236095Y-109657905D02*
X170283714Y-109609524D01*
X170283714Y-109609524D02*
X170378952Y-109561143D01*
X170378952Y-109561143D02*
X170617047Y-109561143D01*
X170617047Y-109561143D02*
X170712285Y-109609524D01*
X170712285Y-109609524D02*
X170759904Y-109657905D01*
X170759904Y-109657905D02*
X170807523Y-109754667D01*
X170807523Y-109754667D02*
X170807523Y-109996572D01*
X170807523Y-109996572D02*
X170759904Y-110093334D01*
X170759904Y-110093334D02*
X170712285Y-110141715D01*
X170712285Y-110141715D02*
X170617047Y-110190095D01*
X170617047Y-110190095D02*
X170378952Y-110190095D01*
X170378952Y-110190095D02*
X170283714Y-110141715D01*
X170283714Y-110141715D02*
X170236095Y-110093334D01*
X171712285Y-109174095D02*
X171236095Y-109174095D01*
X171236095Y-109174095D02*
X171188476Y-109657905D01*
X171188476Y-109657905D02*
X171236095Y-109609524D01*
X171236095Y-109609524D02*
X171331333Y-109561143D01*
X171331333Y-109561143D02*
X171569428Y-109561143D01*
X171569428Y-109561143D02*
X171664666Y-109609524D01*
X171664666Y-109609524D02*
X171712285Y-109657905D01*
X171712285Y-109657905D02*
X171759904Y-109754667D01*
X171759904Y-109754667D02*
X171759904Y-109996572D01*
X171759904Y-109996572D02*
X171712285Y-110093334D01*
X171712285Y-110093334D02*
X171664666Y-110141715D01*
X171664666Y-110141715D02*
X171569428Y-110190095D01*
X171569428Y-110190095D02*
X171331333Y-110190095D01*
X171331333Y-110190095D02*
X171236095Y-110141715D01*
X171236095Y-110141715D02*
X171188476Y-110093334D01*
X216400142Y-100411095D02*
X216066809Y-99927286D01*
X215828714Y-100411095D02*
X215828714Y-99395095D01*
X215828714Y-99395095D02*
X216209666Y-99395095D01*
X216209666Y-99395095D02*
X216304904Y-99443476D01*
X216304904Y-99443476D02*
X216352523Y-99491857D01*
X216352523Y-99491857D02*
X216400142Y-99588619D01*
X216400142Y-99588619D02*
X216400142Y-99733762D01*
X216400142Y-99733762D02*
X216352523Y-99830524D01*
X216352523Y-99830524D02*
X216304904Y-99878905D01*
X216304904Y-99878905D02*
X216209666Y-99927286D01*
X216209666Y-99927286D02*
X215828714Y-99927286D01*
X217257285Y-99733762D02*
X217257285Y-100411095D01*
X217019190Y-99346715D02*
X216781095Y-100072429D01*
X216781095Y-100072429D02*
X217400142Y-100072429D01*
X218304904Y-100411095D02*
X217733476Y-100411095D01*
X218019190Y-100411095D02*
X218019190Y-99395095D01*
X218019190Y-99395095D02*
X217923952Y-99540238D01*
X217923952Y-99540238D02*
X217828714Y-99637000D01*
X217828714Y-99637000D02*
X217733476Y-99685381D01*
X186745142Y-105775095D02*
X186411809Y-105291286D01*
X186173714Y-105775095D02*
X186173714Y-104759095D01*
X186173714Y-104759095D02*
X186554666Y-104759095D01*
X186554666Y-104759095D02*
X186649904Y-104807476D01*
X186649904Y-104807476D02*
X186697523Y-104855857D01*
X186697523Y-104855857D02*
X186745142Y-104952619D01*
X186745142Y-104952619D02*
X186745142Y-105097762D01*
X186745142Y-105097762D02*
X186697523Y-105194524D01*
X186697523Y-105194524D02*
X186649904Y-105242905D01*
X186649904Y-105242905D02*
X186554666Y-105291286D01*
X186554666Y-105291286D02*
X186173714Y-105291286D01*
X187697523Y-105775095D02*
X187126095Y-105775095D01*
X187411809Y-105775095D02*
X187411809Y-104759095D01*
X187411809Y-104759095D02*
X187316571Y-104904238D01*
X187316571Y-104904238D02*
X187221333Y-105001000D01*
X187221333Y-105001000D02*
X187126095Y-105049381D01*
X188078476Y-104855857D02*
X188126095Y-104807476D01*
X188126095Y-104807476D02*
X188221333Y-104759095D01*
X188221333Y-104759095D02*
X188459428Y-104759095D01*
X188459428Y-104759095D02*
X188554666Y-104807476D01*
X188554666Y-104807476D02*
X188602285Y-104855857D01*
X188602285Y-104855857D02*
X188649904Y-104952619D01*
X188649904Y-104952619D02*
X188649904Y-105049381D01*
X188649904Y-105049381D02*
X188602285Y-105194524D01*
X188602285Y-105194524D02*
X188030857Y-105775095D01*
X188030857Y-105775095D02*
X188649904Y-105775095D01*
X198969333Y-135844095D02*
X198636000Y-135360286D01*
X198397905Y-135844095D02*
X198397905Y-134828095D01*
X198397905Y-134828095D02*
X198778857Y-134828095D01*
X198778857Y-134828095D02*
X198874095Y-134876476D01*
X198874095Y-134876476D02*
X198921714Y-134924857D01*
X198921714Y-134924857D02*
X198969333Y-135021619D01*
X198969333Y-135021619D02*
X198969333Y-135166762D01*
X198969333Y-135166762D02*
X198921714Y-135263524D01*
X198921714Y-135263524D02*
X198874095Y-135311905D01*
X198874095Y-135311905D02*
X198778857Y-135360286D01*
X198778857Y-135360286D02*
X198397905Y-135360286D01*
X199445524Y-135844095D02*
X199636000Y-135844095D01*
X199636000Y-135844095D02*
X199731238Y-135795715D01*
X199731238Y-135795715D02*
X199778857Y-135747334D01*
X199778857Y-135747334D02*
X199874095Y-135602191D01*
X199874095Y-135602191D02*
X199921714Y-135408667D01*
X199921714Y-135408667D02*
X199921714Y-135021619D01*
X199921714Y-135021619D02*
X199874095Y-134924857D01*
X199874095Y-134924857D02*
X199826476Y-134876476D01*
X199826476Y-134876476D02*
X199731238Y-134828095D01*
X199731238Y-134828095D02*
X199540762Y-134828095D01*
X199540762Y-134828095D02*
X199445524Y-134876476D01*
X199445524Y-134876476D02*
X199397905Y-134924857D01*
X199397905Y-134924857D02*
X199350286Y-135021619D01*
X199350286Y-135021619D02*
X199350286Y-135263524D01*
X199350286Y-135263524D02*
X199397905Y-135360286D01*
X199397905Y-135360286D02*
X199445524Y-135408667D01*
X199445524Y-135408667D02*
X199540762Y-135457048D01*
X199540762Y-135457048D02*
X199731238Y-135457048D01*
X199731238Y-135457048D02*
X199826476Y-135408667D01*
X199826476Y-135408667D02*
X199874095Y-135360286D01*
X199874095Y-135360286D02*
X199921714Y-135263524D01*
X212717142Y-98506095D02*
X212383809Y-98022286D01*
X212145714Y-98506095D02*
X212145714Y-97490095D01*
X212145714Y-97490095D02*
X212526666Y-97490095D01*
X212526666Y-97490095D02*
X212621904Y-97538476D01*
X212621904Y-97538476D02*
X212669523Y-97586857D01*
X212669523Y-97586857D02*
X212717142Y-97683619D01*
X212717142Y-97683619D02*
X212717142Y-97828762D01*
X212717142Y-97828762D02*
X212669523Y-97925524D01*
X212669523Y-97925524D02*
X212621904Y-97973905D01*
X212621904Y-97973905D02*
X212526666Y-98022286D01*
X212526666Y-98022286D02*
X212145714Y-98022286D01*
X213574285Y-97828762D02*
X213574285Y-98506095D01*
X213336190Y-97441715D02*
X213098095Y-98167429D01*
X213098095Y-98167429D02*
X213717142Y-98167429D01*
X214050476Y-97586857D02*
X214098095Y-97538476D01*
X214098095Y-97538476D02*
X214193333Y-97490095D01*
X214193333Y-97490095D02*
X214431428Y-97490095D01*
X214431428Y-97490095D02*
X214526666Y-97538476D01*
X214526666Y-97538476D02*
X214574285Y-97586857D01*
X214574285Y-97586857D02*
X214621904Y-97683619D01*
X214621904Y-97683619D02*
X214621904Y-97780381D01*
X214621904Y-97780381D02*
X214574285Y-97925524D01*
X214574285Y-97925524D02*
X214002857Y-98506095D01*
X214002857Y-98506095D02*
X214621904Y-98506095D01*
X245356142Y-103459095D02*
X245022809Y-102975286D01*
X244784714Y-103459095D02*
X244784714Y-102443095D01*
X244784714Y-102443095D02*
X245165666Y-102443095D01*
X245165666Y-102443095D02*
X245260904Y-102491476D01*
X245260904Y-102491476D02*
X245308523Y-102539857D01*
X245308523Y-102539857D02*
X245356142Y-102636619D01*
X245356142Y-102636619D02*
X245356142Y-102781762D01*
X245356142Y-102781762D02*
X245308523Y-102878524D01*
X245308523Y-102878524D02*
X245260904Y-102926905D01*
X245260904Y-102926905D02*
X245165666Y-102975286D01*
X245165666Y-102975286D02*
X244784714Y-102975286D01*
X246260904Y-102443095D02*
X245784714Y-102443095D01*
X245784714Y-102443095D02*
X245737095Y-102926905D01*
X245737095Y-102926905D02*
X245784714Y-102878524D01*
X245784714Y-102878524D02*
X245879952Y-102830143D01*
X245879952Y-102830143D02*
X246118047Y-102830143D01*
X246118047Y-102830143D02*
X246213285Y-102878524D01*
X246213285Y-102878524D02*
X246260904Y-102926905D01*
X246260904Y-102926905D02*
X246308523Y-103023667D01*
X246308523Y-103023667D02*
X246308523Y-103265572D01*
X246308523Y-103265572D02*
X246260904Y-103362334D01*
X246260904Y-103362334D02*
X246213285Y-103410715D01*
X246213285Y-103410715D02*
X246118047Y-103459095D01*
X246118047Y-103459095D02*
X245879952Y-103459095D01*
X245879952Y-103459095D02*
X245784714Y-103410715D01*
X245784714Y-103410715D02*
X245737095Y-103362334D01*
X246784714Y-103459095D02*
X246975190Y-103459095D01*
X246975190Y-103459095D02*
X247070428Y-103410715D01*
X247070428Y-103410715D02*
X247118047Y-103362334D01*
X247118047Y-103362334D02*
X247213285Y-103217191D01*
X247213285Y-103217191D02*
X247260904Y-103023667D01*
X247260904Y-103023667D02*
X247260904Y-102636619D01*
X247260904Y-102636619D02*
X247213285Y-102539857D01*
X247213285Y-102539857D02*
X247165666Y-102491476D01*
X247165666Y-102491476D02*
X247070428Y-102443095D01*
X247070428Y-102443095D02*
X246879952Y-102443095D01*
X246879952Y-102443095D02*
X246784714Y-102491476D01*
X246784714Y-102491476D02*
X246737095Y-102539857D01*
X246737095Y-102539857D02*
X246689476Y-102636619D01*
X246689476Y-102636619D02*
X246689476Y-102878524D01*
X246689476Y-102878524D02*
X246737095Y-102975286D01*
X246737095Y-102975286D02*
X246784714Y-103023667D01*
X246784714Y-103023667D02*
X246879952Y-103072048D01*
X246879952Y-103072048D02*
X247070428Y-103072048D01*
X247070428Y-103072048D02*
X247165666Y-103023667D01*
X247165666Y-103023667D02*
X247213285Y-102975286D01*
X247213285Y-102975286D02*
X247260904Y-102878524D01*
X209631095Y-126563857D02*
X209147286Y-126897190D01*
X209631095Y-127135285D02*
X208615095Y-127135285D01*
X208615095Y-127135285D02*
X208615095Y-126754333D01*
X208615095Y-126754333D02*
X208663476Y-126659095D01*
X208663476Y-126659095D02*
X208711857Y-126611476D01*
X208711857Y-126611476D02*
X208808619Y-126563857D01*
X208808619Y-126563857D02*
X208953762Y-126563857D01*
X208953762Y-126563857D02*
X209050524Y-126611476D01*
X209050524Y-126611476D02*
X209098905Y-126659095D01*
X209098905Y-126659095D02*
X209147286Y-126754333D01*
X209147286Y-126754333D02*
X209147286Y-127135285D01*
X208615095Y-126230523D02*
X208615095Y-125611476D01*
X208615095Y-125611476D02*
X209002143Y-125944809D01*
X209002143Y-125944809D02*
X209002143Y-125801952D01*
X209002143Y-125801952D02*
X209050524Y-125706714D01*
X209050524Y-125706714D02*
X209098905Y-125659095D01*
X209098905Y-125659095D02*
X209195667Y-125611476D01*
X209195667Y-125611476D02*
X209437572Y-125611476D01*
X209437572Y-125611476D02*
X209534334Y-125659095D01*
X209534334Y-125659095D02*
X209582715Y-125706714D01*
X209582715Y-125706714D02*
X209631095Y-125801952D01*
X209631095Y-125801952D02*
X209631095Y-126087666D01*
X209631095Y-126087666D02*
X209582715Y-126182904D01*
X209582715Y-126182904D02*
X209534334Y-126230523D01*
X208615095Y-124992428D02*
X208615095Y-124897190D01*
X208615095Y-124897190D02*
X208663476Y-124801952D01*
X208663476Y-124801952D02*
X208711857Y-124754333D01*
X208711857Y-124754333D02*
X208808619Y-124706714D01*
X208808619Y-124706714D02*
X209002143Y-124659095D01*
X209002143Y-124659095D02*
X209244048Y-124659095D01*
X209244048Y-124659095D02*
X209437572Y-124706714D01*
X209437572Y-124706714D02*
X209534334Y-124754333D01*
X209534334Y-124754333D02*
X209582715Y-124801952D01*
X209582715Y-124801952D02*
X209631095Y-124897190D01*
X209631095Y-124897190D02*
X209631095Y-124992428D01*
X209631095Y-124992428D02*
X209582715Y-125087666D01*
X209582715Y-125087666D02*
X209534334Y-125135285D01*
X209534334Y-125135285D02*
X209437572Y-125182904D01*
X209437572Y-125182904D02*
X209244048Y-125230523D01*
X209244048Y-125230523D02*
X209002143Y-125230523D01*
X209002143Y-125230523D02*
X208808619Y-125182904D01*
X208808619Y-125182904D02*
X208711857Y-125135285D01*
X208711857Y-125135285D02*
X208663476Y-125087666D01*
X208663476Y-125087666D02*
X208615095Y-124992428D01*
X233799142Y-126954095D02*
X233465809Y-126470286D01*
X233227714Y-126954095D02*
X233227714Y-125938095D01*
X233227714Y-125938095D02*
X233608666Y-125938095D01*
X233608666Y-125938095D02*
X233703904Y-125986476D01*
X233703904Y-125986476D02*
X233751523Y-126034857D01*
X233751523Y-126034857D02*
X233799142Y-126131619D01*
X233799142Y-126131619D02*
X233799142Y-126276762D01*
X233799142Y-126276762D02*
X233751523Y-126373524D01*
X233751523Y-126373524D02*
X233703904Y-126421905D01*
X233703904Y-126421905D02*
X233608666Y-126470286D01*
X233608666Y-126470286D02*
X233227714Y-126470286D01*
X234703904Y-125938095D02*
X234227714Y-125938095D01*
X234227714Y-125938095D02*
X234180095Y-126421905D01*
X234180095Y-126421905D02*
X234227714Y-126373524D01*
X234227714Y-126373524D02*
X234322952Y-126325143D01*
X234322952Y-126325143D02*
X234561047Y-126325143D01*
X234561047Y-126325143D02*
X234656285Y-126373524D01*
X234656285Y-126373524D02*
X234703904Y-126421905D01*
X234703904Y-126421905D02*
X234751523Y-126518667D01*
X234751523Y-126518667D02*
X234751523Y-126760572D01*
X234751523Y-126760572D02*
X234703904Y-126857334D01*
X234703904Y-126857334D02*
X234656285Y-126905715D01*
X234656285Y-126905715D02*
X234561047Y-126954095D01*
X234561047Y-126954095D02*
X234322952Y-126954095D01*
X234322952Y-126954095D02*
X234227714Y-126905715D01*
X234227714Y-126905715D02*
X234180095Y-126857334D01*
X235370571Y-125938095D02*
X235465809Y-125938095D01*
X235465809Y-125938095D02*
X235561047Y-125986476D01*
X235561047Y-125986476D02*
X235608666Y-126034857D01*
X235608666Y-126034857D02*
X235656285Y-126131619D01*
X235656285Y-126131619D02*
X235703904Y-126325143D01*
X235703904Y-126325143D02*
X235703904Y-126567048D01*
X235703904Y-126567048D02*
X235656285Y-126760572D01*
X235656285Y-126760572D02*
X235608666Y-126857334D01*
X235608666Y-126857334D02*
X235561047Y-126905715D01*
X235561047Y-126905715D02*
X235465809Y-126954095D01*
X235465809Y-126954095D02*
X235370571Y-126954095D01*
X235370571Y-126954095D02*
X235275333Y-126905715D01*
X235275333Y-126905715D02*
X235227714Y-126857334D01*
X235227714Y-126857334D02*
X235180095Y-126760572D01*
X235180095Y-126760572D02*
X235132476Y-126567048D01*
X235132476Y-126567048D02*
X235132476Y-126325143D01*
X235132476Y-126325143D02*
X235180095Y-126131619D01*
X235180095Y-126131619D02*
X235227714Y-126034857D01*
X235227714Y-126034857D02*
X235275333Y-125986476D01*
X235275333Y-125986476D02*
X235370571Y-125938095D01*
X187190142Y-111968095D02*
X186856809Y-111484286D01*
X186618714Y-111968095D02*
X186618714Y-110952095D01*
X186618714Y-110952095D02*
X186999666Y-110952095D01*
X186999666Y-110952095D02*
X187094904Y-111000476D01*
X187094904Y-111000476D02*
X187142523Y-111048857D01*
X187142523Y-111048857D02*
X187190142Y-111145619D01*
X187190142Y-111145619D02*
X187190142Y-111290762D01*
X187190142Y-111290762D02*
X187142523Y-111387524D01*
X187142523Y-111387524D02*
X187094904Y-111435905D01*
X187094904Y-111435905D02*
X186999666Y-111484286D01*
X186999666Y-111484286D02*
X186618714Y-111484286D01*
X188142523Y-111968095D02*
X187571095Y-111968095D01*
X187856809Y-111968095D02*
X187856809Y-110952095D01*
X187856809Y-110952095D02*
X187761571Y-111097238D01*
X187761571Y-111097238D02*
X187666333Y-111194000D01*
X187666333Y-111194000D02*
X187571095Y-111242381D01*
X189047285Y-110952095D02*
X188571095Y-110952095D01*
X188571095Y-110952095D02*
X188523476Y-111435905D01*
X188523476Y-111435905D02*
X188571095Y-111387524D01*
X188571095Y-111387524D02*
X188666333Y-111339143D01*
X188666333Y-111339143D02*
X188904428Y-111339143D01*
X188904428Y-111339143D02*
X188999666Y-111387524D01*
X188999666Y-111387524D02*
X189047285Y-111435905D01*
X189047285Y-111435905D02*
X189094904Y-111532667D01*
X189094904Y-111532667D02*
X189094904Y-111774572D01*
X189094904Y-111774572D02*
X189047285Y-111871334D01*
X189047285Y-111871334D02*
X188999666Y-111919715D01*
X188999666Y-111919715D02*
X188904428Y-111968095D01*
X188904428Y-111968095D02*
X188666333Y-111968095D01*
X188666333Y-111968095D02*
X188571095Y-111919715D01*
X188571095Y-111919715D02*
X188523476Y-111871334D01*
X176953942Y-133126295D02*
X176620609Y-132642486D01*
X176382514Y-133126295D02*
X176382514Y-132110295D01*
X176382514Y-132110295D02*
X176763466Y-132110295D01*
X176763466Y-132110295D02*
X176858704Y-132158676D01*
X176858704Y-132158676D02*
X176906323Y-132207057D01*
X176906323Y-132207057D02*
X176953942Y-132303819D01*
X176953942Y-132303819D02*
X176953942Y-132448962D01*
X176953942Y-132448962D02*
X176906323Y-132545724D01*
X176906323Y-132545724D02*
X176858704Y-132594105D01*
X176858704Y-132594105D02*
X176763466Y-132642486D01*
X176763466Y-132642486D02*
X176382514Y-132642486D01*
X177858704Y-132110295D02*
X177382514Y-132110295D01*
X177382514Y-132110295D02*
X177334895Y-132594105D01*
X177334895Y-132594105D02*
X177382514Y-132545724D01*
X177382514Y-132545724D02*
X177477752Y-132497343D01*
X177477752Y-132497343D02*
X177715847Y-132497343D01*
X177715847Y-132497343D02*
X177811085Y-132545724D01*
X177811085Y-132545724D02*
X177858704Y-132594105D01*
X177858704Y-132594105D02*
X177906323Y-132690867D01*
X177906323Y-132690867D02*
X177906323Y-132932772D01*
X177906323Y-132932772D02*
X177858704Y-133029534D01*
X177858704Y-133029534D02*
X177811085Y-133077915D01*
X177811085Y-133077915D02*
X177715847Y-133126295D01*
X177715847Y-133126295D02*
X177477752Y-133126295D01*
X177477752Y-133126295D02*
X177382514Y-133077915D01*
X177382514Y-133077915D02*
X177334895Y-133029534D01*
X178239657Y-132110295D02*
X178906323Y-132110295D01*
X178906323Y-132110295D02*
X178477752Y-133126295D01*
X173042342Y-134807534D02*
X172994723Y-134855915D01*
X172994723Y-134855915D02*
X172851866Y-134904295D01*
X172851866Y-134904295D02*
X172756628Y-134904295D01*
X172756628Y-134904295D02*
X172613771Y-134855915D01*
X172613771Y-134855915D02*
X172518533Y-134759153D01*
X172518533Y-134759153D02*
X172470914Y-134662391D01*
X172470914Y-134662391D02*
X172423295Y-134468867D01*
X172423295Y-134468867D02*
X172423295Y-134323724D01*
X172423295Y-134323724D02*
X172470914Y-134130200D01*
X172470914Y-134130200D02*
X172518533Y-134033438D01*
X172518533Y-134033438D02*
X172613771Y-133936676D01*
X172613771Y-133936676D02*
X172756628Y-133888295D01*
X172756628Y-133888295D02*
X172851866Y-133888295D01*
X172851866Y-133888295D02*
X172994723Y-133936676D01*
X172994723Y-133936676D02*
X173042342Y-133985057D01*
X173423295Y-133985057D02*
X173470914Y-133936676D01*
X173470914Y-133936676D02*
X173566152Y-133888295D01*
X173566152Y-133888295D02*
X173804247Y-133888295D01*
X173804247Y-133888295D02*
X173899485Y-133936676D01*
X173899485Y-133936676D02*
X173947104Y-133985057D01*
X173947104Y-133985057D02*
X173994723Y-134081819D01*
X173994723Y-134081819D02*
X173994723Y-134178581D01*
X173994723Y-134178581D02*
X173947104Y-134323724D01*
X173947104Y-134323724D02*
X173375676Y-134904295D01*
X173375676Y-134904295D02*
X173994723Y-134904295D01*
X174328057Y-133888295D02*
X174994723Y-133888295D01*
X174994723Y-133888295D02*
X174566152Y-134904295D01*
X186555142Y-102697095D02*
X186221809Y-102213286D01*
X185983714Y-102697095D02*
X185983714Y-101681095D01*
X185983714Y-101681095D02*
X186364666Y-101681095D01*
X186364666Y-101681095D02*
X186459904Y-101729476D01*
X186459904Y-101729476D02*
X186507523Y-101777857D01*
X186507523Y-101777857D02*
X186555142Y-101874619D01*
X186555142Y-101874619D02*
X186555142Y-102019762D01*
X186555142Y-102019762D02*
X186507523Y-102116524D01*
X186507523Y-102116524D02*
X186459904Y-102164905D01*
X186459904Y-102164905D02*
X186364666Y-102213286D01*
X186364666Y-102213286D02*
X185983714Y-102213286D01*
X186936095Y-101777857D02*
X186983714Y-101729476D01*
X186983714Y-101729476D02*
X187078952Y-101681095D01*
X187078952Y-101681095D02*
X187317047Y-101681095D01*
X187317047Y-101681095D02*
X187412285Y-101729476D01*
X187412285Y-101729476D02*
X187459904Y-101777857D01*
X187459904Y-101777857D02*
X187507523Y-101874619D01*
X187507523Y-101874619D02*
X187507523Y-101971381D01*
X187507523Y-101971381D02*
X187459904Y-102116524D01*
X187459904Y-102116524D02*
X186888476Y-102697095D01*
X186888476Y-102697095D02*
X187507523Y-102697095D01*
X188364666Y-101681095D02*
X188174190Y-101681095D01*
X188174190Y-101681095D02*
X188078952Y-101729476D01*
X188078952Y-101729476D02*
X188031333Y-101777857D01*
X188031333Y-101777857D02*
X187936095Y-101923000D01*
X187936095Y-101923000D02*
X187888476Y-102116524D01*
X187888476Y-102116524D02*
X187888476Y-102503572D01*
X187888476Y-102503572D02*
X187936095Y-102600334D01*
X187936095Y-102600334D02*
X187983714Y-102648715D01*
X187983714Y-102648715D02*
X188078952Y-102697095D01*
X188078952Y-102697095D02*
X188269428Y-102697095D01*
X188269428Y-102697095D02*
X188364666Y-102648715D01*
X188364666Y-102648715D02*
X188412285Y-102600334D01*
X188412285Y-102600334D02*
X188459904Y-102503572D01*
X188459904Y-102503572D02*
X188459904Y-102261667D01*
X188459904Y-102261667D02*
X188412285Y-102164905D01*
X188412285Y-102164905D02*
X188364666Y-102116524D01*
X188364666Y-102116524D02*
X188269428Y-102068143D01*
X188269428Y-102068143D02*
X188078952Y-102068143D01*
X188078952Y-102068143D02*
X187983714Y-102116524D01*
X187983714Y-102116524D02*
X187936095Y-102164905D01*
X187936095Y-102164905D02*
X187888476Y-102261667D01*
X198874142Y-132796095D02*
X198540809Y-132312286D01*
X198302714Y-132796095D02*
X198302714Y-131780095D01*
X198302714Y-131780095D02*
X198683666Y-131780095D01*
X198683666Y-131780095D02*
X198778904Y-131828476D01*
X198778904Y-131828476D02*
X198826523Y-131876857D01*
X198826523Y-131876857D02*
X198874142Y-131973619D01*
X198874142Y-131973619D02*
X198874142Y-132118762D01*
X198874142Y-132118762D02*
X198826523Y-132215524D01*
X198826523Y-132215524D02*
X198778904Y-132263905D01*
X198778904Y-132263905D02*
X198683666Y-132312286D01*
X198683666Y-132312286D02*
X198302714Y-132312286D01*
X199731285Y-131780095D02*
X199540809Y-131780095D01*
X199540809Y-131780095D02*
X199445571Y-131828476D01*
X199445571Y-131828476D02*
X199397952Y-131876857D01*
X199397952Y-131876857D02*
X199302714Y-132022000D01*
X199302714Y-132022000D02*
X199255095Y-132215524D01*
X199255095Y-132215524D02*
X199255095Y-132602572D01*
X199255095Y-132602572D02*
X199302714Y-132699334D01*
X199302714Y-132699334D02*
X199350333Y-132747715D01*
X199350333Y-132747715D02*
X199445571Y-132796095D01*
X199445571Y-132796095D02*
X199636047Y-132796095D01*
X199636047Y-132796095D02*
X199731285Y-132747715D01*
X199731285Y-132747715D02*
X199778904Y-132699334D01*
X199778904Y-132699334D02*
X199826523Y-132602572D01*
X199826523Y-132602572D02*
X199826523Y-132360667D01*
X199826523Y-132360667D02*
X199778904Y-132263905D01*
X199778904Y-132263905D02*
X199731285Y-132215524D01*
X199731285Y-132215524D02*
X199636047Y-132167143D01*
X199636047Y-132167143D02*
X199445571Y-132167143D01*
X199445571Y-132167143D02*
X199350333Y-132215524D01*
X199350333Y-132215524D02*
X199302714Y-132263905D01*
X199302714Y-132263905D02*
X199255095Y-132360667D01*
X200445571Y-131780095D02*
X200540809Y-131780095D01*
X200540809Y-131780095D02*
X200636047Y-131828476D01*
X200636047Y-131828476D02*
X200683666Y-131876857D01*
X200683666Y-131876857D02*
X200731285Y-131973619D01*
X200731285Y-131973619D02*
X200778904Y-132167143D01*
X200778904Y-132167143D02*
X200778904Y-132409048D01*
X200778904Y-132409048D02*
X200731285Y-132602572D01*
X200731285Y-132602572D02*
X200683666Y-132699334D01*
X200683666Y-132699334D02*
X200636047Y-132747715D01*
X200636047Y-132747715D02*
X200540809Y-132796095D01*
X200540809Y-132796095D02*
X200445571Y-132796095D01*
X200445571Y-132796095D02*
X200350333Y-132747715D01*
X200350333Y-132747715D02*
X200302714Y-132699334D01*
X200302714Y-132699334D02*
X200255095Y-132602572D01*
X200255095Y-132602572D02*
X200207476Y-132409048D01*
X200207476Y-132409048D02*
X200207476Y-132167143D01*
X200207476Y-132167143D02*
X200255095Y-131973619D01*
X200255095Y-131973619D02*
X200302714Y-131876857D01*
X200302714Y-131876857D02*
X200350333Y-131828476D01*
X200350333Y-131828476D02*
X200445571Y-131780095D01*
X219625942Y-108848734D02*
X219578323Y-108897115D01*
X219578323Y-108897115D02*
X219435466Y-108945495D01*
X219435466Y-108945495D02*
X219340228Y-108945495D01*
X219340228Y-108945495D02*
X219197371Y-108897115D01*
X219197371Y-108897115D02*
X219102133Y-108800353D01*
X219102133Y-108800353D02*
X219054514Y-108703591D01*
X219054514Y-108703591D02*
X219006895Y-108510067D01*
X219006895Y-108510067D02*
X219006895Y-108364924D01*
X219006895Y-108364924D02*
X219054514Y-108171400D01*
X219054514Y-108171400D02*
X219102133Y-108074638D01*
X219102133Y-108074638D02*
X219197371Y-107977876D01*
X219197371Y-107977876D02*
X219340228Y-107929495D01*
X219340228Y-107929495D02*
X219435466Y-107929495D01*
X219435466Y-107929495D02*
X219578323Y-107977876D01*
X219578323Y-107977876D02*
X219625942Y-108026257D01*
X220578323Y-108945495D02*
X220006895Y-108945495D01*
X220292609Y-108945495D02*
X220292609Y-107929495D01*
X220292609Y-107929495D02*
X220197371Y-108074638D01*
X220197371Y-108074638D02*
X220102133Y-108171400D01*
X220102133Y-108171400D02*
X220006895Y-108219781D01*
X220911657Y-107929495D02*
X221578323Y-107929495D01*
X221578323Y-107929495D02*
X221149752Y-108945495D01*
X187063142Y-120985095D02*
X186729809Y-120501286D01*
X186491714Y-120985095D02*
X186491714Y-119969095D01*
X186491714Y-119969095D02*
X186872666Y-119969095D01*
X186872666Y-119969095D02*
X186967904Y-120017476D01*
X186967904Y-120017476D02*
X187015523Y-120065857D01*
X187015523Y-120065857D02*
X187063142Y-120162619D01*
X187063142Y-120162619D02*
X187063142Y-120307762D01*
X187063142Y-120307762D02*
X187015523Y-120404524D01*
X187015523Y-120404524D02*
X186967904Y-120452905D01*
X186967904Y-120452905D02*
X186872666Y-120501286D01*
X186872666Y-120501286D02*
X186491714Y-120501286D01*
X187444095Y-120065857D02*
X187491714Y-120017476D01*
X187491714Y-120017476D02*
X187586952Y-119969095D01*
X187586952Y-119969095D02*
X187825047Y-119969095D01*
X187825047Y-119969095D02*
X187920285Y-120017476D01*
X187920285Y-120017476D02*
X187967904Y-120065857D01*
X187967904Y-120065857D02*
X188015523Y-120162619D01*
X188015523Y-120162619D02*
X188015523Y-120259381D01*
X188015523Y-120259381D02*
X187967904Y-120404524D01*
X187967904Y-120404524D02*
X187396476Y-120985095D01*
X187396476Y-120985095D02*
X188015523Y-120985095D01*
X188967904Y-120985095D02*
X188396476Y-120985095D01*
X188682190Y-120985095D02*
X188682190Y-119969095D01*
X188682190Y-119969095D02*
X188586952Y-120114238D01*
X188586952Y-120114238D02*
X188491714Y-120211000D01*
X188491714Y-120211000D02*
X188396476Y-120259381D01*
X218660742Y-114177895D02*
X218327409Y-113694086D01*
X218089314Y-114177895D02*
X218089314Y-113161895D01*
X218089314Y-113161895D02*
X218470266Y-113161895D01*
X218470266Y-113161895D02*
X218565504Y-113210276D01*
X218565504Y-113210276D02*
X218613123Y-113258657D01*
X218613123Y-113258657D02*
X218660742Y-113355419D01*
X218660742Y-113355419D02*
X218660742Y-113500562D01*
X218660742Y-113500562D02*
X218613123Y-113597324D01*
X218613123Y-113597324D02*
X218565504Y-113645705D01*
X218565504Y-113645705D02*
X218470266Y-113694086D01*
X218470266Y-113694086D02*
X218089314Y-113694086D01*
X218994076Y-113161895D02*
X219613123Y-113161895D01*
X219613123Y-113161895D02*
X219279790Y-113548943D01*
X219279790Y-113548943D02*
X219422647Y-113548943D01*
X219422647Y-113548943D02*
X219517885Y-113597324D01*
X219517885Y-113597324D02*
X219565504Y-113645705D01*
X219565504Y-113645705D02*
X219613123Y-113742467D01*
X219613123Y-113742467D02*
X219613123Y-113984372D01*
X219613123Y-113984372D02*
X219565504Y-114081134D01*
X219565504Y-114081134D02*
X219517885Y-114129515D01*
X219517885Y-114129515D02*
X219422647Y-114177895D01*
X219422647Y-114177895D02*
X219136933Y-114177895D01*
X219136933Y-114177895D02*
X219041695Y-114129515D01*
X219041695Y-114129515D02*
X218994076Y-114081134D01*
X220565504Y-114177895D02*
X219994076Y-114177895D01*
X220279790Y-114177895D02*
X220279790Y-113161895D01*
X220279790Y-113161895D02*
X220184552Y-113307038D01*
X220184552Y-113307038D02*
X220089314Y-113403800D01*
X220089314Y-113403800D02*
X219994076Y-113452181D01*
X186936142Y-107142095D02*
X186602809Y-106658286D01*
X186364714Y-107142095D02*
X186364714Y-106126095D01*
X186364714Y-106126095D02*
X186745666Y-106126095D01*
X186745666Y-106126095D02*
X186840904Y-106174476D01*
X186840904Y-106174476D02*
X186888523Y-106222857D01*
X186888523Y-106222857D02*
X186936142Y-106319619D01*
X186936142Y-106319619D02*
X186936142Y-106464762D01*
X186936142Y-106464762D02*
X186888523Y-106561524D01*
X186888523Y-106561524D02*
X186840904Y-106609905D01*
X186840904Y-106609905D02*
X186745666Y-106658286D01*
X186745666Y-106658286D02*
X186364714Y-106658286D01*
X187888523Y-107142095D02*
X187317095Y-107142095D01*
X187602809Y-107142095D02*
X187602809Y-106126095D01*
X187602809Y-106126095D02*
X187507571Y-106271238D01*
X187507571Y-106271238D02*
X187412333Y-106368000D01*
X187412333Y-106368000D02*
X187317095Y-106416381D01*
X188840904Y-107142095D02*
X188269476Y-107142095D01*
X188555190Y-107142095D02*
X188555190Y-106126095D01*
X188555190Y-106126095D02*
X188459952Y-106271238D01*
X188459952Y-106271238D02*
X188364714Y-106368000D01*
X188364714Y-106368000D02*
X188269476Y-106416381D01*
X214545942Y-107096134D02*
X214498323Y-107144515D01*
X214498323Y-107144515D02*
X214355466Y-107192895D01*
X214355466Y-107192895D02*
X214260228Y-107192895D01*
X214260228Y-107192895D02*
X214117371Y-107144515D01*
X214117371Y-107144515D02*
X214022133Y-107047753D01*
X214022133Y-107047753D02*
X213974514Y-106950991D01*
X213974514Y-106950991D02*
X213926895Y-106757467D01*
X213926895Y-106757467D02*
X213926895Y-106612324D01*
X213926895Y-106612324D02*
X213974514Y-106418800D01*
X213974514Y-106418800D02*
X214022133Y-106322038D01*
X214022133Y-106322038D02*
X214117371Y-106225276D01*
X214117371Y-106225276D02*
X214260228Y-106176895D01*
X214260228Y-106176895D02*
X214355466Y-106176895D01*
X214355466Y-106176895D02*
X214498323Y-106225276D01*
X214498323Y-106225276D02*
X214545942Y-106273657D01*
X215498323Y-107192895D02*
X214926895Y-107192895D01*
X215212609Y-107192895D02*
X215212609Y-106176895D01*
X215212609Y-106176895D02*
X215117371Y-106322038D01*
X215117371Y-106322038D02*
X215022133Y-106418800D01*
X215022133Y-106418800D02*
X214926895Y-106467181D01*
X216403085Y-106176895D02*
X215926895Y-106176895D01*
X215926895Y-106176895D02*
X215879276Y-106660705D01*
X215879276Y-106660705D02*
X215926895Y-106612324D01*
X215926895Y-106612324D02*
X216022133Y-106563943D01*
X216022133Y-106563943D02*
X216260228Y-106563943D01*
X216260228Y-106563943D02*
X216355466Y-106612324D01*
X216355466Y-106612324D02*
X216403085Y-106660705D01*
X216403085Y-106660705D02*
X216450704Y-106757467D01*
X216450704Y-106757467D02*
X216450704Y-106999372D01*
X216450704Y-106999372D02*
X216403085Y-107096134D01*
X216403085Y-107096134D02*
X216355466Y-107144515D01*
X216355466Y-107144515D02*
X216260228Y-107192895D01*
X216260228Y-107192895D02*
X216022133Y-107192895D01*
X216022133Y-107192895D02*
X215926895Y-107144515D01*
X215926895Y-107144515D02*
X215879276Y-107096134D01*
X219702142Y-105745095D02*
X219368809Y-105261286D01*
X219130714Y-105745095D02*
X219130714Y-104729095D01*
X219130714Y-104729095D02*
X219511666Y-104729095D01*
X219511666Y-104729095D02*
X219606904Y-104777476D01*
X219606904Y-104777476D02*
X219654523Y-104825857D01*
X219654523Y-104825857D02*
X219702142Y-104922619D01*
X219702142Y-104922619D02*
X219702142Y-105067762D01*
X219702142Y-105067762D02*
X219654523Y-105164524D01*
X219654523Y-105164524D02*
X219606904Y-105212905D01*
X219606904Y-105212905D02*
X219511666Y-105261286D01*
X219511666Y-105261286D02*
X219130714Y-105261286D01*
X220559285Y-105067762D02*
X220559285Y-105745095D01*
X220321190Y-104680715D02*
X220083095Y-105406429D01*
X220083095Y-105406429D02*
X220702142Y-105406429D01*
X221273571Y-104729095D02*
X221368809Y-104729095D01*
X221368809Y-104729095D02*
X221464047Y-104777476D01*
X221464047Y-104777476D02*
X221511666Y-104825857D01*
X221511666Y-104825857D02*
X221559285Y-104922619D01*
X221559285Y-104922619D02*
X221606904Y-105116143D01*
X221606904Y-105116143D02*
X221606904Y-105358048D01*
X221606904Y-105358048D02*
X221559285Y-105551572D01*
X221559285Y-105551572D02*
X221511666Y-105648334D01*
X221511666Y-105648334D02*
X221464047Y-105696715D01*
X221464047Y-105696715D02*
X221368809Y-105745095D01*
X221368809Y-105745095D02*
X221273571Y-105745095D01*
X221273571Y-105745095D02*
X221178333Y-105696715D01*
X221178333Y-105696715D02*
X221130714Y-105648334D01*
X221130714Y-105648334D02*
X221083095Y-105551572D01*
X221083095Y-105551572D02*
X221035476Y-105358048D01*
X221035476Y-105358048D02*
X221035476Y-105116143D01*
X221035476Y-105116143D02*
X221083095Y-104922619D01*
X221083095Y-104922619D02*
X221130714Y-104825857D01*
X221130714Y-104825857D02*
X221178333Y-104777476D01*
X221178333Y-104777476D02*
X221273571Y-104729095D01*
X187063142Y-113492095D02*
X186729809Y-113008286D01*
X186491714Y-113492095D02*
X186491714Y-112476095D01*
X186491714Y-112476095D02*
X186872666Y-112476095D01*
X186872666Y-112476095D02*
X186967904Y-112524476D01*
X186967904Y-112524476D02*
X187015523Y-112572857D01*
X187015523Y-112572857D02*
X187063142Y-112669619D01*
X187063142Y-112669619D02*
X187063142Y-112814762D01*
X187063142Y-112814762D02*
X187015523Y-112911524D01*
X187015523Y-112911524D02*
X186967904Y-112959905D01*
X186967904Y-112959905D02*
X186872666Y-113008286D01*
X186872666Y-113008286D02*
X186491714Y-113008286D01*
X188015523Y-113492095D02*
X187444095Y-113492095D01*
X187729809Y-113492095D02*
X187729809Y-112476095D01*
X187729809Y-112476095D02*
X187634571Y-112621238D01*
X187634571Y-112621238D02*
X187539333Y-112718000D01*
X187539333Y-112718000D02*
X187444095Y-112766381D01*
X188491714Y-113492095D02*
X188682190Y-113492095D01*
X188682190Y-113492095D02*
X188777428Y-113443715D01*
X188777428Y-113443715D02*
X188825047Y-113395334D01*
X188825047Y-113395334D02*
X188920285Y-113250191D01*
X188920285Y-113250191D02*
X188967904Y-113056667D01*
X188967904Y-113056667D02*
X188967904Y-112669619D01*
X188967904Y-112669619D02*
X188920285Y-112572857D01*
X188920285Y-112572857D02*
X188872666Y-112524476D01*
X188872666Y-112524476D02*
X188777428Y-112476095D01*
X188777428Y-112476095D02*
X188586952Y-112476095D01*
X188586952Y-112476095D02*
X188491714Y-112524476D01*
X188491714Y-112524476D02*
X188444095Y-112572857D01*
X188444095Y-112572857D02*
X188396476Y-112669619D01*
X188396476Y-112669619D02*
X188396476Y-112911524D01*
X188396476Y-112911524D02*
X188444095Y-113008286D01*
X188444095Y-113008286D02*
X188491714Y-113056667D01*
X188491714Y-113056667D02*
X188586952Y-113105048D01*
X188586952Y-113105048D02*
X188777428Y-113105048D01*
X188777428Y-113105048D02*
X188872666Y-113056667D01*
X188872666Y-113056667D02*
X188920285Y-113008286D01*
X188920285Y-113008286D02*
X188967904Y-112911524D01*
X218000342Y-110520295D02*
X217667009Y-110036486D01*
X217428914Y-110520295D02*
X217428914Y-109504295D01*
X217428914Y-109504295D02*
X217809866Y-109504295D01*
X217809866Y-109504295D02*
X217905104Y-109552676D01*
X217905104Y-109552676D02*
X217952723Y-109601057D01*
X217952723Y-109601057D02*
X218000342Y-109697819D01*
X218000342Y-109697819D02*
X218000342Y-109842962D01*
X218000342Y-109842962D02*
X217952723Y-109939724D01*
X217952723Y-109939724D02*
X217905104Y-109988105D01*
X217905104Y-109988105D02*
X217809866Y-110036486D01*
X217809866Y-110036486D02*
X217428914Y-110036486D01*
X218333676Y-109504295D02*
X218952723Y-109504295D01*
X218952723Y-109504295D02*
X218619390Y-109891343D01*
X218619390Y-109891343D02*
X218762247Y-109891343D01*
X218762247Y-109891343D02*
X218857485Y-109939724D01*
X218857485Y-109939724D02*
X218905104Y-109988105D01*
X218905104Y-109988105D02*
X218952723Y-110084867D01*
X218952723Y-110084867D02*
X218952723Y-110326772D01*
X218952723Y-110326772D02*
X218905104Y-110423534D01*
X218905104Y-110423534D02*
X218857485Y-110471915D01*
X218857485Y-110471915D02*
X218762247Y-110520295D01*
X218762247Y-110520295D02*
X218476533Y-110520295D01*
X218476533Y-110520295D02*
X218381295Y-110471915D01*
X218381295Y-110471915D02*
X218333676Y-110423534D01*
X219286057Y-109504295D02*
X219905104Y-109504295D01*
X219905104Y-109504295D02*
X219571771Y-109891343D01*
X219571771Y-109891343D02*
X219714628Y-109891343D01*
X219714628Y-109891343D02*
X219809866Y-109939724D01*
X219809866Y-109939724D02*
X219857485Y-109988105D01*
X219857485Y-109988105D02*
X219905104Y-110084867D01*
X219905104Y-110084867D02*
X219905104Y-110326772D01*
X219905104Y-110326772D02*
X219857485Y-110423534D01*
X219857485Y-110423534D02*
X219809866Y-110471915D01*
X219809866Y-110471915D02*
X219714628Y-110520295D01*
X219714628Y-110520295D02*
X219428914Y-110520295D01*
X219428914Y-110520295D02*
X219333676Y-110471915D01*
X219333676Y-110471915D02*
X219286057Y-110423534D01*
X197096142Y-106410334D02*
X197048523Y-106458715D01*
X197048523Y-106458715D02*
X196905666Y-106507095D01*
X196905666Y-106507095D02*
X196810428Y-106507095D01*
X196810428Y-106507095D02*
X196667571Y-106458715D01*
X196667571Y-106458715D02*
X196572333Y-106361953D01*
X196572333Y-106361953D02*
X196524714Y-106265191D01*
X196524714Y-106265191D02*
X196477095Y-106071667D01*
X196477095Y-106071667D02*
X196477095Y-105926524D01*
X196477095Y-105926524D02*
X196524714Y-105733000D01*
X196524714Y-105733000D02*
X196572333Y-105636238D01*
X196572333Y-105636238D02*
X196667571Y-105539476D01*
X196667571Y-105539476D02*
X196810428Y-105491095D01*
X196810428Y-105491095D02*
X196905666Y-105491095D01*
X196905666Y-105491095D02*
X197048523Y-105539476D01*
X197048523Y-105539476D02*
X197096142Y-105587857D01*
X198048523Y-106507095D02*
X197477095Y-106507095D01*
X197762809Y-106507095D02*
X197762809Y-105491095D01*
X197762809Y-105491095D02*
X197667571Y-105636238D01*
X197667571Y-105636238D02*
X197572333Y-105733000D01*
X197572333Y-105733000D02*
X197477095Y-105781381D01*
X198905666Y-105829762D02*
X198905666Y-106507095D01*
X198667571Y-105442715D02*
X198429476Y-106168429D01*
X198429476Y-106168429D02*
X199048523Y-106168429D01*
X186936142Y-101046095D02*
X186602809Y-100562286D01*
X186364714Y-101046095D02*
X186364714Y-100030095D01*
X186364714Y-100030095D02*
X186745666Y-100030095D01*
X186745666Y-100030095D02*
X186840904Y-100078476D01*
X186840904Y-100078476D02*
X186888523Y-100126857D01*
X186888523Y-100126857D02*
X186936142Y-100223619D01*
X186936142Y-100223619D02*
X186936142Y-100368762D01*
X186936142Y-100368762D02*
X186888523Y-100465524D01*
X186888523Y-100465524D02*
X186840904Y-100513905D01*
X186840904Y-100513905D02*
X186745666Y-100562286D01*
X186745666Y-100562286D02*
X186364714Y-100562286D01*
X187317095Y-100126857D02*
X187364714Y-100078476D01*
X187364714Y-100078476D02*
X187459952Y-100030095D01*
X187459952Y-100030095D02*
X187698047Y-100030095D01*
X187698047Y-100030095D02*
X187793285Y-100078476D01*
X187793285Y-100078476D02*
X187840904Y-100126857D01*
X187840904Y-100126857D02*
X187888523Y-100223619D01*
X187888523Y-100223619D02*
X187888523Y-100320381D01*
X187888523Y-100320381D02*
X187840904Y-100465524D01*
X187840904Y-100465524D02*
X187269476Y-101046095D01*
X187269476Y-101046095D02*
X187888523Y-101046095D01*
X188221857Y-100030095D02*
X188888523Y-100030095D01*
X188888523Y-100030095D02*
X188459952Y-101046095D01*
X164512666Y-96601095D02*
X164512666Y-97326810D01*
X164512666Y-97326810D02*
X164465047Y-97471953D01*
X164465047Y-97471953D02*
X164369809Y-97568715D01*
X164369809Y-97568715D02*
X164226952Y-97617095D01*
X164226952Y-97617095D02*
X164131714Y-97617095D01*
X164893619Y-96601095D02*
X165512666Y-96601095D01*
X165512666Y-96601095D02*
X165179333Y-96988143D01*
X165179333Y-96988143D02*
X165322190Y-96988143D01*
X165322190Y-96988143D02*
X165417428Y-97036524D01*
X165417428Y-97036524D02*
X165465047Y-97084905D01*
X165465047Y-97084905D02*
X165512666Y-97181667D01*
X165512666Y-97181667D02*
X165512666Y-97423572D01*
X165512666Y-97423572D02*
X165465047Y-97520334D01*
X165465047Y-97520334D02*
X165417428Y-97568715D01*
X165417428Y-97568715D02*
X165322190Y-97617095D01*
X165322190Y-97617095D02*
X165036476Y-97617095D01*
X165036476Y-97617095D02*
X164941238Y-97568715D01*
X164941238Y-97568715D02*
X164893619Y-97520334D01*
X161956714Y-97998095D02*
X161385286Y-97998095D01*
X161671000Y-97998095D02*
X161671000Y-96982095D01*
X161671000Y-96982095D02*
X161575762Y-97127238D01*
X161575762Y-97127238D02*
X161480524Y-97224000D01*
X161480524Y-97224000D02*
X161385286Y-97272381D01*
X175074342Y-126781134D02*
X175026723Y-126829515D01*
X175026723Y-126829515D02*
X174883866Y-126877895D01*
X174883866Y-126877895D02*
X174788628Y-126877895D01*
X174788628Y-126877895D02*
X174645771Y-126829515D01*
X174645771Y-126829515D02*
X174550533Y-126732753D01*
X174550533Y-126732753D02*
X174502914Y-126635991D01*
X174502914Y-126635991D02*
X174455295Y-126442467D01*
X174455295Y-126442467D02*
X174455295Y-126297324D01*
X174455295Y-126297324D02*
X174502914Y-126103800D01*
X174502914Y-126103800D02*
X174550533Y-126007038D01*
X174550533Y-126007038D02*
X174645771Y-125910276D01*
X174645771Y-125910276D02*
X174788628Y-125861895D01*
X174788628Y-125861895D02*
X174883866Y-125861895D01*
X174883866Y-125861895D02*
X175026723Y-125910276D01*
X175026723Y-125910276D02*
X175074342Y-125958657D01*
X175455295Y-125958657D02*
X175502914Y-125910276D01*
X175502914Y-125910276D02*
X175598152Y-125861895D01*
X175598152Y-125861895D02*
X175836247Y-125861895D01*
X175836247Y-125861895D02*
X175931485Y-125910276D01*
X175931485Y-125910276D02*
X175979104Y-125958657D01*
X175979104Y-125958657D02*
X176026723Y-126055419D01*
X176026723Y-126055419D02*
X176026723Y-126152181D01*
X176026723Y-126152181D02*
X175979104Y-126297324D01*
X175979104Y-126297324D02*
X175407676Y-126877895D01*
X175407676Y-126877895D02*
X176026723Y-126877895D01*
X176883866Y-125861895D02*
X176693390Y-125861895D01*
X176693390Y-125861895D02*
X176598152Y-125910276D01*
X176598152Y-125910276D02*
X176550533Y-125958657D01*
X176550533Y-125958657D02*
X176455295Y-126103800D01*
X176455295Y-126103800D02*
X176407676Y-126297324D01*
X176407676Y-126297324D02*
X176407676Y-126684372D01*
X176407676Y-126684372D02*
X176455295Y-126781134D01*
X176455295Y-126781134D02*
X176502914Y-126829515D01*
X176502914Y-126829515D02*
X176598152Y-126877895D01*
X176598152Y-126877895D02*
X176788628Y-126877895D01*
X176788628Y-126877895D02*
X176883866Y-126829515D01*
X176883866Y-126829515D02*
X176931485Y-126781134D01*
X176931485Y-126781134D02*
X176979104Y-126684372D01*
X176979104Y-126684372D02*
X176979104Y-126442467D01*
X176979104Y-126442467D02*
X176931485Y-126345705D01*
X176931485Y-126345705D02*
X176883866Y-126297324D01*
X176883866Y-126297324D02*
X176788628Y-126248943D01*
X176788628Y-126248943D02*
X176598152Y-126248943D01*
X176598152Y-126248943D02*
X176502914Y-126297324D01*
X176502914Y-126297324D02*
X176455295Y-126345705D01*
X176455295Y-126345705D02*
X176407676Y-126442467D01*
X211155095Y-126500857D02*
X210671286Y-126834190D01*
X211155095Y-127072285D02*
X210139095Y-127072285D01*
X210139095Y-127072285D02*
X210139095Y-126691333D01*
X210139095Y-126691333D02*
X210187476Y-126596095D01*
X210187476Y-126596095D02*
X210235857Y-126548476D01*
X210235857Y-126548476D02*
X210332619Y-126500857D01*
X210332619Y-126500857D02*
X210477762Y-126500857D01*
X210477762Y-126500857D02*
X210574524Y-126548476D01*
X210574524Y-126548476D02*
X210622905Y-126596095D01*
X210622905Y-126596095D02*
X210671286Y-126691333D01*
X210671286Y-126691333D02*
X210671286Y-127072285D01*
X211155095Y-125548476D02*
X211155095Y-126119904D01*
X211155095Y-125834190D02*
X210139095Y-125834190D01*
X210139095Y-125834190D02*
X210284238Y-125929428D01*
X210284238Y-125929428D02*
X210381000Y-126024666D01*
X210381000Y-126024666D02*
X210429381Y-126119904D01*
X210139095Y-124929428D02*
X210139095Y-124834190D01*
X210139095Y-124834190D02*
X210187476Y-124738952D01*
X210187476Y-124738952D02*
X210235857Y-124691333D01*
X210235857Y-124691333D02*
X210332619Y-124643714D01*
X210332619Y-124643714D02*
X210526143Y-124596095D01*
X210526143Y-124596095D02*
X210768048Y-124596095D01*
X210768048Y-124596095D02*
X210961572Y-124643714D01*
X210961572Y-124643714D02*
X211058334Y-124691333D01*
X211058334Y-124691333D02*
X211106715Y-124738952D01*
X211106715Y-124738952D02*
X211155095Y-124834190D01*
X211155095Y-124834190D02*
X211155095Y-124929428D01*
X211155095Y-124929428D02*
X211106715Y-125024666D01*
X211106715Y-125024666D02*
X211058334Y-125072285D01*
X211058334Y-125072285D02*
X210961572Y-125119904D01*
X210961572Y-125119904D02*
X210768048Y-125167523D01*
X210768048Y-125167523D02*
X210526143Y-125167523D01*
X210526143Y-125167523D02*
X210332619Y-125119904D01*
X210332619Y-125119904D02*
X210235857Y-125072285D01*
X210235857Y-125072285D02*
X210187476Y-125024666D01*
X210187476Y-125024666D02*
X210139095Y-124929428D01*
X172904209Y-127841886D02*
X172904209Y-128325695D01*
X172570876Y-127309695D02*
X172904209Y-127841886D01*
X172904209Y-127841886D02*
X173237542Y-127309695D01*
X173523257Y-127406457D02*
X173570876Y-127358076D01*
X173570876Y-127358076D02*
X173666114Y-127309695D01*
X173666114Y-127309695D02*
X173904209Y-127309695D01*
X173904209Y-127309695D02*
X173999447Y-127358076D01*
X173999447Y-127358076D02*
X174047066Y-127406457D01*
X174047066Y-127406457D02*
X174094685Y-127503219D01*
X174094685Y-127503219D02*
X174094685Y-127599981D01*
X174094685Y-127599981D02*
X174047066Y-127745124D01*
X174047066Y-127745124D02*
X173475638Y-128325695D01*
X173475638Y-128325695D02*
X174094685Y-128325695D01*
X187063142Y-99268095D02*
X186729809Y-98784286D01*
X186491714Y-99268095D02*
X186491714Y-98252095D01*
X186491714Y-98252095D02*
X186872666Y-98252095D01*
X186872666Y-98252095D02*
X186967904Y-98300476D01*
X186967904Y-98300476D02*
X187015523Y-98348857D01*
X187015523Y-98348857D02*
X187063142Y-98445619D01*
X187063142Y-98445619D02*
X187063142Y-98590762D01*
X187063142Y-98590762D02*
X187015523Y-98687524D01*
X187015523Y-98687524D02*
X186967904Y-98735905D01*
X186967904Y-98735905D02*
X186872666Y-98784286D01*
X186872666Y-98784286D02*
X186491714Y-98784286D01*
X187444095Y-98348857D02*
X187491714Y-98300476D01*
X187491714Y-98300476D02*
X187586952Y-98252095D01*
X187586952Y-98252095D02*
X187825047Y-98252095D01*
X187825047Y-98252095D02*
X187920285Y-98300476D01*
X187920285Y-98300476D02*
X187967904Y-98348857D01*
X187967904Y-98348857D02*
X188015523Y-98445619D01*
X188015523Y-98445619D02*
X188015523Y-98542381D01*
X188015523Y-98542381D02*
X187967904Y-98687524D01*
X187967904Y-98687524D02*
X187396476Y-99268095D01*
X187396476Y-99268095D02*
X188015523Y-99268095D01*
X188586952Y-98687524D02*
X188491714Y-98639143D01*
X188491714Y-98639143D02*
X188444095Y-98590762D01*
X188444095Y-98590762D02*
X188396476Y-98494000D01*
X188396476Y-98494000D02*
X188396476Y-98445619D01*
X188396476Y-98445619D02*
X188444095Y-98348857D01*
X188444095Y-98348857D02*
X188491714Y-98300476D01*
X188491714Y-98300476D02*
X188586952Y-98252095D01*
X188586952Y-98252095D02*
X188777428Y-98252095D01*
X188777428Y-98252095D02*
X188872666Y-98300476D01*
X188872666Y-98300476D02*
X188920285Y-98348857D01*
X188920285Y-98348857D02*
X188967904Y-98445619D01*
X188967904Y-98445619D02*
X188967904Y-98494000D01*
X188967904Y-98494000D02*
X188920285Y-98590762D01*
X188920285Y-98590762D02*
X188872666Y-98639143D01*
X188872666Y-98639143D02*
X188777428Y-98687524D01*
X188777428Y-98687524D02*
X188586952Y-98687524D01*
X188586952Y-98687524D02*
X188491714Y-98735905D01*
X188491714Y-98735905D02*
X188444095Y-98784286D01*
X188444095Y-98784286D02*
X188396476Y-98881048D01*
X188396476Y-98881048D02*
X188396476Y-99074572D01*
X188396476Y-99074572D02*
X188444095Y-99171334D01*
X188444095Y-99171334D02*
X188491714Y-99219715D01*
X188491714Y-99219715D02*
X188586952Y-99268095D01*
X188586952Y-99268095D02*
X188777428Y-99268095D01*
X188777428Y-99268095D02*
X188872666Y-99219715D01*
X188872666Y-99219715D02*
X188920285Y-99171334D01*
X188920285Y-99171334D02*
X188967904Y-99074572D01*
X188967904Y-99074572D02*
X188967904Y-98881048D01*
X188967904Y-98881048D02*
X188920285Y-98784286D01*
X188920285Y-98784286D02*
X188872666Y-98735905D01*
X188872666Y-98735905D02*
X188777428Y-98687524D01*
X169918142Y-112349095D02*
X169584809Y-111865286D01*
X169346714Y-112349095D02*
X169346714Y-111333095D01*
X169346714Y-111333095D02*
X169727666Y-111333095D01*
X169727666Y-111333095D02*
X169822904Y-111381476D01*
X169822904Y-111381476D02*
X169870523Y-111429857D01*
X169870523Y-111429857D02*
X169918142Y-111526619D01*
X169918142Y-111526619D02*
X169918142Y-111671762D01*
X169918142Y-111671762D02*
X169870523Y-111768524D01*
X169870523Y-111768524D02*
X169822904Y-111816905D01*
X169822904Y-111816905D02*
X169727666Y-111865286D01*
X169727666Y-111865286D02*
X169346714Y-111865286D01*
X170822904Y-111333095D02*
X170346714Y-111333095D01*
X170346714Y-111333095D02*
X170299095Y-111816905D01*
X170299095Y-111816905D02*
X170346714Y-111768524D01*
X170346714Y-111768524D02*
X170441952Y-111720143D01*
X170441952Y-111720143D02*
X170680047Y-111720143D01*
X170680047Y-111720143D02*
X170775285Y-111768524D01*
X170775285Y-111768524D02*
X170822904Y-111816905D01*
X170822904Y-111816905D02*
X170870523Y-111913667D01*
X170870523Y-111913667D02*
X170870523Y-112155572D01*
X170870523Y-112155572D02*
X170822904Y-112252334D01*
X170822904Y-112252334D02*
X170775285Y-112300715D01*
X170775285Y-112300715D02*
X170680047Y-112349095D01*
X170680047Y-112349095D02*
X170441952Y-112349095D01*
X170441952Y-112349095D02*
X170346714Y-112300715D01*
X170346714Y-112300715D02*
X170299095Y-112252334D01*
X171727666Y-111333095D02*
X171537190Y-111333095D01*
X171537190Y-111333095D02*
X171441952Y-111381476D01*
X171441952Y-111381476D02*
X171394333Y-111429857D01*
X171394333Y-111429857D02*
X171299095Y-111575000D01*
X171299095Y-111575000D02*
X171251476Y-111768524D01*
X171251476Y-111768524D02*
X171251476Y-112155572D01*
X171251476Y-112155572D02*
X171299095Y-112252334D01*
X171299095Y-112252334D02*
X171346714Y-112300715D01*
X171346714Y-112300715D02*
X171441952Y-112349095D01*
X171441952Y-112349095D02*
X171632428Y-112349095D01*
X171632428Y-112349095D02*
X171727666Y-112300715D01*
X171727666Y-112300715D02*
X171775285Y-112252334D01*
X171775285Y-112252334D02*
X171822904Y-112155572D01*
X171822904Y-112155572D02*
X171822904Y-111913667D01*
X171822904Y-111913667D02*
X171775285Y-111816905D01*
X171775285Y-111816905D02*
X171727666Y-111768524D01*
X171727666Y-111768524D02*
X171632428Y-111720143D01*
X171632428Y-111720143D02*
X171441952Y-111720143D01*
X171441952Y-111720143D02*
X171346714Y-111768524D01*
X171346714Y-111768524D02*
X171299095Y-111816905D01*
X171299095Y-111816905D02*
X171251476Y-111913667D01*
X171473905Y-99903095D02*
X171473905Y-98887095D01*
X171473905Y-98887095D02*
X171712000Y-98887095D01*
X171712000Y-98887095D02*
X171854857Y-98935476D01*
X171854857Y-98935476D02*
X171950095Y-99032238D01*
X171950095Y-99032238D02*
X171997714Y-99129000D01*
X171997714Y-99129000D02*
X172045333Y-99322524D01*
X172045333Y-99322524D02*
X172045333Y-99467667D01*
X172045333Y-99467667D02*
X171997714Y-99661191D01*
X171997714Y-99661191D02*
X171950095Y-99757953D01*
X171950095Y-99757953D02*
X171854857Y-99854715D01*
X171854857Y-99854715D02*
X171712000Y-99903095D01*
X171712000Y-99903095D02*
X171473905Y-99903095D01*
X172378667Y-98887095D02*
X172997714Y-98887095D01*
X172997714Y-98887095D02*
X172664381Y-99274143D01*
X172664381Y-99274143D02*
X172807238Y-99274143D01*
X172807238Y-99274143D02*
X172902476Y-99322524D01*
X172902476Y-99322524D02*
X172950095Y-99370905D01*
X172950095Y-99370905D02*
X172997714Y-99467667D01*
X172997714Y-99467667D02*
X172997714Y-99709572D01*
X172997714Y-99709572D02*
X172950095Y-99806334D01*
X172950095Y-99806334D02*
X172902476Y-99854715D01*
X172902476Y-99854715D02*
X172807238Y-99903095D01*
X172807238Y-99903095D02*
X172521524Y-99903095D01*
X172521524Y-99903095D02*
X172426286Y-99854715D01*
X172426286Y-99854715D02*
X172378667Y-99806334D01*
X214368142Y-119491334D02*
X214320523Y-119539715D01*
X214320523Y-119539715D02*
X214177666Y-119588095D01*
X214177666Y-119588095D02*
X214082428Y-119588095D01*
X214082428Y-119588095D02*
X213939571Y-119539715D01*
X213939571Y-119539715D02*
X213844333Y-119442953D01*
X213844333Y-119442953D02*
X213796714Y-119346191D01*
X213796714Y-119346191D02*
X213749095Y-119152667D01*
X213749095Y-119152667D02*
X213749095Y-119007524D01*
X213749095Y-119007524D02*
X213796714Y-118814000D01*
X213796714Y-118814000D02*
X213844333Y-118717238D01*
X213844333Y-118717238D02*
X213939571Y-118620476D01*
X213939571Y-118620476D02*
X214082428Y-118572095D01*
X214082428Y-118572095D02*
X214177666Y-118572095D01*
X214177666Y-118572095D02*
X214320523Y-118620476D01*
X214320523Y-118620476D02*
X214368142Y-118668857D01*
X215320523Y-119588095D02*
X214749095Y-119588095D01*
X215034809Y-119588095D02*
X215034809Y-118572095D01*
X215034809Y-118572095D02*
X214939571Y-118717238D01*
X214939571Y-118717238D02*
X214844333Y-118814000D01*
X214844333Y-118814000D02*
X214749095Y-118862381D01*
X216177666Y-118572095D02*
X215987190Y-118572095D01*
X215987190Y-118572095D02*
X215891952Y-118620476D01*
X215891952Y-118620476D02*
X215844333Y-118668857D01*
X215844333Y-118668857D02*
X215749095Y-118814000D01*
X215749095Y-118814000D02*
X215701476Y-119007524D01*
X215701476Y-119007524D02*
X215701476Y-119394572D01*
X215701476Y-119394572D02*
X215749095Y-119491334D01*
X215749095Y-119491334D02*
X215796714Y-119539715D01*
X215796714Y-119539715D02*
X215891952Y-119588095D01*
X215891952Y-119588095D02*
X216082428Y-119588095D01*
X216082428Y-119588095D02*
X216177666Y-119539715D01*
X216177666Y-119539715D02*
X216225285Y-119491334D01*
X216225285Y-119491334D02*
X216272904Y-119394572D01*
X216272904Y-119394572D02*
X216272904Y-119152667D01*
X216272904Y-119152667D02*
X216225285Y-119055905D01*
X216225285Y-119055905D02*
X216177666Y-119007524D01*
X216177666Y-119007524D02*
X216082428Y-118959143D01*
X216082428Y-118959143D02*
X215891952Y-118959143D01*
X215891952Y-118959143D02*
X215796714Y-119007524D01*
X215796714Y-119007524D02*
X215749095Y-119055905D01*
X215749095Y-119055905D02*
X215701476Y-119152667D01*
X174585333Y-136255334D02*
X174537714Y-136303715D01*
X174537714Y-136303715D02*
X174394857Y-136352095D01*
X174394857Y-136352095D02*
X174299619Y-136352095D01*
X174299619Y-136352095D02*
X174156762Y-136303715D01*
X174156762Y-136303715D02*
X174061524Y-136206953D01*
X174061524Y-136206953D02*
X174013905Y-136110191D01*
X174013905Y-136110191D02*
X173966286Y-135916667D01*
X173966286Y-135916667D02*
X173966286Y-135771524D01*
X173966286Y-135771524D02*
X174013905Y-135578000D01*
X174013905Y-135578000D02*
X174061524Y-135481238D01*
X174061524Y-135481238D02*
X174156762Y-135384476D01*
X174156762Y-135384476D02*
X174299619Y-135336095D01*
X174299619Y-135336095D02*
X174394857Y-135336095D01*
X174394857Y-135336095D02*
X174537714Y-135384476D01*
X174537714Y-135384476D02*
X174585333Y-135432857D01*
X174918667Y-135336095D02*
X175585333Y-135336095D01*
X175585333Y-135336095D02*
X175156762Y-136352095D01*
X206677095Y-123451857D02*
X206193286Y-123785190D01*
X206677095Y-124023285D02*
X205661095Y-124023285D01*
X205661095Y-124023285D02*
X205661095Y-123642333D01*
X205661095Y-123642333D02*
X205709476Y-123547095D01*
X205709476Y-123547095D02*
X205757857Y-123499476D01*
X205757857Y-123499476D02*
X205854619Y-123451857D01*
X205854619Y-123451857D02*
X205999762Y-123451857D01*
X205999762Y-123451857D02*
X206096524Y-123499476D01*
X206096524Y-123499476D02*
X206144905Y-123547095D01*
X206144905Y-123547095D02*
X206193286Y-123642333D01*
X206193286Y-123642333D02*
X206193286Y-124023285D01*
X205757857Y-123070904D02*
X205709476Y-123023285D01*
X205709476Y-123023285D02*
X205661095Y-122928047D01*
X205661095Y-122928047D02*
X205661095Y-122689952D01*
X205661095Y-122689952D02*
X205709476Y-122594714D01*
X205709476Y-122594714D02*
X205757857Y-122547095D01*
X205757857Y-122547095D02*
X205854619Y-122499476D01*
X205854619Y-122499476D02*
X205951381Y-122499476D01*
X205951381Y-122499476D02*
X206096524Y-122547095D01*
X206096524Y-122547095D02*
X206677095Y-123118523D01*
X206677095Y-123118523D02*
X206677095Y-122499476D01*
X206677095Y-122023285D02*
X206677095Y-121832809D01*
X206677095Y-121832809D02*
X206628715Y-121737571D01*
X206628715Y-121737571D02*
X206580334Y-121689952D01*
X206580334Y-121689952D02*
X206435191Y-121594714D01*
X206435191Y-121594714D02*
X206241667Y-121547095D01*
X206241667Y-121547095D02*
X205854619Y-121547095D01*
X205854619Y-121547095D02*
X205757857Y-121594714D01*
X205757857Y-121594714D02*
X205709476Y-121642333D01*
X205709476Y-121642333D02*
X205661095Y-121737571D01*
X205661095Y-121737571D02*
X205661095Y-121928047D01*
X205661095Y-121928047D02*
X205709476Y-122023285D01*
X205709476Y-122023285D02*
X205757857Y-122070904D01*
X205757857Y-122070904D02*
X205854619Y-122118523D01*
X205854619Y-122118523D02*
X206096524Y-122118523D01*
X206096524Y-122118523D02*
X206193286Y-122070904D01*
X206193286Y-122070904D02*
X206241667Y-122023285D01*
X206241667Y-122023285D02*
X206290048Y-121928047D01*
X206290048Y-121928047D02*
X206290048Y-121737571D01*
X206290048Y-121737571D02*
X206241667Y-121642333D01*
X206241667Y-121642333D02*
X206193286Y-121594714D01*
X206193286Y-121594714D02*
X206096524Y-121547095D01*
X222240911Y-152710357D02*
X221757102Y-153043690D01*
X222240911Y-153281785D02*
X221224911Y-153281785D01*
X221224911Y-153281785D02*
X221224911Y-152900833D01*
X221224911Y-152900833D02*
X221273292Y-152805595D01*
X221273292Y-152805595D02*
X221321673Y-152757976D01*
X221321673Y-152757976D02*
X221418435Y-152710357D01*
X221418435Y-152710357D02*
X221563578Y-152710357D01*
X221563578Y-152710357D02*
X221660340Y-152757976D01*
X221660340Y-152757976D02*
X221708721Y-152805595D01*
X221708721Y-152805595D02*
X221757102Y-152900833D01*
X221757102Y-152900833D02*
X221757102Y-153281785D01*
X221563578Y-151853214D02*
X222240911Y-151853214D01*
X221176531Y-152091309D02*
X221902245Y-152329404D01*
X221902245Y-152329404D02*
X221902245Y-151710357D01*
X222240911Y-151281785D02*
X222240911Y-151091309D01*
X222240911Y-151091309D02*
X222192531Y-150996071D01*
X222192531Y-150996071D02*
X222144150Y-150948452D01*
X222144150Y-150948452D02*
X221999007Y-150853214D01*
X221999007Y-150853214D02*
X221805483Y-150805595D01*
X221805483Y-150805595D02*
X221418435Y-150805595D01*
X221418435Y-150805595D02*
X221321673Y-150853214D01*
X221321673Y-150853214D02*
X221273292Y-150900833D01*
X221273292Y-150900833D02*
X221224911Y-150996071D01*
X221224911Y-150996071D02*
X221224911Y-151186547D01*
X221224911Y-151186547D02*
X221273292Y-151281785D01*
X221273292Y-151281785D02*
X221321673Y-151329404D01*
X221321673Y-151329404D02*
X221418435Y-151377023D01*
X221418435Y-151377023D02*
X221660340Y-151377023D01*
X221660340Y-151377023D02*
X221757102Y-151329404D01*
X221757102Y-151329404D02*
X221805483Y-151281785D01*
X221805483Y-151281785D02*
X221853864Y-151186547D01*
X221853864Y-151186547D02*
X221853864Y-150996071D01*
X221853864Y-150996071D02*
X221805483Y-150900833D01*
X221805483Y-150900833D02*
X221757102Y-150853214D01*
X221757102Y-150853214D02*
X221660340Y-150805595D01*
X187190142Y-119551095D02*
X186856809Y-119067286D01*
X186618714Y-119551095D02*
X186618714Y-118535095D01*
X186618714Y-118535095D02*
X186999666Y-118535095D01*
X186999666Y-118535095D02*
X187094904Y-118583476D01*
X187094904Y-118583476D02*
X187142523Y-118631857D01*
X187142523Y-118631857D02*
X187190142Y-118728619D01*
X187190142Y-118728619D02*
X187190142Y-118873762D01*
X187190142Y-118873762D02*
X187142523Y-118970524D01*
X187142523Y-118970524D02*
X187094904Y-119018905D01*
X187094904Y-119018905D02*
X186999666Y-119067286D01*
X186999666Y-119067286D02*
X186618714Y-119067286D01*
X187571095Y-118631857D02*
X187618714Y-118583476D01*
X187618714Y-118583476D02*
X187713952Y-118535095D01*
X187713952Y-118535095D02*
X187952047Y-118535095D01*
X187952047Y-118535095D02*
X188047285Y-118583476D01*
X188047285Y-118583476D02*
X188094904Y-118631857D01*
X188094904Y-118631857D02*
X188142523Y-118728619D01*
X188142523Y-118728619D02*
X188142523Y-118825381D01*
X188142523Y-118825381D02*
X188094904Y-118970524D01*
X188094904Y-118970524D02*
X187523476Y-119551095D01*
X187523476Y-119551095D02*
X188142523Y-119551095D01*
X188761571Y-118535095D02*
X188856809Y-118535095D01*
X188856809Y-118535095D02*
X188952047Y-118583476D01*
X188952047Y-118583476D02*
X188999666Y-118631857D01*
X188999666Y-118631857D02*
X189047285Y-118728619D01*
X189047285Y-118728619D02*
X189094904Y-118922143D01*
X189094904Y-118922143D02*
X189094904Y-119164048D01*
X189094904Y-119164048D02*
X189047285Y-119357572D01*
X189047285Y-119357572D02*
X188999666Y-119454334D01*
X188999666Y-119454334D02*
X188952047Y-119502715D01*
X188952047Y-119502715D02*
X188856809Y-119551095D01*
X188856809Y-119551095D02*
X188761571Y-119551095D01*
X188761571Y-119551095D02*
X188666333Y-119502715D01*
X188666333Y-119502715D02*
X188618714Y-119454334D01*
X188618714Y-119454334D02*
X188571095Y-119357572D01*
X188571095Y-119357572D02*
X188523476Y-119164048D01*
X188523476Y-119164048D02*
X188523476Y-118922143D01*
X188523476Y-118922143D02*
X188571095Y-118728619D01*
X188571095Y-118728619D02*
X188618714Y-118631857D01*
X188618714Y-118631857D02*
X188666333Y-118583476D01*
X188666333Y-118583476D02*
X188761571Y-118535095D01*
X218559142Y-116286095D02*
X218225809Y-115802286D01*
X217987714Y-116286095D02*
X217987714Y-115270095D01*
X217987714Y-115270095D02*
X218368666Y-115270095D01*
X218368666Y-115270095D02*
X218463904Y-115318476D01*
X218463904Y-115318476D02*
X218511523Y-115366857D01*
X218511523Y-115366857D02*
X218559142Y-115463619D01*
X218559142Y-115463619D02*
X218559142Y-115608762D01*
X218559142Y-115608762D02*
X218511523Y-115705524D01*
X218511523Y-115705524D02*
X218463904Y-115753905D01*
X218463904Y-115753905D02*
X218368666Y-115802286D01*
X218368666Y-115802286D02*
X217987714Y-115802286D01*
X218892476Y-115270095D02*
X219511523Y-115270095D01*
X219511523Y-115270095D02*
X219178190Y-115657143D01*
X219178190Y-115657143D02*
X219321047Y-115657143D01*
X219321047Y-115657143D02*
X219416285Y-115705524D01*
X219416285Y-115705524D02*
X219463904Y-115753905D01*
X219463904Y-115753905D02*
X219511523Y-115850667D01*
X219511523Y-115850667D02*
X219511523Y-116092572D01*
X219511523Y-116092572D02*
X219463904Y-116189334D01*
X219463904Y-116189334D02*
X219416285Y-116237715D01*
X219416285Y-116237715D02*
X219321047Y-116286095D01*
X219321047Y-116286095D02*
X219035333Y-116286095D01*
X219035333Y-116286095D02*
X218940095Y-116237715D01*
X218940095Y-116237715D02*
X218892476Y-116189334D01*
X219892476Y-115366857D02*
X219940095Y-115318476D01*
X219940095Y-115318476D02*
X220035333Y-115270095D01*
X220035333Y-115270095D02*
X220273428Y-115270095D01*
X220273428Y-115270095D02*
X220368666Y-115318476D01*
X220368666Y-115318476D02*
X220416285Y-115366857D01*
X220416285Y-115366857D02*
X220463904Y-115463619D01*
X220463904Y-115463619D02*
X220463904Y-115560381D01*
X220463904Y-115560381D02*
X220416285Y-115705524D01*
X220416285Y-115705524D02*
X219844857Y-116286095D01*
X219844857Y-116286095D02*
X220463904Y-116286095D01*
X186936142Y-104221095D02*
X186602809Y-103737286D01*
X186364714Y-104221095D02*
X186364714Y-103205095D01*
X186364714Y-103205095D02*
X186745666Y-103205095D01*
X186745666Y-103205095D02*
X186840904Y-103253476D01*
X186840904Y-103253476D02*
X186888523Y-103301857D01*
X186888523Y-103301857D02*
X186936142Y-103398619D01*
X186936142Y-103398619D02*
X186936142Y-103543762D01*
X186936142Y-103543762D02*
X186888523Y-103640524D01*
X186888523Y-103640524D02*
X186840904Y-103688905D01*
X186840904Y-103688905D02*
X186745666Y-103737286D01*
X186745666Y-103737286D02*
X186364714Y-103737286D01*
X187269476Y-103205095D02*
X187888523Y-103205095D01*
X187888523Y-103205095D02*
X187555190Y-103592143D01*
X187555190Y-103592143D02*
X187698047Y-103592143D01*
X187698047Y-103592143D02*
X187793285Y-103640524D01*
X187793285Y-103640524D02*
X187840904Y-103688905D01*
X187840904Y-103688905D02*
X187888523Y-103785667D01*
X187888523Y-103785667D02*
X187888523Y-104027572D01*
X187888523Y-104027572D02*
X187840904Y-104124334D01*
X187840904Y-104124334D02*
X187793285Y-104172715D01*
X187793285Y-104172715D02*
X187698047Y-104221095D01*
X187698047Y-104221095D02*
X187412333Y-104221095D01*
X187412333Y-104221095D02*
X187317095Y-104172715D01*
X187317095Y-104172715D02*
X187269476Y-104124334D01*
X188459952Y-103640524D02*
X188364714Y-103592143D01*
X188364714Y-103592143D02*
X188317095Y-103543762D01*
X188317095Y-103543762D02*
X188269476Y-103447000D01*
X188269476Y-103447000D02*
X188269476Y-103398619D01*
X188269476Y-103398619D02*
X188317095Y-103301857D01*
X188317095Y-103301857D02*
X188364714Y-103253476D01*
X188364714Y-103253476D02*
X188459952Y-103205095D01*
X188459952Y-103205095D02*
X188650428Y-103205095D01*
X188650428Y-103205095D02*
X188745666Y-103253476D01*
X188745666Y-103253476D02*
X188793285Y-103301857D01*
X188793285Y-103301857D02*
X188840904Y-103398619D01*
X188840904Y-103398619D02*
X188840904Y-103447000D01*
X188840904Y-103447000D02*
X188793285Y-103543762D01*
X188793285Y-103543762D02*
X188745666Y-103592143D01*
X188745666Y-103592143D02*
X188650428Y-103640524D01*
X188650428Y-103640524D02*
X188459952Y-103640524D01*
X188459952Y-103640524D02*
X188364714Y-103688905D01*
X188364714Y-103688905D02*
X188317095Y-103737286D01*
X188317095Y-103737286D02*
X188269476Y-103834048D01*
X188269476Y-103834048D02*
X188269476Y-104027572D01*
X188269476Y-104027572D02*
X188317095Y-104124334D01*
X188317095Y-104124334D02*
X188364714Y-104172715D01*
X188364714Y-104172715D02*
X188459952Y-104221095D01*
X188459952Y-104221095D02*
X188650428Y-104221095D01*
X188650428Y-104221095D02*
X188745666Y-104172715D01*
X188745666Y-104172715D02*
X188793285Y-104124334D01*
X188793285Y-104124334D02*
X188840904Y-104027572D01*
X188840904Y-104027572D02*
X188840904Y-103834048D01*
X188840904Y-103834048D02*
X188793285Y-103737286D01*
X188793285Y-103737286D02*
X188745666Y-103688905D01*
X188745666Y-103688905D02*
X188650428Y-103640524D01*
X227193911Y-152583357D02*
X226710102Y-152916690D01*
X227193911Y-153154785D02*
X226177911Y-153154785D01*
X226177911Y-153154785D02*
X226177911Y-152773833D01*
X226177911Y-152773833D02*
X226226292Y-152678595D01*
X226226292Y-152678595D02*
X226274673Y-152630976D01*
X226274673Y-152630976D02*
X226371435Y-152583357D01*
X226371435Y-152583357D02*
X226516578Y-152583357D01*
X226516578Y-152583357D02*
X226613340Y-152630976D01*
X226613340Y-152630976D02*
X226661721Y-152678595D01*
X226661721Y-152678595D02*
X226710102Y-152773833D01*
X226710102Y-152773833D02*
X226710102Y-153154785D01*
X226177911Y-151678595D02*
X226177911Y-152154785D01*
X226177911Y-152154785D02*
X226661721Y-152202404D01*
X226661721Y-152202404D02*
X226613340Y-152154785D01*
X226613340Y-152154785D02*
X226564959Y-152059547D01*
X226564959Y-152059547D02*
X226564959Y-151821452D01*
X226564959Y-151821452D02*
X226613340Y-151726214D01*
X226613340Y-151726214D02*
X226661721Y-151678595D01*
X226661721Y-151678595D02*
X226758483Y-151630976D01*
X226758483Y-151630976D02*
X227000388Y-151630976D01*
X227000388Y-151630976D02*
X227097150Y-151678595D01*
X227097150Y-151678595D02*
X227145531Y-151726214D01*
X227145531Y-151726214D02*
X227193911Y-151821452D01*
X227193911Y-151821452D02*
X227193911Y-152059547D01*
X227193911Y-152059547D02*
X227145531Y-152154785D01*
X227145531Y-152154785D02*
X227097150Y-152202404D01*
X226516578Y-150773833D02*
X227193911Y-150773833D01*
X226129531Y-151011928D02*
X226855245Y-151250023D01*
X226855245Y-151250023D02*
X226855245Y-150630976D01*
X177887333Y-124444334D02*
X177839714Y-124492715D01*
X177839714Y-124492715D02*
X177696857Y-124541095D01*
X177696857Y-124541095D02*
X177601619Y-124541095D01*
X177601619Y-124541095D02*
X177458762Y-124492715D01*
X177458762Y-124492715D02*
X177363524Y-124395953D01*
X177363524Y-124395953D02*
X177315905Y-124299191D01*
X177315905Y-124299191D02*
X177268286Y-124105667D01*
X177268286Y-124105667D02*
X177268286Y-123960524D01*
X177268286Y-123960524D02*
X177315905Y-123767000D01*
X177315905Y-123767000D02*
X177363524Y-123670238D01*
X177363524Y-123670238D02*
X177458762Y-123573476D01*
X177458762Y-123573476D02*
X177601619Y-123525095D01*
X177601619Y-123525095D02*
X177696857Y-123525095D01*
X177696857Y-123525095D02*
X177839714Y-123573476D01*
X177839714Y-123573476D02*
X177887333Y-123621857D01*
X178220667Y-123525095D02*
X178839714Y-123525095D01*
X178839714Y-123525095D02*
X178506381Y-123912143D01*
X178506381Y-123912143D02*
X178649238Y-123912143D01*
X178649238Y-123912143D02*
X178744476Y-123960524D01*
X178744476Y-123960524D02*
X178792095Y-124008905D01*
X178792095Y-124008905D02*
X178839714Y-124105667D01*
X178839714Y-124105667D02*
X178839714Y-124347572D01*
X178839714Y-124347572D02*
X178792095Y-124444334D01*
X178792095Y-124444334D02*
X178744476Y-124492715D01*
X178744476Y-124492715D02*
X178649238Y-124541095D01*
X178649238Y-124541095D02*
X178363524Y-124541095D01*
X178363524Y-124541095D02*
X178268286Y-124492715D01*
X178268286Y-124492715D02*
X178220667Y-124444334D01*
X167799715Y-147510332D02*
X167848095Y-147367475D01*
X167848095Y-147367475D02*
X167848095Y-147129380D01*
X167848095Y-147129380D02*
X167799715Y-147034142D01*
X167799715Y-147034142D02*
X167751334Y-146986523D01*
X167751334Y-146986523D02*
X167654572Y-146938904D01*
X167654572Y-146938904D02*
X167557810Y-146938904D01*
X167557810Y-146938904D02*
X167461048Y-146986523D01*
X167461048Y-146986523D02*
X167412667Y-147034142D01*
X167412667Y-147034142D02*
X167364286Y-147129380D01*
X167364286Y-147129380D02*
X167315905Y-147319856D01*
X167315905Y-147319856D02*
X167267524Y-147415094D01*
X167267524Y-147415094D02*
X167219143Y-147462713D01*
X167219143Y-147462713D02*
X167122381Y-147510332D01*
X167122381Y-147510332D02*
X167025619Y-147510332D01*
X167025619Y-147510332D02*
X166928857Y-147462713D01*
X166928857Y-147462713D02*
X166880476Y-147415094D01*
X166880476Y-147415094D02*
X166832095Y-147319856D01*
X166832095Y-147319856D02*
X166832095Y-147081761D01*
X166832095Y-147081761D02*
X166880476Y-146938904D01*
X166832095Y-146605570D02*
X167848095Y-146367475D01*
X167848095Y-146367475D02*
X167122381Y-146176999D01*
X167122381Y-146176999D02*
X167848095Y-145986523D01*
X167848095Y-145986523D02*
X166832095Y-145748428D01*
X166832095Y-144891285D02*
X166832095Y-145367475D01*
X166832095Y-145367475D02*
X167315905Y-145415094D01*
X167315905Y-145415094D02*
X167267524Y-145367475D01*
X167267524Y-145367475D02*
X167219143Y-145272237D01*
X167219143Y-145272237D02*
X167219143Y-145034142D01*
X167219143Y-145034142D02*
X167267524Y-144938904D01*
X167267524Y-144938904D02*
X167315905Y-144891285D01*
X167315905Y-144891285D02*
X167412667Y-144843666D01*
X167412667Y-144843666D02*
X167654572Y-144843666D01*
X167654572Y-144843666D02*
X167751334Y-144891285D01*
X167751334Y-144891285D02*
X167799715Y-144938904D01*
X167799715Y-144938904D02*
X167848095Y-145034142D01*
X167848095Y-145034142D02*
X167848095Y-145272237D01*
X167848095Y-145272237D02*
X167799715Y-145367475D01*
X167799715Y-145367475D02*
X167751334Y-145415094D01*
X159262895Y-150875880D02*
X159262895Y-150685404D01*
X159262895Y-150685404D02*
X159311276Y-150590166D01*
X159311276Y-150590166D02*
X159408038Y-150494928D01*
X159408038Y-150494928D02*
X159601562Y-150447309D01*
X159601562Y-150447309D02*
X159940229Y-150447309D01*
X159940229Y-150447309D02*
X160133753Y-150494928D01*
X160133753Y-150494928D02*
X160230515Y-150590166D01*
X160230515Y-150590166D02*
X160278895Y-150685404D01*
X160278895Y-150685404D02*
X160278895Y-150875880D01*
X160278895Y-150875880D02*
X160230515Y-150971118D01*
X160230515Y-150971118D02*
X160133753Y-151066356D01*
X160133753Y-151066356D02*
X159940229Y-151113975D01*
X159940229Y-151113975D02*
X159601562Y-151113975D01*
X159601562Y-151113975D02*
X159408038Y-151066356D01*
X159408038Y-151066356D02*
X159311276Y-150971118D01*
X159311276Y-150971118D02*
X159262895Y-150875880D01*
X159746705Y-149685404D02*
X159746705Y-150018737D01*
X160278895Y-150018737D02*
X159262895Y-150018737D01*
X159262895Y-150018737D02*
X159262895Y-149542547D01*
X159746705Y-148828261D02*
X159746705Y-149161594D01*
X160278895Y-149161594D02*
X159262895Y-149161594D01*
X159262895Y-149161594D02*
X159262895Y-148685404D01*
X159466095Y-142351047D02*
X159466095Y-142160571D01*
X159466095Y-142160571D02*
X159514476Y-142065333D01*
X159514476Y-142065333D02*
X159611238Y-141970095D01*
X159611238Y-141970095D02*
X159804762Y-141922476D01*
X159804762Y-141922476D02*
X160143429Y-141922476D01*
X160143429Y-141922476D02*
X160336953Y-141970095D01*
X160336953Y-141970095D02*
X160433715Y-142065333D01*
X160433715Y-142065333D02*
X160482095Y-142160571D01*
X160482095Y-142160571D02*
X160482095Y-142351047D01*
X160482095Y-142351047D02*
X160433715Y-142446285D01*
X160433715Y-142446285D02*
X160336953Y-142541523D01*
X160336953Y-142541523D02*
X160143429Y-142589142D01*
X160143429Y-142589142D02*
X159804762Y-142589142D01*
X159804762Y-142589142D02*
X159611238Y-142541523D01*
X159611238Y-142541523D02*
X159514476Y-142446285D01*
X159514476Y-142446285D02*
X159466095Y-142351047D01*
X160482095Y-141493904D02*
X159466095Y-141493904D01*
X159466095Y-141493904D02*
X160482095Y-140922476D01*
X160482095Y-140922476D02*
X159466095Y-140922476D01*
X161184647Y-150896626D02*
X161426552Y-150896626D01*
X161329790Y-151134721D02*
X161426552Y-150896626D01*
X161426552Y-150896626D02*
X161329790Y-150658531D01*
X161620076Y-151039483D02*
X161426552Y-150896626D01*
X161426552Y-150896626D02*
X161620076Y-150753769D01*
X218559142Y-124287095D02*
X218225809Y-123803286D01*
X217987714Y-124287095D02*
X217987714Y-123271095D01*
X217987714Y-123271095D02*
X218368666Y-123271095D01*
X218368666Y-123271095D02*
X218463904Y-123319476D01*
X218463904Y-123319476D02*
X218511523Y-123367857D01*
X218511523Y-123367857D02*
X218559142Y-123464619D01*
X218559142Y-123464619D02*
X218559142Y-123609762D01*
X218559142Y-123609762D02*
X218511523Y-123706524D01*
X218511523Y-123706524D02*
X218463904Y-123754905D01*
X218463904Y-123754905D02*
X218368666Y-123803286D01*
X218368666Y-123803286D02*
X217987714Y-123803286D01*
X219416285Y-123609762D02*
X219416285Y-124287095D01*
X219178190Y-123222715D02*
X218940095Y-123948429D01*
X218940095Y-123948429D02*
X219559142Y-123948429D01*
X219844857Y-123271095D02*
X220463904Y-123271095D01*
X220463904Y-123271095D02*
X220130571Y-123658143D01*
X220130571Y-123658143D02*
X220273428Y-123658143D01*
X220273428Y-123658143D02*
X220368666Y-123706524D01*
X220368666Y-123706524D02*
X220416285Y-123754905D01*
X220416285Y-123754905D02*
X220463904Y-123851667D01*
X220463904Y-123851667D02*
X220463904Y-124093572D01*
X220463904Y-124093572D02*
X220416285Y-124190334D01*
X220416285Y-124190334D02*
X220368666Y-124238715D01*
X220368666Y-124238715D02*
X220273428Y-124287095D01*
X220273428Y-124287095D02*
X219987714Y-124287095D01*
X219987714Y-124287095D02*
X219892476Y-124238715D01*
X219892476Y-124238715D02*
X219844857Y-124190334D01*
X158107142Y-127970095D02*
X157773809Y-127486286D01*
X157535714Y-127970095D02*
X157535714Y-126954095D01*
X157535714Y-126954095D02*
X157916666Y-126954095D01*
X157916666Y-126954095D02*
X158011904Y-127002476D01*
X158011904Y-127002476D02*
X158059523Y-127050857D01*
X158059523Y-127050857D02*
X158107142Y-127147619D01*
X158107142Y-127147619D02*
X158107142Y-127292762D01*
X158107142Y-127292762D02*
X158059523Y-127389524D01*
X158059523Y-127389524D02*
X158011904Y-127437905D01*
X158011904Y-127437905D02*
X157916666Y-127486286D01*
X157916666Y-127486286D02*
X157535714Y-127486286D01*
X159011904Y-126954095D02*
X158535714Y-126954095D01*
X158535714Y-126954095D02*
X158488095Y-127437905D01*
X158488095Y-127437905D02*
X158535714Y-127389524D01*
X158535714Y-127389524D02*
X158630952Y-127341143D01*
X158630952Y-127341143D02*
X158869047Y-127341143D01*
X158869047Y-127341143D02*
X158964285Y-127389524D01*
X158964285Y-127389524D02*
X159011904Y-127437905D01*
X159011904Y-127437905D02*
X159059523Y-127534667D01*
X159059523Y-127534667D02*
X159059523Y-127776572D01*
X159059523Y-127776572D02*
X159011904Y-127873334D01*
X159011904Y-127873334D02*
X158964285Y-127921715D01*
X158964285Y-127921715D02*
X158869047Y-127970095D01*
X158869047Y-127970095D02*
X158630952Y-127970095D01*
X158630952Y-127970095D02*
X158535714Y-127921715D01*
X158535714Y-127921715D02*
X158488095Y-127873334D01*
X159440476Y-127050857D02*
X159488095Y-127002476D01*
X159488095Y-127002476D02*
X159583333Y-126954095D01*
X159583333Y-126954095D02*
X159821428Y-126954095D01*
X159821428Y-126954095D02*
X159916666Y-127002476D01*
X159916666Y-127002476D02*
X159964285Y-127050857D01*
X159964285Y-127050857D02*
X160011904Y-127147619D01*
X160011904Y-127147619D02*
X160011904Y-127244381D01*
X160011904Y-127244381D02*
X159964285Y-127389524D01*
X159964285Y-127389524D02*
X159392857Y-127970095D01*
X159392857Y-127970095D02*
X160011904Y-127970095D01*
X237317666Y-104271495D02*
X237317666Y-104997210D01*
X237317666Y-104997210D02*
X237270047Y-105142353D01*
X237270047Y-105142353D02*
X237174809Y-105239115D01*
X237174809Y-105239115D02*
X237031952Y-105287495D01*
X237031952Y-105287495D02*
X236936714Y-105287495D01*
X238317666Y-105287495D02*
X237746238Y-105287495D01*
X238031952Y-105287495D02*
X238031952Y-104271495D01*
X238031952Y-104271495D02*
X237936714Y-104416638D01*
X237936714Y-104416638D02*
X237841476Y-104513400D01*
X237841476Y-104513400D02*
X237746238Y-104561781D01*
X196080142Y-123652095D02*
X195746809Y-123168286D01*
X195508714Y-123652095D02*
X195508714Y-122636095D01*
X195508714Y-122636095D02*
X195889666Y-122636095D01*
X195889666Y-122636095D02*
X195984904Y-122684476D01*
X195984904Y-122684476D02*
X196032523Y-122732857D01*
X196032523Y-122732857D02*
X196080142Y-122829619D01*
X196080142Y-122829619D02*
X196080142Y-122974762D01*
X196080142Y-122974762D02*
X196032523Y-123071524D01*
X196032523Y-123071524D02*
X195984904Y-123119905D01*
X195984904Y-123119905D02*
X195889666Y-123168286D01*
X195889666Y-123168286D02*
X195508714Y-123168286D01*
X196461095Y-122732857D02*
X196508714Y-122684476D01*
X196508714Y-122684476D02*
X196603952Y-122636095D01*
X196603952Y-122636095D02*
X196842047Y-122636095D01*
X196842047Y-122636095D02*
X196937285Y-122684476D01*
X196937285Y-122684476D02*
X196984904Y-122732857D01*
X196984904Y-122732857D02*
X197032523Y-122829619D01*
X197032523Y-122829619D02*
X197032523Y-122926381D01*
X197032523Y-122926381D02*
X196984904Y-123071524D01*
X196984904Y-123071524D02*
X196413476Y-123652095D01*
X196413476Y-123652095D02*
X197032523Y-123652095D01*
X197937285Y-122636095D02*
X197461095Y-122636095D01*
X197461095Y-122636095D02*
X197413476Y-123119905D01*
X197413476Y-123119905D02*
X197461095Y-123071524D01*
X197461095Y-123071524D02*
X197556333Y-123023143D01*
X197556333Y-123023143D02*
X197794428Y-123023143D01*
X197794428Y-123023143D02*
X197889666Y-123071524D01*
X197889666Y-123071524D02*
X197937285Y-123119905D01*
X197937285Y-123119905D02*
X197984904Y-123216667D01*
X197984904Y-123216667D02*
X197984904Y-123458572D01*
X197984904Y-123458572D02*
X197937285Y-123555334D01*
X197937285Y-123555334D02*
X197889666Y-123603715D01*
X197889666Y-123603715D02*
X197794428Y-123652095D01*
X197794428Y-123652095D02*
X197556333Y-123652095D01*
X197556333Y-123652095D02*
X197461095Y-123603715D01*
X197461095Y-123603715D02*
X197413476Y-123555334D01*
X238752142Y-127081095D02*
X238418809Y-126597286D01*
X238180714Y-127081095D02*
X238180714Y-126065095D01*
X238180714Y-126065095D02*
X238561666Y-126065095D01*
X238561666Y-126065095D02*
X238656904Y-126113476D01*
X238656904Y-126113476D02*
X238704523Y-126161857D01*
X238704523Y-126161857D02*
X238752142Y-126258619D01*
X238752142Y-126258619D02*
X238752142Y-126403762D01*
X238752142Y-126403762D02*
X238704523Y-126500524D01*
X238704523Y-126500524D02*
X238656904Y-126548905D01*
X238656904Y-126548905D02*
X238561666Y-126597286D01*
X238561666Y-126597286D02*
X238180714Y-126597286D01*
X239656904Y-126065095D02*
X239180714Y-126065095D01*
X239180714Y-126065095D02*
X239133095Y-126548905D01*
X239133095Y-126548905D02*
X239180714Y-126500524D01*
X239180714Y-126500524D02*
X239275952Y-126452143D01*
X239275952Y-126452143D02*
X239514047Y-126452143D01*
X239514047Y-126452143D02*
X239609285Y-126500524D01*
X239609285Y-126500524D02*
X239656904Y-126548905D01*
X239656904Y-126548905D02*
X239704523Y-126645667D01*
X239704523Y-126645667D02*
X239704523Y-126887572D01*
X239704523Y-126887572D02*
X239656904Y-126984334D01*
X239656904Y-126984334D02*
X239609285Y-127032715D01*
X239609285Y-127032715D02*
X239514047Y-127081095D01*
X239514047Y-127081095D02*
X239275952Y-127081095D01*
X239275952Y-127081095D02*
X239180714Y-127032715D01*
X239180714Y-127032715D02*
X239133095Y-126984334D01*
X240656904Y-127081095D02*
X240085476Y-127081095D01*
X240371190Y-127081095D02*
X240371190Y-126065095D01*
X240371190Y-126065095D02*
X240275952Y-126210238D01*
X240275952Y-126210238D02*
X240180714Y-126307000D01*
X240180714Y-126307000D02*
X240085476Y-126355381D01*
X187126142Y-115069095D02*
X186792809Y-114585286D01*
X186554714Y-115069095D02*
X186554714Y-114053095D01*
X186554714Y-114053095D02*
X186935666Y-114053095D01*
X186935666Y-114053095D02*
X187030904Y-114101476D01*
X187030904Y-114101476D02*
X187078523Y-114149857D01*
X187078523Y-114149857D02*
X187126142Y-114246619D01*
X187126142Y-114246619D02*
X187126142Y-114391762D01*
X187126142Y-114391762D02*
X187078523Y-114488524D01*
X187078523Y-114488524D02*
X187030904Y-114536905D01*
X187030904Y-114536905D02*
X186935666Y-114585286D01*
X186935666Y-114585286D02*
X186554714Y-114585286D01*
X188078523Y-115069095D02*
X187507095Y-115069095D01*
X187792809Y-115069095D02*
X187792809Y-114053095D01*
X187792809Y-114053095D02*
X187697571Y-114198238D01*
X187697571Y-114198238D02*
X187602333Y-114295000D01*
X187602333Y-114295000D02*
X187507095Y-114343381D01*
X188411857Y-114053095D02*
X189030904Y-114053095D01*
X189030904Y-114053095D02*
X188697571Y-114440143D01*
X188697571Y-114440143D02*
X188840428Y-114440143D01*
X188840428Y-114440143D02*
X188935666Y-114488524D01*
X188935666Y-114488524D02*
X188983285Y-114536905D01*
X188983285Y-114536905D02*
X189030904Y-114633667D01*
X189030904Y-114633667D02*
X189030904Y-114875572D01*
X189030904Y-114875572D02*
X188983285Y-114972334D01*
X188983285Y-114972334D02*
X188935666Y-115020715D01*
X188935666Y-115020715D02*
X188840428Y-115069095D01*
X188840428Y-115069095D02*
X188554714Y-115069095D01*
X188554714Y-115069095D02*
X188459476Y-115020715D01*
X188459476Y-115020715D02*
X188411857Y-114972334D01*
X158234142Y-126476334D02*
X158186523Y-126524715D01*
X158186523Y-126524715D02*
X158043666Y-126573095D01*
X158043666Y-126573095D02*
X157948428Y-126573095D01*
X157948428Y-126573095D02*
X157805571Y-126524715D01*
X157805571Y-126524715D02*
X157710333Y-126427953D01*
X157710333Y-126427953D02*
X157662714Y-126331191D01*
X157662714Y-126331191D02*
X157615095Y-126137667D01*
X157615095Y-126137667D02*
X157615095Y-125992524D01*
X157615095Y-125992524D02*
X157662714Y-125799000D01*
X157662714Y-125799000D02*
X157710333Y-125702238D01*
X157710333Y-125702238D02*
X157805571Y-125605476D01*
X157805571Y-125605476D02*
X157948428Y-125557095D01*
X157948428Y-125557095D02*
X158043666Y-125557095D01*
X158043666Y-125557095D02*
X158186523Y-125605476D01*
X158186523Y-125605476D02*
X158234142Y-125653857D01*
X158615095Y-125653857D02*
X158662714Y-125605476D01*
X158662714Y-125605476D02*
X158757952Y-125557095D01*
X158757952Y-125557095D02*
X158996047Y-125557095D01*
X158996047Y-125557095D02*
X159091285Y-125605476D01*
X159091285Y-125605476D02*
X159138904Y-125653857D01*
X159138904Y-125653857D02*
X159186523Y-125750619D01*
X159186523Y-125750619D02*
X159186523Y-125847381D01*
X159186523Y-125847381D02*
X159138904Y-125992524D01*
X159138904Y-125992524D02*
X158567476Y-126573095D01*
X158567476Y-126573095D02*
X159186523Y-126573095D01*
X160091285Y-125557095D02*
X159615095Y-125557095D01*
X159615095Y-125557095D02*
X159567476Y-126040905D01*
X159567476Y-126040905D02*
X159615095Y-125992524D01*
X159615095Y-125992524D02*
X159710333Y-125944143D01*
X159710333Y-125944143D02*
X159948428Y-125944143D01*
X159948428Y-125944143D02*
X160043666Y-125992524D01*
X160043666Y-125992524D02*
X160091285Y-126040905D01*
X160091285Y-126040905D02*
X160138904Y-126137667D01*
X160138904Y-126137667D02*
X160138904Y-126379572D01*
X160138904Y-126379572D02*
X160091285Y-126476334D01*
X160091285Y-126476334D02*
X160043666Y-126524715D01*
X160043666Y-126524715D02*
X159948428Y-126573095D01*
X159948428Y-126573095D02*
X159710333Y-126573095D01*
X159710333Y-126573095D02*
X159615095Y-126524715D01*
X159615095Y-126524715D02*
X159567476Y-126476334D01*
X179247895Y-125455495D02*
X179247895Y-126277972D01*
X179247895Y-126277972D02*
X179295514Y-126374734D01*
X179295514Y-126374734D02*
X179343133Y-126423115D01*
X179343133Y-126423115D02*
X179438371Y-126471495D01*
X179438371Y-126471495D02*
X179628847Y-126471495D01*
X179628847Y-126471495D02*
X179724085Y-126423115D01*
X179724085Y-126423115D02*
X179771704Y-126374734D01*
X179771704Y-126374734D02*
X179819323Y-126277972D01*
X179819323Y-126277972D02*
X179819323Y-125455495D01*
X180819323Y-126471495D02*
X180247895Y-126471495D01*
X180533609Y-126471495D02*
X180533609Y-125455495D01*
X180533609Y-125455495D02*
X180438371Y-125600638D01*
X180438371Y-125600638D02*
X180343133Y-125697400D01*
X180343133Y-125697400D02*
X180247895Y-125745781D01*
X158138905Y-110444095D02*
X158138905Y-109428095D01*
X158138905Y-109428095D02*
X158377000Y-109428095D01*
X158377000Y-109428095D02*
X158519857Y-109476476D01*
X158519857Y-109476476D02*
X158615095Y-109573238D01*
X158615095Y-109573238D02*
X158662714Y-109670000D01*
X158662714Y-109670000D02*
X158710333Y-109863524D01*
X158710333Y-109863524D02*
X158710333Y-110008667D01*
X158710333Y-110008667D02*
X158662714Y-110202191D01*
X158662714Y-110202191D02*
X158615095Y-110298953D01*
X158615095Y-110298953D02*
X158519857Y-110395715D01*
X158519857Y-110395715D02*
X158377000Y-110444095D01*
X158377000Y-110444095D02*
X158138905Y-110444095D01*
X159567476Y-109766762D02*
X159567476Y-110444095D01*
X159329381Y-109379715D02*
X159091286Y-110105429D01*
X159091286Y-110105429D02*
X159710333Y-110105429D01*
X155045095Y-160734333D02*
X155770810Y-160734333D01*
X155770810Y-160734333D02*
X155915953Y-160781952D01*
X155915953Y-160781952D02*
X156012715Y-160877190D01*
X156012715Y-160877190D02*
X156061095Y-161020047D01*
X156061095Y-161020047D02*
X156061095Y-161115285D01*
X155141857Y-160305761D02*
X155093476Y-160258142D01*
X155093476Y-160258142D02*
X155045095Y-160162904D01*
X155045095Y-160162904D02*
X155045095Y-159924809D01*
X155045095Y-159924809D02*
X155093476Y-159829571D01*
X155093476Y-159829571D02*
X155141857Y-159781952D01*
X155141857Y-159781952D02*
X155238619Y-159734333D01*
X155238619Y-159734333D02*
X155335381Y-159734333D01*
X155335381Y-159734333D02*
X155480524Y-159781952D01*
X155480524Y-159781952D02*
X156061095Y-160353380D01*
X156061095Y-160353380D02*
X156061095Y-159734333D01*
X198842333Y-137241095D02*
X198509000Y-136757286D01*
X198270905Y-137241095D02*
X198270905Y-136225095D01*
X198270905Y-136225095D02*
X198651857Y-136225095D01*
X198651857Y-136225095D02*
X198747095Y-136273476D01*
X198747095Y-136273476D02*
X198794714Y-136321857D01*
X198794714Y-136321857D02*
X198842333Y-136418619D01*
X198842333Y-136418619D02*
X198842333Y-136563762D01*
X198842333Y-136563762D02*
X198794714Y-136660524D01*
X198794714Y-136660524D02*
X198747095Y-136708905D01*
X198747095Y-136708905D02*
X198651857Y-136757286D01*
X198651857Y-136757286D02*
X198270905Y-136757286D01*
X199413762Y-136660524D02*
X199318524Y-136612143D01*
X199318524Y-136612143D02*
X199270905Y-136563762D01*
X199270905Y-136563762D02*
X199223286Y-136467000D01*
X199223286Y-136467000D02*
X199223286Y-136418619D01*
X199223286Y-136418619D02*
X199270905Y-136321857D01*
X199270905Y-136321857D02*
X199318524Y-136273476D01*
X199318524Y-136273476D02*
X199413762Y-136225095D01*
X199413762Y-136225095D02*
X199604238Y-136225095D01*
X199604238Y-136225095D02*
X199699476Y-136273476D01*
X199699476Y-136273476D02*
X199747095Y-136321857D01*
X199747095Y-136321857D02*
X199794714Y-136418619D01*
X199794714Y-136418619D02*
X199794714Y-136467000D01*
X199794714Y-136467000D02*
X199747095Y-136563762D01*
X199747095Y-136563762D02*
X199699476Y-136612143D01*
X199699476Y-136612143D02*
X199604238Y-136660524D01*
X199604238Y-136660524D02*
X199413762Y-136660524D01*
X199413762Y-136660524D02*
X199318524Y-136708905D01*
X199318524Y-136708905D02*
X199270905Y-136757286D01*
X199270905Y-136757286D02*
X199223286Y-136854048D01*
X199223286Y-136854048D02*
X199223286Y-137047572D01*
X199223286Y-137047572D02*
X199270905Y-137144334D01*
X199270905Y-137144334D02*
X199318524Y-137192715D01*
X199318524Y-137192715D02*
X199413762Y-137241095D01*
X199413762Y-137241095D02*
X199604238Y-137241095D01*
X199604238Y-137241095D02*
X199699476Y-137192715D01*
X199699476Y-137192715D02*
X199747095Y-137144334D01*
X199747095Y-137144334D02*
X199794714Y-137047572D01*
X199794714Y-137047572D02*
X199794714Y-136854048D01*
X199794714Y-136854048D02*
X199747095Y-136757286D01*
X199747095Y-136757286D02*
X199699476Y-136708905D01*
X199699476Y-136708905D02*
X199604238Y-136660524D01*
X157416667Y-115729715D02*
X157559524Y-115778095D01*
X157559524Y-115778095D02*
X157797619Y-115778095D01*
X157797619Y-115778095D02*
X157892857Y-115729715D01*
X157892857Y-115729715D02*
X157940476Y-115681334D01*
X157940476Y-115681334D02*
X157988095Y-115584572D01*
X157988095Y-115584572D02*
X157988095Y-115487810D01*
X157988095Y-115487810D02*
X157940476Y-115391048D01*
X157940476Y-115391048D02*
X157892857Y-115342667D01*
X157892857Y-115342667D02*
X157797619Y-115294286D01*
X157797619Y-115294286D02*
X157607143Y-115245905D01*
X157607143Y-115245905D02*
X157511905Y-115197524D01*
X157511905Y-115197524D02*
X157464286Y-115149143D01*
X157464286Y-115149143D02*
X157416667Y-115052381D01*
X157416667Y-115052381D02*
X157416667Y-114955619D01*
X157416667Y-114955619D02*
X157464286Y-114858857D01*
X157464286Y-114858857D02*
X157511905Y-114810476D01*
X157511905Y-114810476D02*
X157607143Y-114762095D01*
X157607143Y-114762095D02*
X157845238Y-114762095D01*
X157845238Y-114762095D02*
X157988095Y-114810476D01*
X158321429Y-114762095D02*
X158559524Y-115778095D01*
X158559524Y-115778095D02*
X158750000Y-115052381D01*
X158750000Y-115052381D02*
X158940476Y-115778095D01*
X158940476Y-115778095D02*
X159178572Y-114762095D01*
X160083333Y-115778095D02*
X159511905Y-115778095D01*
X159797619Y-115778095D02*
X159797619Y-114762095D01*
X159797619Y-114762095D02*
X159702381Y-114907238D01*
X159702381Y-114907238D02*
X159607143Y-115004000D01*
X159607143Y-115004000D02*
X159511905Y-115052381D01*
X187190142Y-118064095D02*
X186856809Y-117580286D01*
X186618714Y-118064095D02*
X186618714Y-117048095D01*
X186618714Y-117048095D02*
X186999666Y-117048095D01*
X186999666Y-117048095D02*
X187094904Y-117096476D01*
X187094904Y-117096476D02*
X187142523Y-117144857D01*
X187142523Y-117144857D02*
X187190142Y-117241619D01*
X187190142Y-117241619D02*
X187190142Y-117386762D01*
X187190142Y-117386762D02*
X187142523Y-117483524D01*
X187142523Y-117483524D02*
X187094904Y-117531905D01*
X187094904Y-117531905D02*
X186999666Y-117580286D01*
X186999666Y-117580286D02*
X186618714Y-117580286D01*
X188142523Y-118064095D02*
X187571095Y-118064095D01*
X187856809Y-118064095D02*
X187856809Y-117048095D01*
X187856809Y-117048095D02*
X187761571Y-117193238D01*
X187761571Y-117193238D02*
X187666333Y-117290000D01*
X187666333Y-117290000D02*
X187571095Y-117338381D01*
X188475857Y-117048095D02*
X189142523Y-117048095D01*
X189142523Y-117048095D02*
X188713952Y-118064095D01*
X212679095Y-125643666D02*
X212195286Y-125976999D01*
X212679095Y-126215094D02*
X211663095Y-126215094D01*
X211663095Y-126215094D02*
X211663095Y-125834142D01*
X211663095Y-125834142D02*
X211711476Y-125738904D01*
X211711476Y-125738904D02*
X211759857Y-125691285D01*
X211759857Y-125691285D02*
X211856619Y-125643666D01*
X211856619Y-125643666D02*
X212001762Y-125643666D01*
X212001762Y-125643666D02*
X212098524Y-125691285D01*
X212098524Y-125691285D02*
X212146905Y-125738904D01*
X212146905Y-125738904D02*
X212195286Y-125834142D01*
X212195286Y-125834142D02*
X212195286Y-126215094D01*
X211663095Y-124786523D02*
X211663095Y-124976999D01*
X211663095Y-124976999D02*
X211711476Y-125072237D01*
X211711476Y-125072237D02*
X211759857Y-125119856D01*
X211759857Y-125119856D02*
X211905000Y-125215094D01*
X211905000Y-125215094D02*
X212098524Y-125262713D01*
X212098524Y-125262713D02*
X212485572Y-125262713D01*
X212485572Y-125262713D02*
X212582334Y-125215094D01*
X212582334Y-125215094D02*
X212630715Y-125167475D01*
X212630715Y-125167475D02*
X212679095Y-125072237D01*
X212679095Y-125072237D02*
X212679095Y-124881761D01*
X212679095Y-124881761D02*
X212630715Y-124786523D01*
X212630715Y-124786523D02*
X212582334Y-124738904D01*
X212582334Y-124738904D02*
X212485572Y-124691285D01*
X212485572Y-124691285D02*
X212243667Y-124691285D01*
X212243667Y-124691285D02*
X212146905Y-124738904D01*
X212146905Y-124738904D02*
X212098524Y-124786523D01*
X212098524Y-124786523D02*
X212050143Y-124881761D01*
X212050143Y-124881761D02*
X212050143Y-125072237D01*
X212050143Y-125072237D02*
X212098524Y-125167475D01*
X212098524Y-125167475D02*
X212146905Y-125215094D01*
X212146905Y-125215094D02*
X212243667Y-125262713D01*
X205763333Y-99268095D02*
X205430000Y-98784286D01*
X205191905Y-99268095D02*
X205191905Y-98252095D01*
X205191905Y-98252095D02*
X205572857Y-98252095D01*
X205572857Y-98252095D02*
X205668095Y-98300476D01*
X205668095Y-98300476D02*
X205715714Y-98348857D01*
X205715714Y-98348857D02*
X205763333Y-98445619D01*
X205763333Y-98445619D02*
X205763333Y-98590762D01*
X205763333Y-98590762D02*
X205715714Y-98687524D01*
X205715714Y-98687524D02*
X205668095Y-98735905D01*
X205668095Y-98735905D02*
X205572857Y-98784286D01*
X205572857Y-98784286D02*
X205191905Y-98784286D01*
X206668095Y-98252095D02*
X206191905Y-98252095D01*
X206191905Y-98252095D02*
X206144286Y-98735905D01*
X206144286Y-98735905D02*
X206191905Y-98687524D01*
X206191905Y-98687524D02*
X206287143Y-98639143D01*
X206287143Y-98639143D02*
X206525238Y-98639143D01*
X206525238Y-98639143D02*
X206620476Y-98687524D01*
X206620476Y-98687524D02*
X206668095Y-98735905D01*
X206668095Y-98735905D02*
X206715714Y-98832667D01*
X206715714Y-98832667D02*
X206715714Y-99074572D01*
X206715714Y-99074572D02*
X206668095Y-99171334D01*
X206668095Y-99171334D02*
X206620476Y-99219715D01*
X206620476Y-99219715D02*
X206525238Y-99268095D01*
X206525238Y-99268095D02*
X206287143Y-99268095D01*
X206287143Y-99268095D02*
X206191905Y-99219715D01*
X206191905Y-99219715D02*
X206144286Y-99171334D01*
X241069905Y-133431095D02*
X241069905Y-132415095D01*
X241069905Y-132415095D02*
X241308000Y-132415095D01*
X241308000Y-132415095D02*
X241450857Y-132463476D01*
X241450857Y-132463476D02*
X241546095Y-132560238D01*
X241546095Y-132560238D02*
X241593714Y-132657000D01*
X241593714Y-132657000D02*
X241641333Y-132850524D01*
X241641333Y-132850524D02*
X241641333Y-132995667D01*
X241641333Y-132995667D02*
X241593714Y-133189191D01*
X241593714Y-133189191D02*
X241546095Y-133285953D01*
X241546095Y-133285953D02*
X241450857Y-133382715D01*
X241450857Y-133382715D02*
X241308000Y-133431095D01*
X241308000Y-133431095D02*
X241069905Y-133431095D01*
X242022286Y-132511857D02*
X242069905Y-132463476D01*
X242069905Y-132463476D02*
X242165143Y-132415095D01*
X242165143Y-132415095D02*
X242403238Y-132415095D01*
X242403238Y-132415095D02*
X242498476Y-132463476D01*
X242498476Y-132463476D02*
X242546095Y-132511857D01*
X242546095Y-132511857D02*
X242593714Y-132608619D01*
X242593714Y-132608619D02*
X242593714Y-132705381D01*
X242593714Y-132705381D02*
X242546095Y-132850524D01*
X242546095Y-132850524D02*
X241974667Y-133431095D01*
X241974667Y-133431095D02*
X242593714Y-133431095D01*
X221288711Y-157020404D02*
X222111188Y-157020404D01*
X222111188Y-157020404D02*
X222207950Y-156972785D01*
X222207950Y-156972785D02*
X222256331Y-156925166D01*
X222256331Y-156925166D02*
X222304711Y-156829928D01*
X222304711Y-156829928D02*
X222304711Y-156639452D01*
X222304711Y-156639452D02*
X222256331Y-156544214D01*
X222256331Y-156544214D02*
X222207950Y-156496595D01*
X222207950Y-156496595D02*
X222111188Y-156448976D01*
X222111188Y-156448976D02*
X221288711Y-156448976D01*
X221288711Y-156068023D02*
X221288711Y-155448976D01*
X221288711Y-155448976D02*
X221675759Y-155782309D01*
X221675759Y-155782309D02*
X221675759Y-155639452D01*
X221675759Y-155639452D02*
X221724140Y-155544214D01*
X221724140Y-155544214D02*
X221772521Y-155496595D01*
X221772521Y-155496595D02*
X221869283Y-155448976D01*
X221869283Y-155448976D02*
X222111188Y-155448976D01*
X222111188Y-155448976D02*
X222207950Y-155496595D01*
X222207950Y-155496595D02*
X222256331Y-155544214D01*
X222256331Y-155544214D02*
X222304711Y-155639452D01*
X222304711Y-155639452D02*
X222304711Y-155925166D01*
X222304711Y-155925166D02*
X222256331Y-156020404D01*
X222256331Y-156020404D02*
X222207950Y-156068023D01*
D11*
X177671000Y-136257420D02*
X177671000Y-136538580D01*
X178691000Y-136257420D02*
X178691000Y-136538580D01*
X190516742Y-115555500D02*
X190991258Y-115555500D01*
X190516742Y-116600500D02*
X190991258Y-116600500D01*
X214964742Y-111415300D02*
X215439258Y-111415300D01*
X214964742Y-112460300D02*
X215439258Y-112460300D01*
X198626000Y-115964580D02*
X198626000Y-115683420D01*
X199646000Y-115964580D02*
X199646000Y-115683420D01*
X210041258Y-99680500D02*
X209566742Y-99680500D01*
X210041258Y-100725500D02*
X209566742Y-100725500D01*
X158608500Y-106663258D02*
X158608500Y-106188742D01*
X159653500Y-106663258D02*
X159653500Y-106188742D01*
X190516742Y-107808500D02*
X190991258Y-107808500D01*
X190516742Y-108853500D02*
X190991258Y-108853500D01*
X190516742Y-121651500D02*
X190991258Y-121651500D01*
X190516742Y-122696500D02*
X190991258Y-122696500D01*
X247889500Y-125078258D02*
X247889500Y-124603742D01*
X248934500Y-125078258D02*
X248934500Y-124603742D01*
X190516742Y-109399500D02*
X190991258Y-109399500D01*
X190516742Y-110444500D02*
X190991258Y-110444500D01*
X184674742Y-110983500D02*
X185149258Y-110983500D01*
X184674742Y-112028500D02*
X185149258Y-112028500D01*
X184674742Y-115555500D02*
X185149258Y-115555500D01*
X184674742Y-116600500D02*
X185149258Y-116600500D01*
X219572616Y-164201000D02*
X219572616Y-162501000D01*
X228912616Y-164201000D02*
X228912616Y-162501000D01*
X167369258Y-109205500D02*
X166894742Y-109205500D01*
X167369258Y-110250500D02*
X166894742Y-110250500D01*
X216266500Y-101997742D02*
X216266500Y-102472258D01*
X217311500Y-101997742D02*
X217311500Y-102472258D01*
X190389742Y-104760500D02*
X190864258Y-104760500D01*
X190389742Y-105805500D02*
X190864258Y-105805500D01*
X196358742Y-134859500D02*
X196833258Y-134859500D01*
X196358742Y-135904500D02*
X196833258Y-135904500D01*
X212837500Y-100092742D02*
X212837500Y-100567258D01*
X213882500Y-100092742D02*
X213882500Y-100567258D01*
X221600500Y-123300258D02*
X221600500Y-122825742D01*
X222645500Y-123300258D02*
X222645500Y-122825742D01*
X247889500Y-103648742D02*
X247889500Y-104123258D01*
X248934500Y-103648742D02*
X248934500Y-104123258D01*
X208646500Y-123110258D02*
X208646500Y-122635742D01*
X209691500Y-123110258D02*
X209691500Y-122635742D01*
X233792500Y-128794742D02*
X233792500Y-129269258D01*
X234837500Y-128794742D02*
X234837500Y-129269258D01*
X190516742Y-110983500D02*
X190991258Y-110983500D01*
X190516742Y-112028500D02*
X190991258Y-112028500D01*
X177054742Y-130541500D02*
X177529258Y-130541500D01*
X177054742Y-131586500D02*
X177529258Y-131586500D01*
X173417620Y-132408200D02*
X173698780Y-132408200D01*
X173417620Y-133428200D02*
X173698780Y-133428200D01*
X201977600Y-108912000D02*
X202427600Y-108912000D01*
X201977600Y-109362000D02*
X201977600Y-108912000D01*
X201977600Y-116132000D02*
X201977600Y-115682000D01*
X202427600Y-116132000D02*
X201977600Y-116132000D01*
X208747600Y-108912000D02*
X209197600Y-108912000D01*
X209197600Y-108912000D02*
X209197600Y-109362000D01*
X209197600Y-115682000D02*
X209197600Y-116132000D01*
X209197600Y-116132000D02*
X208747600Y-116132000D01*
X202427600Y-116772000D02*
X201957600Y-117112000D01*
X201957600Y-116432000D01*
X202427600Y-116772000D01*
G36*
X202427600Y-116772000D02*
G01*
X201957600Y-117112000D01*
X201957600Y-116432000D01*
X202427600Y-116772000D01*
G37*
X190389742Y-101585500D02*
X190864258Y-101585500D01*
X190389742Y-102630500D02*
X190864258Y-102630500D01*
X196231742Y-131684500D02*
X196706258Y-131684500D01*
X196231742Y-132729500D02*
X196706258Y-132729500D01*
X221613000Y-110503580D02*
X221613000Y-110222420D01*
X222633000Y-110503580D02*
X222633000Y-110222420D01*
X190516742Y-120127500D02*
X190991258Y-120127500D01*
X190516742Y-121172500D02*
X190991258Y-121172500D01*
X215426058Y-113193300D02*
X214951542Y-113193300D01*
X215426058Y-114238300D02*
X214951542Y-114238300D01*
X190453742Y-106284500D02*
X190928258Y-106284500D01*
X190453742Y-107329500D02*
X190928258Y-107329500D01*
X215278580Y-107567000D02*
X214997420Y-107567000D01*
X215278580Y-108587000D02*
X214997420Y-108587000D01*
X220615742Y-106284500D02*
X221090258Y-106284500D01*
X220615742Y-107329500D02*
X221090258Y-107329500D01*
X199375500Y-103394742D02*
X199375500Y-103869258D01*
X200420500Y-103394742D02*
X200420500Y-103869258D01*
X190516742Y-112507500D02*
X190991258Y-112507500D01*
X190516742Y-113552500D02*
X190991258Y-113552500D01*
X215426058Y-109281700D02*
X214951542Y-109281700D01*
X215426058Y-110326700D02*
X214951542Y-110326700D01*
X198549800Y-109030380D02*
X198549800Y-108749220D01*
X199569800Y-109030380D02*
X199569800Y-108749220D01*
X190389742Y-100061500D02*
X190864258Y-100061500D01*
X190389742Y-101106500D02*
X190864258Y-101106500D01*
D10*
X160017460Y-98298000D02*
X161211260Y-98894900D01*
X160017460Y-99568000D02*
X160017460Y-98298000D01*
X161211260Y-98971100D02*
X160017460Y-99568000D01*
X162306000Y-107315000D02*
X167640000Y-107315000D01*
X167640000Y-98171000D02*
X162306000Y-98171000D01*
D11*
X175994600Y-128893180D02*
X175994600Y-128612020D01*
X177014600Y-128893180D02*
X177014600Y-128612020D01*
X210170500Y-123047258D02*
X210170500Y-122572742D01*
X211215500Y-123047258D02*
X211215500Y-122572742D01*
X175228000Y-128690000D02*
X171228000Y-128690000D01*
X175228000Y-131990000D02*
X175228000Y-128690000D01*
X190389742Y-98537500D02*
X190864258Y-98537500D01*
X190389742Y-99582500D02*
X190864258Y-99582500D01*
X167496258Y-111364500D02*
X167021742Y-111364500D01*
X167496258Y-112409500D02*
X167021742Y-112409500D01*
X170779000Y-101579000D02*
X170829000Y-101579000D01*
X170779000Y-103399000D02*
X170779000Y-101579000D01*
X170829000Y-103399000D02*
X170779000Y-103399000D01*
X171949000Y-101579000D02*
X172729000Y-101579000D01*
X173849000Y-101579000D02*
X173899000Y-101579000D01*
X173899000Y-101579000D02*
X173899000Y-103399000D01*
X173899000Y-103399000D02*
X173849000Y-103399000D01*
X170829000Y-103939000D02*
X170499000Y-104179000D01*
X170499000Y-103699000D01*
X170829000Y-103939000D01*
G36*
X170829000Y-103939000D02*
G01*
X170499000Y-104179000D01*
X170499000Y-103699000D01*
X170829000Y-103939000D01*
G37*
X215354780Y-117117400D02*
X215073620Y-117117400D01*
X215354780Y-118137400D02*
X215073620Y-118137400D01*
X176020000Y-136638420D02*
X176020000Y-136919580D01*
X177040000Y-136638420D02*
X177040000Y-136919580D01*
X201420000Y-103772580D02*
X201420000Y-103491420D01*
X202440000Y-103772580D02*
X202440000Y-103491420D01*
X207122500Y-123046258D02*
X207122500Y-122571742D01*
X208167500Y-123046258D02*
X208167500Y-122571742D01*
X222754916Y-152228558D02*
X222754916Y-151754042D01*
X223799916Y-152228558D02*
X223799916Y-151754042D01*
X190516742Y-118603500D02*
X190991258Y-118603500D01*
X190516742Y-119648500D02*
X190991258Y-119648500D01*
X214989142Y-115276100D02*
X215463658Y-115276100D01*
X214989142Y-116321100D02*
X215463658Y-116321100D01*
X190389742Y-103236500D02*
X190864258Y-103236500D01*
X190389742Y-104281500D02*
X190864258Y-104281500D01*
X221613000Y-118096420D02*
X221613000Y-118377580D01*
X222633000Y-118096420D02*
X222633000Y-118377580D01*
X214714858Y-104481100D02*
X214240342Y-104481100D01*
X214714858Y-105526100D02*
X214240342Y-105526100D01*
X224685316Y-152228558D02*
X224685316Y-151754042D01*
X225730316Y-152228558D02*
X225730316Y-151754042D01*
X177544000Y-126251580D02*
X177544000Y-125970420D01*
X178564000Y-126251580D02*
X178564000Y-125970420D01*
D10*
X161213800Y-142303500D02*
X161213800Y-150050500D01*
X161213800Y-150050500D02*
X162686724Y-150050500D01*
X162686724Y-142303500D02*
X161213800Y-142303500D01*
X164465276Y-150050500D02*
X165226724Y-150050500D01*
X165226724Y-142303500D02*
X164465276Y-142303500D01*
X167005276Y-150050500D02*
X167766724Y-150050500D01*
X167766724Y-142303500D02*
X167005276Y-142303500D01*
X169545276Y-150050500D02*
X170306724Y-150050500D01*
X170306724Y-142303500D02*
X169545276Y-142303500D01*
X172085276Y-150050500D02*
X173558200Y-150050500D01*
X173558200Y-142303500D02*
X172085276Y-142303500D01*
X173558200Y-150050500D02*
X173558200Y-142303500D01*
D11*
X218679500Y-121522258D02*
X218679500Y-121047742D01*
X219724500Y-121522258D02*
X219724500Y-121047742D01*
X161687742Y-127112500D02*
X162162258Y-127112500D01*
X161687742Y-128157500D02*
X162162258Y-128157500D01*
X226006000Y-105805400D02*
X240426000Y-105805400D01*
X226006000Y-107775400D02*
X224026000Y-107775400D01*
X226006000Y-107775400D02*
X226006000Y-105805400D01*
X226006000Y-120875400D02*
X226006000Y-122845400D01*
X226006000Y-122845400D02*
X240426000Y-122845400D01*
X245426000Y-105805400D02*
X249296000Y-105805400D01*
X245426000Y-122845400D02*
X249296000Y-122845400D01*
X249296000Y-105805400D02*
X249296000Y-122845400D01*
X196073500Y-121141258D02*
X196073500Y-120666742D01*
X197118500Y-121141258D02*
X197118500Y-120666742D01*
X238999500Y-128794742D02*
X238999500Y-129269258D01*
X240044500Y-128794742D02*
X240044500Y-129269258D01*
X190516742Y-114031500D02*
X190991258Y-114031500D01*
X190516742Y-115076500D02*
X190991258Y-115076500D01*
X161784420Y-125601000D02*
X162065580Y-125601000D01*
X161784420Y-126621000D02*
X162065580Y-126621000D01*
X181199000Y-127351000D02*
X182149000Y-127351000D01*
X181199000Y-128301000D02*
X181199000Y-127351000D01*
X181199000Y-137571000D02*
X181199000Y-136621000D01*
X182149000Y-137571000D02*
X181199000Y-137571000D01*
X190469000Y-127351000D02*
X191419000Y-127351000D01*
X191419000Y-127351000D02*
X191419000Y-128301000D01*
X191419000Y-136621000D02*
X191419000Y-137571000D01*
X191419000Y-137571000D02*
X190469000Y-137571000D01*
X180559000Y-128301000D02*
X180219000Y-127831000D01*
X180899000Y-127831000D01*
X180559000Y-128301000D01*
G36*
X180559000Y-128301000D02*
G01*
X180219000Y-127831000D01*
X180899000Y-127831000D01*
X180559000Y-128301000D01*
G37*
X203452000Y-103772580D02*
X203452000Y-103491420D01*
X204472000Y-103772580D02*
X204472000Y-103491420D01*
X161396000Y-109184000D02*
X163216000Y-109184000D01*
X161396000Y-109234000D02*
X161396000Y-109184000D01*
X161396000Y-112304000D02*
X161396000Y-112254000D01*
X163216000Y-109184000D02*
X163216000Y-109234000D01*
X163216000Y-110354000D02*
X163216000Y-111134000D01*
X163216000Y-112254000D02*
X163216000Y-112304000D01*
X163216000Y-112304000D02*
X161396000Y-112304000D01*
X160856000Y-109234000D02*
X160616000Y-108904000D01*
X161096000Y-108904000D01*
X160856000Y-109234000D01*
G36*
X160856000Y-109234000D02*
G01*
X160616000Y-108904000D01*
X161096000Y-108904000D01*
X160856000Y-109234000D01*
G37*
X157039000Y-157801000D02*
X158369000Y-157801000D01*
X157039000Y-159131000D02*
X157039000Y-157801000D01*
X157039000Y-160401000D02*
X159639000Y-160401000D01*
X157039000Y-163001000D02*
X157039000Y-160401000D01*
X157039000Y-163001000D02*
X207959000Y-163001000D01*
X159639000Y-157801000D02*
X207959000Y-157801000D01*
X159639000Y-160401000D02*
X159639000Y-157801000D01*
X207959000Y-163001000D02*
X207959000Y-157801000D01*
X196358742Y-136383500D02*
X196833258Y-136383500D01*
X196358742Y-137428500D02*
X196833258Y-137428500D01*
X155873000Y-121773000D02*
X155873000Y-119273000D01*
X156323000Y-118823000D02*
X155873000Y-119273000D01*
X156323000Y-122223000D02*
X155873000Y-121773000D01*
X157623000Y-117773000D02*
X159623000Y-117773000D01*
X157623000Y-123273000D02*
X159623000Y-123273000D01*
X160923000Y-118823000D02*
X161373000Y-119273000D01*
X160923000Y-122223000D02*
X161373000Y-121773000D01*
X161373000Y-121773000D02*
X161373000Y-119273000D01*
X190516742Y-117079500D02*
X190991258Y-117079500D01*
X190516742Y-118124500D02*
X190991258Y-118124500D01*
X211694500Y-123047258D02*
X211694500Y-122572742D01*
X212739500Y-123047258D02*
X212739500Y-122572742D01*
X206993258Y-99680500D02*
X206518742Y-99680500D01*
X206993258Y-100725500D02*
X206518742Y-100725500D01*
X238387000Y-131877000D02*
X238387000Y-135762000D01*
X238387000Y-135762000D02*
X240657000Y-135762000D01*
X240657000Y-135762000D02*
X240657000Y-131877000D01*
X222682616Y-155348500D02*
X222732616Y-155348500D01*
X222682616Y-157168500D02*
X222682616Y-155348500D01*
X222732616Y-157168500D02*
X222682616Y-157168500D01*
X225752616Y-155348500D02*
X225802616Y-155348500D01*
X225802616Y-155348500D02*
X225802616Y-157168500D01*
X225802616Y-157168500D02*
X225752616Y-157168500D01*
X222732616Y-157708500D02*
X222402616Y-157948500D01*
X222402616Y-157468500D01*
X222732616Y-157708500D01*
G36*
X222732616Y-157708500D02*
G01*
X222402616Y-157948500D01*
X222402616Y-157468500D01*
X222732616Y-157708500D01*
G37*
X233180000Y-131877000D02*
X233180000Y-135762000D01*
X233180000Y-135762000D02*
X235450000Y-135762000D01*
X235450000Y-135762000D02*
X235450000Y-131877000D01*
%LPC*%
D12*
X178181000Y-135623000D03*
X178181000Y-137173000D03*
D13*
X189929000Y-116078000D03*
X191579000Y-116078000D03*
X214377000Y-111937800D03*
X216027000Y-111937800D03*
D14*
X199136000Y-116599000D03*
X199136000Y-115049000D03*
D15*
X210629000Y-100203000D03*
X208979000Y-100203000D03*
D16*
X159131000Y-107251000D03*
X159131000Y-105601000D03*
D13*
X189929000Y-108331000D03*
X191579000Y-108331000D03*
X189929000Y-122174000D03*
X191579000Y-122174000D03*
D16*
X248412000Y-125666000D03*
X248412000Y-124016000D03*
D13*
X189929000Y-109922000D03*
X191579000Y-109922000D03*
X184087000Y-111506000D03*
X185737000Y-111506000D03*
X184087000Y-116078000D03*
X185737000Y-116078000D03*
D17*
X221352616Y-161696000D03*
X227132616Y-161696000D03*
D18*
X221042616Y-160621000D03*
X221842616Y-160621000D03*
D19*
X222992616Y-160621000D03*
X223992616Y-160621000D03*
X224492616Y-160621000D03*
X225492616Y-160621000D03*
D18*
X226642616Y-160621000D03*
X227442616Y-160621000D03*
X227442616Y-160621000D03*
X226642616Y-160621000D03*
D19*
X225992616Y-160621000D03*
X224992616Y-160621000D03*
X223492616Y-160621000D03*
X222492616Y-160621000D03*
D18*
X221842616Y-160621000D03*
X221042616Y-160621000D03*
D20*
X219922616Y-161196000D03*
D21*
X219922616Y-165376000D03*
D20*
X228562616Y-161196000D03*
D21*
X228562616Y-165376000D03*
D15*
X167957000Y-109728000D03*
X166307000Y-109728000D03*
D22*
X216789000Y-101410000D03*
X216789000Y-103060000D03*
D13*
X189802000Y-105283000D03*
X191452000Y-105283000D03*
X195771000Y-135382000D03*
X197421000Y-135382000D03*
D22*
X213360000Y-99505000D03*
X213360000Y-101155000D03*
D16*
X222123000Y-123888000D03*
X222123000Y-122238000D03*
D22*
X248412000Y-103061000D03*
X248412000Y-104711000D03*
D16*
X209169000Y-123698000D03*
X209169000Y-122048000D03*
D22*
X234315000Y-128207000D03*
X234315000Y-129857000D03*
D13*
X189929000Y-111506000D03*
X191579000Y-111506000D03*
X176467000Y-131064000D03*
X178117000Y-131064000D03*
D23*
X172783200Y-132918200D03*
X174333200Y-132918200D03*
D24*
X202837600Y-116684500D03*
X203337600Y-116684500D03*
X203837600Y-116684500D03*
X204337600Y-116684500D03*
X204837600Y-116684500D03*
X205337600Y-116684500D03*
X205837600Y-116684500D03*
X206337600Y-116684500D03*
X206837600Y-116684500D03*
X207337600Y-116684500D03*
X207837600Y-116684500D03*
X208337600Y-116684500D03*
D25*
X209750100Y-115272000D03*
X209750100Y-114772000D03*
X209750100Y-114272000D03*
X209750100Y-113772000D03*
X209750100Y-113272000D03*
X209750100Y-112772000D03*
X209750100Y-112272000D03*
X209750100Y-111772000D03*
X209750100Y-111272000D03*
X209750100Y-110772000D03*
X209750100Y-110272000D03*
X209750100Y-109772000D03*
D24*
X208337600Y-108359500D03*
X207837600Y-108359500D03*
X207337600Y-108359500D03*
X206837600Y-108359500D03*
X206337600Y-108359500D03*
X205837600Y-108359500D03*
X205337600Y-108359500D03*
X204837600Y-108359500D03*
X204337600Y-108359500D03*
X203837600Y-108359500D03*
X203337600Y-108359500D03*
X202837600Y-108359500D03*
D25*
X201425100Y-109772000D03*
X201425100Y-110272000D03*
X201425100Y-110772000D03*
X201425100Y-111272000D03*
X201425100Y-111772000D03*
X201425100Y-112272000D03*
X201425100Y-112772000D03*
X201425100Y-113272000D03*
X201425100Y-113772000D03*
X201425100Y-114272000D03*
X201425100Y-114772000D03*
X201425100Y-115272000D03*
D26*
X205587600Y-112522000D03*
D13*
X189802000Y-102108000D03*
X191452000Y-102108000D03*
X195644000Y-132207000D03*
X197294000Y-132207000D03*
D14*
X222123000Y-111138000D03*
X222123000Y-109588000D03*
D13*
X189929000Y-120650000D03*
X191579000Y-120650000D03*
D15*
X216013800Y-113715800D03*
X214363800Y-113715800D03*
D13*
X189866000Y-106807000D03*
X191516000Y-106807000D03*
D27*
X215913000Y-108077000D03*
X214363000Y-108077000D03*
D13*
X220028000Y-106807000D03*
X221678000Y-106807000D03*
D22*
X199898000Y-102807000D03*
X199898000Y-104457000D03*
D13*
X189929000Y-113030000D03*
X191579000Y-113030000D03*
D15*
X216013800Y-109804200D03*
X214363800Y-109804200D03*
D14*
X199059800Y-109664800D03*
X199059800Y-108114800D03*
D13*
X189802000Y-100584000D03*
X191452000Y-100584000D03*
D28*
X162941000Y-98933000D03*
X167005000Y-98933000D03*
X162941000Y-100203000D03*
X167005000Y-100203000D03*
X162941000Y-101473000D03*
X167005000Y-101473000D03*
X162941000Y-102743000D03*
X167005000Y-102743000D03*
X162941000Y-104013000D03*
X167005000Y-104013000D03*
X162941000Y-105283000D03*
X167005000Y-105283000D03*
X162941000Y-106553000D03*
X167005000Y-106553000D03*
D14*
X176504600Y-129527600D03*
X176504600Y-127977600D03*
D16*
X210693000Y-123635000D03*
X210693000Y-121985000D03*
D29*
X174328000Y-129540000D03*
X172128000Y-129540000D03*
X172128000Y-131140000D03*
X174328000Y-131140000D03*
D13*
X189802000Y-99060000D03*
X191452000Y-99060000D03*
D15*
X168084000Y-111887000D03*
X166434000Y-111887000D03*
D30*
X171389000Y-103626500D03*
X172339000Y-103626500D03*
X173289000Y-103626500D03*
X173289000Y-101351500D03*
X171389000Y-101351500D03*
D27*
X215989200Y-117627400D03*
X214439200Y-117627400D03*
D12*
X176530000Y-136004000D03*
X176530000Y-137554000D03*
D14*
X201930000Y-104407000D03*
X201930000Y-102857000D03*
D16*
X207645000Y-123634000D03*
X207645000Y-121984000D03*
X223277416Y-152816300D03*
X223277416Y-151166300D03*
D13*
X189929000Y-119126000D03*
X191579000Y-119126000D03*
X214401400Y-115798600D03*
X216051400Y-115798600D03*
X189802000Y-103759000D03*
X191452000Y-103759000D03*
D12*
X222123000Y-117462000D03*
X222123000Y-119012000D03*
D15*
X215302600Y-105003600D03*
X213652600Y-105003600D03*
D16*
X225207816Y-152816300D03*
X225207816Y-151166300D03*
D14*
X178054000Y-126886000D03*
X178054000Y-125336000D03*
D31*
X163576000Y-149987000D03*
X166116000Y-149987000D03*
X168656000Y-149987000D03*
X171196000Y-149987000D03*
X171196000Y-142367000D03*
X168656000Y-142367000D03*
X166116000Y-142367000D03*
X163576000Y-142367000D03*
D16*
X219202000Y-122110000D03*
X219202000Y-120460000D03*
D13*
X161100000Y-127635000D03*
X162750000Y-127635000D03*
D32*
X238426000Y-108610400D03*
X238426000Y-120040400D03*
D33*
X225776000Y-108610400D03*
X225776000Y-109880400D03*
X225776000Y-111150400D03*
X225776000Y-112420400D03*
X225776000Y-113690400D03*
X225776000Y-114960400D03*
X225776000Y-116230400D03*
X225776000Y-117500400D03*
X225776000Y-118770400D03*
X225776000Y-120040400D03*
D34*
X242926000Y-107555400D03*
X242926000Y-121095400D03*
D16*
X196596000Y-121729000D03*
X196596000Y-120079000D03*
D22*
X239522000Y-128207000D03*
X239522000Y-129857000D03*
D13*
X189929000Y-114554000D03*
X191579000Y-114554000D03*
D23*
X161150000Y-126111000D03*
X162700000Y-126111000D03*
D35*
X180634000Y-128711000D03*
X180634000Y-129211000D03*
X180634000Y-129711000D03*
X180634000Y-130211000D03*
X180634000Y-130711000D03*
X180634000Y-131211000D03*
X180634000Y-131711000D03*
X180634000Y-132211000D03*
X180634000Y-132711000D03*
X180634000Y-133211000D03*
X180634000Y-133711000D03*
X180634000Y-134211000D03*
X180634000Y-134711000D03*
X180634000Y-135211000D03*
X180634000Y-135711000D03*
X180634000Y-136211000D03*
D36*
X182559000Y-138136000D03*
X183059000Y-138136000D03*
X183559000Y-138136000D03*
X184059000Y-138136000D03*
X184559000Y-138136000D03*
X185059000Y-138136000D03*
X185559000Y-138136000D03*
X186059000Y-138136000D03*
X186559000Y-138136000D03*
X187059000Y-138136000D03*
X187559000Y-138136000D03*
X188059000Y-138136000D03*
X188559000Y-138136000D03*
X189059000Y-138136000D03*
X189559000Y-138136000D03*
X190059000Y-138136000D03*
D35*
X191984000Y-136211000D03*
X191984000Y-135711000D03*
X191984000Y-135211000D03*
X191984000Y-134711000D03*
X191984000Y-134211000D03*
X191984000Y-133711000D03*
X191984000Y-133211000D03*
X191984000Y-132711000D03*
X191984000Y-132211000D03*
X191984000Y-131711000D03*
X191984000Y-131211000D03*
X191984000Y-130711000D03*
X191984000Y-130211000D03*
X191984000Y-129711000D03*
X191984000Y-129211000D03*
X191984000Y-128711000D03*
D36*
X190059000Y-126786000D03*
X189559000Y-126786000D03*
X189059000Y-126786000D03*
X188559000Y-126786000D03*
X188059000Y-126786000D03*
X187559000Y-126786000D03*
X187059000Y-126786000D03*
X186559000Y-126786000D03*
X186059000Y-126786000D03*
X185559000Y-126786000D03*
X185059000Y-126786000D03*
X184559000Y-126786000D03*
X184059000Y-126786000D03*
X183559000Y-126786000D03*
X183059000Y-126786000D03*
X182559000Y-126786000D03*
D14*
X203962000Y-104407000D03*
X203962000Y-102857000D03*
D37*
X161168500Y-109794000D03*
X161168500Y-110744000D03*
X161168500Y-111694000D03*
X163443500Y-111694000D03*
X163443500Y-109794000D03*
D38*
X158369000Y-159131000D03*
D39*
X158369000Y-161671000D03*
X160909000Y-159131000D03*
X160909000Y-161671000D03*
X163449000Y-159131000D03*
X163449000Y-161671000D03*
X165989000Y-159131000D03*
X165989000Y-161671000D03*
X168529000Y-159131000D03*
X168529000Y-161671000D03*
X171069000Y-159131000D03*
X171069000Y-161671000D03*
X173609000Y-159131000D03*
X173609000Y-161671000D03*
X176149000Y-159131000D03*
X176149000Y-161671000D03*
X178689000Y-159131000D03*
X178689000Y-161671000D03*
X181229000Y-159131000D03*
X181229000Y-161671000D03*
X183769000Y-159131000D03*
X183769000Y-161671000D03*
X186309000Y-159131000D03*
X186309000Y-161671000D03*
X188849000Y-159131000D03*
X188849000Y-161671000D03*
X191389000Y-159131000D03*
X191389000Y-161671000D03*
X193929000Y-159131000D03*
X193929000Y-161671000D03*
X196469000Y-159131000D03*
X196469000Y-161671000D03*
X199009000Y-159131000D03*
X199009000Y-161671000D03*
X201549000Y-159131000D03*
X201549000Y-161671000D03*
X204089000Y-159131000D03*
X204089000Y-161671000D03*
X206629000Y-159131000D03*
X206629000Y-161671000D03*
D13*
X195771000Y-136906000D03*
X197421000Y-136906000D03*
D40*
X156723000Y-123673000D03*
X156723000Y-117373000D03*
X160523000Y-123673000D03*
X160523000Y-117373000D03*
D13*
X189929000Y-117602000D03*
X191579000Y-117602000D03*
D16*
X212217000Y-123635000D03*
X212217000Y-121985000D03*
D15*
X207581000Y-100203000D03*
X205931000Y-100203000D03*
D41*
X239522000Y-134877000D03*
X239522000Y-132077000D03*
D30*
X223292616Y-157396000D03*
X224242616Y-157396000D03*
X225192616Y-157396000D03*
X225192616Y-155121000D03*
X224242616Y-155121000D03*
X223292616Y-155121000D03*
D41*
X234315000Y-134877000D03*
X234315000Y-132077000D03*
%LPD*%
M02*
