G04 #@! TF.GenerationSoftware,KiCad,Pcbnew,10.0.0*
G04 #@! TF.CreationDate,2026-04-03T01:28:08-07:00*
G04 #@! TF.ProjectId,FatChudRuns,46617443-6875-4645-9275-6e732e6b6963,1.0*
G04 #@! TF.SameCoordinates,Original*
G04 #@! TF.FileFunction,Legend,Bot*
G04 #@! TF.FilePolarity,Positive*
%FSLAX46Y46*%
G04 Gerber Fmt 4.6, Leading zero omitted, Abs format (unit mm)*
G04 Created by KiCad (PCBNEW 10.0.0) date 2026-04-03 01:28:08*
%MOMM*%
%LPD*%
G01*
G04 APERTURE LIST*
G04 Aperture macros list*
%AMRoundRect*
0 Rectangle with rounded corners*
0 $1 Rounding radius*
0 $2 $3 $4 $5 $6 $7 $8 $9 X,Y pos of 4 corners*
0 Add a 4 corners polygon primitive as box body*
4,1,4,$2,$3,$4,$5,$6,$7,$8,$9,$2,$3,0*
0 Add four circle primitives for the rounded corners*
1,1,$1+$1,$2,$3*
1,1,$1+$1,$4,$5*
1,1,$1+$1,$6,$7*
1,1,$1+$1,$8,$9*
0 Add four rect primitives between the rounded corners*
20,1,$1+$1,$2,$3,$4,$5,0*
20,1,$1+$1,$4,$5,$6,$7,0*
20,1,$1+$1,$6,$7,$8,$9,0*
20,1,$1+$1,$8,$9,$2,$3,0*%
G04 Aperture macros list end*
%ADD10C,0.152400*%
%ADD11C,0.120000*%
%ADD12C,0.650000*%
%ADD13O,1.000000X2.100000*%
%ADD14O,1.000000X1.800000*%
%ADD15C,1.117600*%
%ADD16C,3.000000*%
%ADD17R,1.700000X1.700000*%
%ADD18C,1.700000*%
%ADD19RoundRect,0.225000X0.250000X-0.225000X0.250000X0.225000X-0.250000X0.225000X-0.250000X-0.225000X0*%
%ADD20RoundRect,0.225000X0.225000X0.250000X-0.225000X0.250000X-0.225000X-0.250000X0.225000X-0.250000X0*%
%ADD21RoundRect,0.200000X0.200000X0.275000X-0.200000X0.275000X-0.200000X-0.275000X0.200000X-0.275000X0*%
%ADD22RoundRect,0.200000X-0.200000X-0.275000X0.200000X-0.275000X0.200000X0.275000X-0.200000X0.275000X0*%
%ADD23R,0.952500X0.508000*%
%ADD24R,0.508000X0.952500*%
%ADD25RoundRect,0.225000X-0.250000X0.225000X-0.250000X-0.225000X0.250000X-0.225000X0.250000X0.225000X0*%
%ADD26RoundRect,0.225000X-0.225000X-0.250000X0.225000X-0.250000X0.225000X0.250000X-0.225000X0.250000X0*%
%ADD27RoundRect,0.200000X0.275000X-0.200000X0.275000X0.200000X-0.275000X0.200000X-0.275000X-0.200000X0*%
G04 APERTURE END LIST*
D10*
X231417905Y-133532695D02*
X231417905Y-132516695D01*
X231417905Y-132516695D02*
X231656000Y-132516695D01*
X231656000Y-132516695D02*
X231798857Y-132565076D01*
X231798857Y-132565076D02*
X231894095Y-132661838D01*
X231894095Y-132661838D02*
X231941714Y-132758600D01*
X231941714Y-132758600D02*
X231989333Y-132952124D01*
X231989333Y-132952124D02*
X231989333Y-133097267D01*
X231989333Y-133097267D02*
X231941714Y-133290791D01*
X231941714Y-133290791D02*
X231894095Y-133387553D01*
X231894095Y-133387553D02*
X231798857Y-133484315D01*
X231798857Y-133484315D02*
X231656000Y-133532695D01*
X231656000Y-133532695D02*
X231417905Y-133532695D01*
X232941714Y-133532695D02*
X232370286Y-133532695D01*
X232656000Y-133532695D02*
X232656000Y-132516695D01*
X232656000Y-132516695D02*
X232560762Y-132661838D01*
X232560762Y-132661838D02*
X232465524Y-132758600D01*
X232465524Y-132758600D02*
X232370286Y-132806981D01*
X209430857Y-134825334D02*
X209478476Y-134873715D01*
X209478476Y-134873715D02*
X209621333Y-134922095D01*
X209621333Y-134922095D02*
X209716571Y-134922095D01*
X209716571Y-134922095D02*
X209859428Y-134873715D01*
X209859428Y-134873715D02*
X209954666Y-134776953D01*
X209954666Y-134776953D02*
X210002285Y-134680191D01*
X210002285Y-134680191D02*
X210049904Y-134486667D01*
X210049904Y-134486667D02*
X210049904Y-134341524D01*
X210049904Y-134341524D02*
X210002285Y-134148000D01*
X210002285Y-134148000D02*
X209954666Y-134051238D01*
X209954666Y-134051238D02*
X209859428Y-133954476D01*
X209859428Y-133954476D02*
X209716571Y-133906095D01*
X209716571Y-133906095D02*
X209621333Y-133906095D01*
X209621333Y-133906095D02*
X209478476Y-133954476D01*
X209478476Y-133954476D02*
X209430857Y-134002857D01*
X209049904Y-134002857D02*
X209002285Y-133954476D01*
X209002285Y-133954476D02*
X208907047Y-133906095D01*
X208907047Y-133906095D02*
X208668952Y-133906095D01*
X208668952Y-133906095D02*
X208573714Y-133954476D01*
X208573714Y-133954476D02*
X208526095Y-134002857D01*
X208526095Y-134002857D02*
X208478476Y-134099619D01*
X208478476Y-134099619D02*
X208478476Y-134196381D01*
X208478476Y-134196381D02*
X208526095Y-134341524D01*
X208526095Y-134341524D02*
X209097523Y-134922095D01*
X209097523Y-134922095D02*
X208478476Y-134922095D01*
X207526095Y-134922095D02*
X208097523Y-134922095D01*
X207811809Y-134922095D02*
X207811809Y-133906095D01*
X207811809Y-133906095D02*
X207907047Y-134051238D01*
X207907047Y-134051238D02*
X208002285Y-134148000D01*
X208002285Y-134148000D02*
X208097523Y-134196381D01*
X162853666Y-138765095D02*
X163186999Y-138281286D01*
X163425094Y-138765095D02*
X163425094Y-137749095D01*
X163425094Y-137749095D02*
X163044142Y-137749095D01*
X163044142Y-137749095D02*
X162948904Y-137797476D01*
X162948904Y-137797476D02*
X162901285Y-137845857D01*
X162901285Y-137845857D02*
X162853666Y-137942619D01*
X162853666Y-137942619D02*
X162853666Y-138087762D01*
X162853666Y-138087762D02*
X162901285Y-138184524D01*
X162901285Y-138184524D02*
X162948904Y-138232905D01*
X162948904Y-138232905D02*
X163044142Y-138281286D01*
X163044142Y-138281286D02*
X163425094Y-138281286D01*
X162520332Y-137749095D02*
X161901285Y-137749095D01*
X161901285Y-137749095D02*
X162234618Y-138136143D01*
X162234618Y-138136143D02*
X162091761Y-138136143D01*
X162091761Y-138136143D02*
X161996523Y-138184524D01*
X161996523Y-138184524D02*
X161948904Y-138232905D01*
X161948904Y-138232905D02*
X161901285Y-138329667D01*
X161901285Y-138329667D02*
X161901285Y-138571572D01*
X161901285Y-138571572D02*
X161948904Y-138668334D01*
X161948904Y-138668334D02*
X161996523Y-138716715D01*
X161996523Y-138716715D02*
X162091761Y-138765095D01*
X162091761Y-138765095D02*
X162377475Y-138765095D01*
X162377475Y-138765095D02*
X162472713Y-138716715D01*
X162472713Y-138716715D02*
X162520332Y-138668334D01*
X230387734Y-133265942D02*
X230436115Y-133218323D01*
X230436115Y-133218323D02*
X230484495Y-133075466D01*
X230484495Y-133075466D02*
X230484495Y-132980228D01*
X230484495Y-132980228D02*
X230436115Y-132837371D01*
X230436115Y-132837371D02*
X230339353Y-132742133D01*
X230339353Y-132742133D02*
X230242591Y-132694514D01*
X230242591Y-132694514D02*
X230049067Y-132646895D01*
X230049067Y-132646895D02*
X229903924Y-132646895D01*
X229903924Y-132646895D02*
X229710400Y-132694514D01*
X229710400Y-132694514D02*
X229613638Y-132742133D01*
X229613638Y-132742133D02*
X229516876Y-132837371D01*
X229516876Y-132837371D02*
X229468495Y-132980228D01*
X229468495Y-132980228D02*
X229468495Y-133075466D01*
X229468495Y-133075466D02*
X229516876Y-133218323D01*
X229516876Y-133218323D02*
X229565257Y-133265942D01*
X229565257Y-133646895D02*
X229516876Y-133694514D01*
X229516876Y-133694514D02*
X229468495Y-133789752D01*
X229468495Y-133789752D02*
X229468495Y-134027847D01*
X229468495Y-134027847D02*
X229516876Y-134123085D01*
X229516876Y-134123085D02*
X229565257Y-134170704D01*
X229565257Y-134170704D02*
X229662019Y-134218323D01*
X229662019Y-134218323D02*
X229758781Y-134218323D01*
X229758781Y-134218323D02*
X229903924Y-134170704D01*
X229903924Y-134170704D02*
X230484495Y-133599276D01*
X230484495Y-133599276D02*
X230484495Y-134218323D01*
X229468495Y-134551657D02*
X229468495Y-135170704D01*
X229468495Y-135170704D02*
X229855543Y-134837371D01*
X229855543Y-134837371D02*
X229855543Y-134980228D01*
X229855543Y-134980228D02*
X229903924Y-135075466D01*
X229903924Y-135075466D02*
X229952305Y-135123085D01*
X229952305Y-135123085D02*
X230049067Y-135170704D01*
X230049067Y-135170704D02*
X230290972Y-135170704D01*
X230290972Y-135170704D02*
X230387734Y-135123085D01*
X230387734Y-135123085D02*
X230436115Y-135075466D01*
X230436115Y-135075466D02*
X230484495Y-134980228D01*
X230484495Y-134980228D02*
X230484495Y-134694514D01*
X230484495Y-134694514D02*
X230436115Y-134599276D01*
X230436115Y-134599276D02*
X230387734Y-134551657D01*
X229584473Y-155492095D02*
X229917806Y-155008286D01*
X230155901Y-155492095D02*
X230155901Y-154476095D01*
X230155901Y-154476095D02*
X229774949Y-154476095D01*
X229774949Y-154476095D02*
X229679711Y-154524476D01*
X229679711Y-154524476D02*
X229632092Y-154572857D01*
X229632092Y-154572857D02*
X229584473Y-154669619D01*
X229584473Y-154669619D02*
X229584473Y-154814762D01*
X229584473Y-154814762D02*
X229632092Y-154911524D01*
X229632092Y-154911524D02*
X229679711Y-154959905D01*
X229679711Y-154959905D02*
X229774949Y-155008286D01*
X229774949Y-155008286D02*
X230155901Y-155008286D01*
X228727330Y-154814762D02*
X228727330Y-155492095D01*
X228965425Y-154427715D02*
X229203520Y-155153429D01*
X229203520Y-155153429D02*
X228584473Y-155153429D01*
X228298758Y-154476095D02*
X227632092Y-154476095D01*
X227632092Y-154476095D02*
X228060663Y-155492095D01*
X218397057Y-111129895D02*
X218730390Y-110646086D01*
X218968485Y-111129895D02*
X218968485Y-110113895D01*
X218968485Y-110113895D02*
X218587533Y-110113895D01*
X218587533Y-110113895D02*
X218492295Y-110162276D01*
X218492295Y-110162276D02*
X218444676Y-110210657D01*
X218444676Y-110210657D02*
X218397057Y-110307419D01*
X218397057Y-110307419D02*
X218397057Y-110452562D01*
X218397057Y-110452562D02*
X218444676Y-110549324D01*
X218444676Y-110549324D02*
X218492295Y-110597705D01*
X218492295Y-110597705D02*
X218587533Y-110646086D01*
X218587533Y-110646086D02*
X218968485Y-110646086D01*
X217539914Y-110452562D02*
X217539914Y-111129895D01*
X217778009Y-110065515D02*
X218016104Y-110791229D01*
X218016104Y-110791229D02*
X217397057Y-110791229D01*
X216587533Y-110113895D02*
X216778009Y-110113895D01*
X216778009Y-110113895D02*
X216873247Y-110162276D01*
X216873247Y-110162276D02*
X216920866Y-110210657D01*
X216920866Y-110210657D02*
X217016104Y-110355800D01*
X217016104Y-110355800D02*
X217063723Y-110549324D01*
X217063723Y-110549324D02*
X217063723Y-110936372D01*
X217063723Y-110936372D02*
X217016104Y-111033134D01*
X217016104Y-111033134D02*
X216968485Y-111081515D01*
X216968485Y-111081515D02*
X216873247Y-111129895D01*
X216873247Y-111129895D02*
X216682771Y-111129895D01*
X216682771Y-111129895D02*
X216587533Y-111081515D01*
X216587533Y-111081515D02*
X216539914Y-111033134D01*
X216539914Y-111033134D02*
X216492295Y-110936372D01*
X216492295Y-110936372D02*
X216492295Y-110694467D01*
X216492295Y-110694467D02*
X216539914Y-110597705D01*
X216539914Y-110597705D02*
X216587533Y-110549324D01*
X216587533Y-110549324D02*
X216682771Y-110500943D01*
X216682771Y-110500943D02*
X216873247Y-110500943D01*
X216873247Y-110500943D02*
X216968485Y-110549324D01*
X216968485Y-110549324D02*
X217016104Y-110597705D01*
X217016104Y-110597705D02*
X217063723Y-110694467D01*
X223519904Y-128478095D02*
X223519904Y-129300572D01*
X223519904Y-129300572D02*
X223472285Y-129397334D01*
X223472285Y-129397334D02*
X223424666Y-129445715D01*
X223424666Y-129445715D02*
X223329428Y-129494095D01*
X223329428Y-129494095D02*
X223138952Y-129494095D01*
X223138952Y-129494095D02*
X223043714Y-129445715D01*
X223043714Y-129445715D02*
X222996095Y-129397334D01*
X222996095Y-129397334D02*
X222948476Y-129300572D01*
X222948476Y-129300572D02*
X222948476Y-128478095D01*
X222043714Y-128816762D02*
X222043714Y-129494095D01*
X222281809Y-128429715D02*
X222519904Y-129155429D01*
X222519904Y-129155429D02*
X221900857Y-129155429D01*
X227380799Y-129290895D02*
X227380799Y-129532800D01*
X227618894Y-129436038D02*
X227380799Y-129532800D01*
X227380799Y-129532800D02*
X227142704Y-129436038D01*
X227523656Y-129726324D02*
X227380799Y-129532800D01*
X227380799Y-129532800D02*
X227237942Y-129726324D01*
X220048057Y-112857095D02*
X220381390Y-112373286D01*
X220619485Y-112857095D02*
X220619485Y-111841095D01*
X220619485Y-111841095D02*
X220238533Y-111841095D01*
X220238533Y-111841095D02*
X220143295Y-111889476D01*
X220143295Y-111889476D02*
X220095676Y-111937857D01*
X220095676Y-111937857D02*
X220048057Y-112034619D01*
X220048057Y-112034619D02*
X220048057Y-112179762D01*
X220048057Y-112179762D02*
X220095676Y-112276524D01*
X220095676Y-112276524D02*
X220143295Y-112324905D01*
X220143295Y-112324905D02*
X220238533Y-112373286D01*
X220238533Y-112373286D02*
X220619485Y-112373286D01*
X219714723Y-111841095D02*
X219095676Y-111841095D01*
X219095676Y-111841095D02*
X219429009Y-112228143D01*
X219429009Y-112228143D02*
X219286152Y-112228143D01*
X219286152Y-112228143D02*
X219190914Y-112276524D01*
X219190914Y-112276524D02*
X219143295Y-112324905D01*
X219143295Y-112324905D02*
X219095676Y-112421667D01*
X219095676Y-112421667D02*
X219095676Y-112663572D01*
X219095676Y-112663572D02*
X219143295Y-112760334D01*
X219143295Y-112760334D02*
X219190914Y-112808715D01*
X219190914Y-112808715D02*
X219286152Y-112857095D01*
X219286152Y-112857095D02*
X219571866Y-112857095D01*
X219571866Y-112857095D02*
X219667104Y-112808715D01*
X219667104Y-112808715D02*
X219714723Y-112760334D01*
X218762342Y-111841095D02*
X218095676Y-111841095D01*
X218095676Y-111841095D02*
X218524247Y-112857095D01*
X158942066Y-130205295D02*
X159275399Y-129721486D01*
X159513494Y-130205295D02*
X159513494Y-129189295D01*
X159513494Y-129189295D02*
X159132542Y-129189295D01*
X159132542Y-129189295D02*
X159037304Y-129237676D01*
X159037304Y-129237676D02*
X158989685Y-129286057D01*
X158989685Y-129286057D02*
X158942066Y-129382819D01*
X158942066Y-129382819D02*
X158942066Y-129527962D01*
X158942066Y-129527962D02*
X158989685Y-129624724D01*
X158989685Y-129624724D02*
X159037304Y-129673105D01*
X159037304Y-129673105D02*
X159132542Y-129721486D01*
X159132542Y-129721486D02*
X159513494Y-129721486D01*
X157989685Y-130205295D02*
X158561113Y-130205295D01*
X158275399Y-130205295D02*
X158275399Y-129189295D01*
X158275399Y-129189295D02*
X158370637Y-129334438D01*
X158370637Y-129334438D02*
X158465875Y-129431200D01*
X158465875Y-129431200D02*
X158561113Y-129479581D01*
X203662095Y-138303095D02*
X204484572Y-138303095D01*
X204484572Y-138303095D02*
X204581334Y-138350714D01*
X204581334Y-138350714D02*
X204629715Y-138398333D01*
X204629715Y-138398333D02*
X204678095Y-138493571D01*
X204678095Y-138493571D02*
X204678095Y-138684047D01*
X204678095Y-138684047D02*
X204629715Y-138779285D01*
X204629715Y-138779285D02*
X204581334Y-138826904D01*
X204581334Y-138826904D02*
X204484572Y-138874523D01*
X204484572Y-138874523D02*
X203662095Y-138874523D01*
X203662095Y-139779285D02*
X203662095Y-139588809D01*
X203662095Y-139588809D02*
X203710476Y-139493571D01*
X203710476Y-139493571D02*
X203758857Y-139445952D01*
X203758857Y-139445952D02*
X203904000Y-139350714D01*
X203904000Y-139350714D02*
X204097524Y-139303095D01*
X204097524Y-139303095D02*
X204484572Y-139303095D01*
X204484572Y-139303095D02*
X204581334Y-139350714D01*
X204581334Y-139350714D02*
X204629715Y-139398333D01*
X204629715Y-139398333D02*
X204678095Y-139493571D01*
X204678095Y-139493571D02*
X204678095Y-139684047D01*
X204678095Y-139684047D02*
X204629715Y-139779285D01*
X204629715Y-139779285D02*
X204581334Y-139826904D01*
X204581334Y-139826904D02*
X204484572Y-139874523D01*
X204484572Y-139874523D02*
X204242667Y-139874523D01*
X204242667Y-139874523D02*
X204145905Y-139826904D01*
X204145905Y-139826904D02*
X204097524Y-139779285D01*
X204097524Y-139779285D02*
X204049143Y-139684047D01*
X204049143Y-139684047D02*
X204049143Y-139493571D01*
X204049143Y-139493571D02*
X204097524Y-139398333D01*
X204097524Y-139398333D02*
X204145905Y-139350714D01*
X204145905Y-139350714D02*
X204242667Y-139303095D01*
X204329095Y-137407650D02*
X204571000Y-137407650D01*
X204474238Y-137169555D02*
X204571000Y-137407650D01*
X204571000Y-137407650D02*
X204474238Y-137645745D01*
X204764524Y-137264793D02*
X204571000Y-137407650D01*
X204571000Y-137407650D02*
X204764524Y-137550507D01*
X210923734Y-114203542D02*
X210972115Y-114155923D01*
X210972115Y-114155923D02*
X211020495Y-114013066D01*
X211020495Y-114013066D02*
X211020495Y-113917828D01*
X211020495Y-113917828D02*
X210972115Y-113774971D01*
X210972115Y-113774971D02*
X210875353Y-113679733D01*
X210875353Y-113679733D02*
X210778591Y-113632114D01*
X210778591Y-113632114D02*
X210585067Y-113584495D01*
X210585067Y-113584495D02*
X210439924Y-113584495D01*
X210439924Y-113584495D02*
X210246400Y-113632114D01*
X210246400Y-113632114D02*
X210149638Y-113679733D01*
X210149638Y-113679733D02*
X210052876Y-113774971D01*
X210052876Y-113774971D02*
X210004495Y-113917828D01*
X210004495Y-113917828D02*
X210004495Y-114013066D01*
X210004495Y-114013066D02*
X210052876Y-114155923D01*
X210052876Y-114155923D02*
X210101257Y-114203542D01*
X211020495Y-115155923D02*
X211020495Y-114584495D01*
X211020495Y-114870209D02*
X210004495Y-114870209D01*
X210004495Y-114870209D02*
X210149638Y-114774971D01*
X210149638Y-114774971D02*
X210246400Y-114679733D01*
X210246400Y-114679733D02*
X210294781Y-114584495D01*
X210004495Y-115489257D02*
X210004495Y-116108304D01*
X210004495Y-116108304D02*
X210391543Y-115774971D01*
X210391543Y-115774971D02*
X210391543Y-115917828D01*
X210391543Y-115917828D02*
X210439924Y-116013066D01*
X210439924Y-116013066D02*
X210488305Y-116060685D01*
X210488305Y-116060685D02*
X210585067Y-116108304D01*
X210585067Y-116108304D02*
X210826972Y-116108304D01*
X210826972Y-116108304D02*
X210923734Y-116060685D01*
X210923734Y-116060685D02*
X210972115Y-116013066D01*
X210972115Y-116013066D02*
X211020495Y-115917828D01*
X211020495Y-115917828D02*
X211020495Y-115632114D01*
X211020495Y-115632114D02*
X210972115Y-115536876D01*
X210972115Y-115536876D02*
X210923734Y-115489257D01*
X181014666Y-139397334D02*
X181062285Y-139445715D01*
X181062285Y-139445715D02*
X181205142Y-139494095D01*
X181205142Y-139494095D02*
X181300380Y-139494095D01*
X181300380Y-139494095D02*
X181443237Y-139445715D01*
X181443237Y-139445715D02*
X181538475Y-139348953D01*
X181538475Y-139348953D02*
X181586094Y-139252191D01*
X181586094Y-139252191D02*
X181633713Y-139058667D01*
X181633713Y-139058667D02*
X181633713Y-138913524D01*
X181633713Y-138913524D02*
X181586094Y-138720000D01*
X181586094Y-138720000D02*
X181538475Y-138623238D01*
X181538475Y-138623238D02*
X181443237Y-138526476D01*
X181443237Y-138526476D02*
X181300380Y-138478095D01*
X181300380Y-138478095D02*
X181205142Y-138478095D01*
X181205142Y-138478095D02*
X181062285Y-138526476D01*
X181062285Y-138526476D02*
X181014666Y-138574857D01*
X180157523Y-138478095D02*
X180347999Y-138478095D01*
X180347999Y-138478095D02*
X180443237Y-138526476D01*
X180443237Y-138526476D02*
X180490856Y-138574857D01*
X180490856Y-138574857D02*
X180586094Y-138720000D01*
X180586094Y-138720000D02*
X180633713Y-138913524D01*
X180633713Y-138913524D02*
X180633713Y-139300572D01*
X180633713Y-139300572D02*
X180586094Y-139397334D01*
X180586094Y-139397334D02*
X180538475Y-139445715D01*
X180538475Y-139445715D02*
X180443237Y-139494095D01*
X180443237Y-139494095D02*
X180252761Y-139494095D01*
X180252761Y-139494095D02*
X180157523Y-139445715D01*
X180157523Y-139445715D02*
X180109904Y-139397334D01*
X180109904Y-139397334D02*
X180062285Y-139300572D01*
X180062285Y-139300572D02*
X180062285Y-139058667D01*
X180062285Y-139058667D02*
X180109904Y-138961905D01*
X180109904Y-138961905D02*
X180157523Y-138913524D01*
X180157523Y-138913524D02*
X180252761Y-138865143D01*
X180252761Y-138865143D02*
X180443237Y-138865143D01*
X180443237Y-138865143D02*
X180538475Y-138913524D01*
X180538475Y-138913524D02*
X180586094Y-138961905D01*
X180586094Y-138961905D02*
X180633713Y-139058667D01*
X206382857Y-106156334D02*
X206430476Y-106204715D01*
X206430476Y-106204715D02*
X206573333Y-106253095D01*
X206573333Y-106253095D02*
X206668571Y-106253095D01*
X206668571Y-106253095D02*
X206811428Y-106204715D01*
X206811428Y-106204715D02*
X206906666Y-106107953D01*
X206906666Y-106107953D02*
X206954285Y-106011191D01*
X206954285Y-106011191D02*
X207001904Y-105817667D01*
X207001904Y-105817667D02*
X207001904Y-105672524D01*
X207001904Y-105672524D02*
X206954285Y-105479000D01*
X206954285Y-105479000D02*
X206906666Y-105382238D01*
X206906666Y-105382238D02*
X206811428Y-105285476D01*
X206811428Y-105285476D02*
X206668571Y-105237095D01*
X206668571Y-105237095D02*
X206573333Y-105237095D01*
X206573333Y-105237095D02*
X206430476Y-105285476D01*
X206430476Y-105285476D02*
X206382857Y-105333857D01*
X205430476Y-106253095D02*
X206001904Y-106253095D01*
X205716190Y-106253095D02*
X205716190Y-105237095D01*
X205716190Y-105237095D02*
X205811428Y-105382238D01*
X205811428Y-105382238D02*
X205906666Y-105479000D01*
X205906666Y-105479000D02*
X206001904Y-105527381D01*
X204478095Y-106253095D02*
X205049523Y-106253095D01*
X204763809Y-106253095D02*
X204763809Y-105237095D01*
X204763809Y-105237095D02*
X204859047Y-105382238D01*
X204859047Y-105382238D02*
X204954285Y-105479000D01*
X204954285Y-105479000D02*
X205049523Y-105527381D01*
X228099857Y-126476334D02*
X228147476Y-126524715D01*
X228147476Y-126524715D02*
X228290333Y-126573095D01*
X228290333Y-126573095D02*
X228385571Y-126573095D01*
X228385571Y-126573095D02*
X228528428Y-126524715D01*
X228528428Y-126524715D02*
X228623666Y-126427953D01*
X228623666Y-126427953D02*
X228671285Y-126331191D01*
X228671285Y-126331191D02*
X228718904Y-126137667D01*
X228718904Y-126137667D02*
X228718904Y-125992524D01*
X228718904Y-125992524D02*
X228671285Y-125799000D01*
X228671285Y-125799000D02*
X228623666Y-125702238D01*
X228623666Y-125702238D02*
X228528428Y-125605476D01*
X228528428Y-125605476D02*
X228385571Y-125557095D01*
X228385571Y-125557095D02*
X228290333Y-125557095D01*
X228290333Y-125557095D02*
X228147476Y-125605476D01*
X228147476Y-125605476D02*
X228099857Y-125653857D01*
X227718904Y-125653857D02*
X227671285Y-125605476D01*
X227671285Y-125605476D02*
X227576047Y-125557095D01*
X227576047Y-125557095D02*
X227337952Y-125557095D01*
X227337952Y-125557095D02*
X227242714Y-125605476D01*
X227242714Y-125605476D02*
X227195095Y-125653857D01*
X227195095Y-125653857D02*
X227147476Y-125750619D01*
X227147476Y-125750619D02*
X227147476Y-125847381D01*
X227147476Y-125847381D02*
X227195095Y-125992524D01*
X227195095Y-125992524D02*
X227766523Y-126573095D01*
X227766523Y-126573095D02*
X227147476Y-126573095D01*
X226290333Y-125895762D02*
X226290333Y-126573095D01*
X226528428Y-125508715D02*
X226766523Y-126234429D01*
X226766523Y-126234429D02*
X226147476Y-126234429D01*
X198286666Y-139938334D02*
X198334285Y-139986715D01*
X198334285Y-139986715D02*
X198477142Y-140035095D01*
X198477142Y-140035095D02*
X198572380Y-140035095D01*
X198572380Y-140035095D02*
X198715237Y-139986715D01*
X198715237Y-139986715D02*
X198810475Y-139889953D01*
X198810475Y-139889953D02*
X198858094Y-139793191D01*
X198858094Y-139793191D02*
X198905713Y-139599667D01*
X198905713Y-139599667D02*
X198905713Y-139454524D01*
X198905713Y-139454524D02*
X198858094Y-139261000D01*
X198858094Y-139261000D02*
X198810475Y-139164238D01*
X198810475Y-139164238D02*
X198715237Y-139067476D01*
X198715237Y-139067476D02*
X198572380Y-139019095D01*
X198572380Y-139019095D02*
X198477142Y-139019095D01*
X198477142Y-139019095D02*
X198334285Y-139067476D01*
X198334285Y-139067476D02*
X198286666Y-139115857D01*
X197334285Y-140035095D02*
X197905713Y-140035095D01*
X197619999Y-140035095D02*
X197619999Y-139019095D01*
X197619999Y-139019095D02*
X197715237Y-139164238D01*
X197715237Y-139164238D02*
X197810475Y-139261000D01*
X197810475Y-139261000D02*
X197905713Y-139309381D01*
X163107666Y-140416095D02*
X163440999Y-139932286D01*
X163679094Y-140416095D02*
X163679094Y-139400095D01*
X163679094Y-139400095D02*
X163298142Y-139400095D01*
X163298142Y-139400095D02*
X163202904Y-139448476D01*
X163202904Y-139448476D02*
X163155285Y-139496857D01*
X163155285Y-139496857D02*
X163107666Y-139593619D01*
X163107666Y-139593619D02*
X163107666Y-139738762D01*
X163107666Y-139738762D02*
X163155285Y-139835524D01*
X163155285Y-139835524D02*
X163202904Y-139883905D01*
X163202904Y-139883905D02*
X163298142Y-139932286D01*
X163298142Y-139932286D02*
X163679094Y-139932286D01*
X162726713Y-139496857D02*
X162679094Y-139448476D01*
X162679094Y-139448476D02*
X162583856Y-139400095D01*
X162583856Y-139400095D02*
X162345761Y-139400095D01*
X162345761Y-139400095D02*
X162250523Y-139448476D01*
X162250523Y-139448476D02*
X162202904Y-139496857D01*
X162202904Y-139496857D02*
X162155285Y-139593619D01*
X162155285Y-139593619D02*
X162155285Y-139690381D01*
X162155285Y-139690381D02*
X162202904Y-139835524D01*
X162202904Y-139835524D02*
X162774332Y-140416095D01*
X162774332Y-140416095D02*
X162155285Y-140416095D01*
X205493857Y-134858334D02*
X205541476Y-134906715D01*
X205541476Y-134906715D02*
X205684333Y-134955095D01*
X205684333Y-134955095D02*
X205779571Y-134955095D01*
X205779571Y-134955095D02*
X205922428Y-134906715D01*
X205922428Y-134906715D02*
X206017666Y-134809953D01*
X206017666Y-134809953D02*
X206065285Y-134713191D01*
X206065285Y-134713191D02*
X206112904Y-134519667D01*
X206112904Y-134519667D02*
X206112904Y-134374524D01*
X206112904Y-134374524D02*
X206065285Y-134181000D01*
X206065285Y-134181000D02*
X206017666Y-134084238D01*
X206017666Y-134084238D02*
X205922428Y-133987476D01*
X205922428Y-133987476D02*
X205779571Y-133939095D01*
X205779571Y-133939095D02*
X205684333Y-133939095D01*
X205684333Y-133939095D02*
X205541476Y-133987476D01*
X205541476Y-133987476D02*
X205493857Y-134035857D01*
X205112904Y-134035857D02*
X205065285Y-133987476D01*
X205065285Y-133987476D02*
X204970047Y-133939095D01*
X204970047Y-133939095D02*
X204731952Y-133939095D01*
X204731952Y-133939095D02*
X204636714Y-133987476D01*
X204636714Y-133987476D02*
X204589095Y-134035857D01*
X204589095Y-134035857D02*
X204541476Y-134132619D01*
X204541476Y-134132619D02*
X204541476Y-134229381D01*
X204541476Y-134229381D02*
X204589095Y-134374524D01*
X204589095Y-134374524D02*
X205160523Y-134955095D01*
X205160523Y-134955095D02*
X204541476Y-134955095D01*
X204160523Y-134035857D02*
X204112904Y-133987476D01*
X204112904Y-133987476D02*
X204017666Y-133939095D01*
X204017666Y-133939095D02*
X203779571Y-133939095D01*
X203779571Y-133939095D02*
X203684333Y-133987476D01*
X203684333Y-133987476D02*
X203636714Y-134035857D01*
X203636714Y-134035857D02*
X203589095Y-134132619D01*
X203589095Y-134132619D02*
X203589095Y-134229381D01*
X203589095Y-134229381D02*
X203636714Y-134374524D01*
X203636714Y-134374524D02*
X204208142Y-134955095D01*
X204208142Y-134955095D02*
X203589095Y-134955095D01*
X193118334Y-126960333D02*
X193166715Y-126912714D01*
X193166715Y-126912714D02*
X193215095Y-126769857D01*
X193215095Y-126769857D02*
X193215095Y-126674619D01*
X193215095Y-126674619D02*
X193166715Y-126531762D01*
X193166715Y-126531762D02*
X193069953Y-126436524D01*
X193069953Y-126436524D02*
X192973191Y-126388905D01*
X192973191Y-126388905D02*
X192779667Y-126341286D01*
X192779667Y-126341286D02*
X192634524Y-126341286D01*
X192634524Y-126341286D02*
X192441000Y-126388905D01*
X192441000Y-126388905D02*
X192344238Y-126436524D01*
X192344238Y-126436524D02*
X192247476Y-126531762D01*
X192247476Y-126531762D02*
X192199095Y-126674619D01*
X192199095Y-126674619D02*
X192199095Y-126769857D01*
X192199095Y-126769857D02*
X192247476Y-126912714D01*
X192247476Y-126912714D02*
X192295857Y-126960333D01*
X192199095Y-127865095D02*
X192199095Y-127388905D01*
X192199095Y-127388905D02*
X192682905Y-127341286D01*
X192682905Y-127341286D02*
X192634524Y-127388905D01*
X192634524Y-127388905D02*
X192586143Y-127484143D01*
X192586143Y-127484143D02*
X192586143Y-127722238D01*
X192586143Y-127722238D02*
X192634524Y-127817476D01*
X192634524Y-127817476D02*
X192682905Y-127865095D01*
X192682905Y-127865095D02*
X192779667Y-127912714D01*
X192779667Y-127912714D02*
X193021572Y-127912714D01*
X193021572Y-127912714D02*
X193118334Y-127865095D01*
X193118334Y-127865095D02*
X193166715Y-127817476D01*
X193166715Y-127817476D02*
X193215095Y-127722238D01*
X193215095Y-127722238D02*
X193215095Y-127484143D01*
X193215095Y-127484143D02*
X193166715Y-127388905D01*
X193166715Y-127388905D02*
X193118334Y-127341286D01*
X179744666Y-123809334D02*
X179792285Y-123857715D01*
X179792285Y-123857715D02*
X179935142Y-123906095D01*
X179935142Y-123906095D02*
X180030380Y-123906095D01*
X180030380Y-123906095D02*
X180173237Y-123857715D01*
X180173237Y-123857715D02*
X180268475Y-123760953D01*
X180268475Y-123760953D02*
X180316094Y-123664191D01*
X180316094Y-123664191D02*
X180363713Y-123470667D01*
X180363713Y-123470667D02*
X180363713Y-123325524D01*
X180363713Y-123325524D02*
X180316094Y-123132000D01*
X180316094Y-123132000D02*
X180268475Y-123035238D01*
X180268475Y-123035238D02*
X180173237Y-122938476D01*
X180173237Y-122938476D02*
X180030380Y-122890095D01*
X180030380Y-122890095D02*
X179935142Y-122890095D01*
X179935142Y-122890095D02*
X179792285Y-122938476D01*
X179792285Y-122938476D02*
X179744666Y-122986857D01*
X178887523Y-123228762D02*
X178887523Y-123906095D01*
X179125618Y-122841715D02*
X179363713Y-123567429D01*
X179363713Y-123567429D02*
X178744666Y-123567429D01*
X219424473Y-155619095D02*
X219757806Y-155135286D01*
X219995901Y-155619095D02*
X219995901Y-154603095D01*
X219995901Y-154603095D02*
X219614949Y-154603095D01*
X219614949Y-154603095D02*
X219519711Y-154651476D01*
X219519711Y-154651476D02*
X219472092Y-154699857D01*
X219472092Y-154699857D02*
X219424473Y-154796619D01*
X219424473Y-154796619D02*
X219424473Y-154941762D01*
X219424473Y-154941762D02*
X219472092Y-155038524D01*
X219472092Y-155038524D02*
X219519711Y-155086905D01*
X219519711Y-155086905D02*
X219614949Y-155135286D01*
X219614949Y-155135286D02*
X219995901Y-155135286D01*
X218567330Y-154941762D02*
X218567330Y-155619095D01*
X218805425Y-154554715D02*
X219043520Y-155280429D01*
X219043520Y-155280429D02*
X218424473Y-155280429D01*
X217900663Y-155038524D02*
X217995901Y-154990143D01*
X217995901Y-154990143D02*
X218043520Y-154941762D01*
X218043520Y-154941762D02*
X218091139Y-154845000D01*
X218091139Y-154845000D02*
X218091139Y-154796619D01*
X218091139Y-154796619D02*
X218043520Y-154699857D01*
X218043520Y-154699857D02*
X217995901Y-154651476D01*
X217995901Y-154651476D02*
X217900663Y-154603095D01*
X217900663Y-154603095D02*
X217710187Y-154603095D01*
X217710187Y-154603095D02*
X217614949Y-154651476D01*
X217614949Y-154651476D02*
X217567330Y-154699857D01*
X217567330Y-154699857D02*
X217519711Y-154796619D01*
X217519711Y-154796619D02*
X217519711Y-154845000D01*
X217519711Y-154845000D02*
X217567330Y-154941762D01*
X217567330Y-154941762D02*
X217614949Y-154990143D01*
X217614949Y-154990143D02*
X217710187Y-155038524D01*
X217710187Y-155038524D02*
X217900663Y-155038524D01*
X217900663Y-155038524D02*
X217995901Y-155086905D01*
X217995901Y-155086905D02*
X218043520Y-155135286D01*
X218043520Y-155135286D02*
X218091139Y-155232048D01*
X218091139Y-155232048D02*
X218091139Y-155425572D01*
X218091139Y-155425572D02*
X218043520Y-155522334D01*
X218043520Y-155522334D02*
X217995901Y-155570715D01*
X217995901Y-155570715D02*
X217900663Y-155619095D01*
X217900663Y-155619095D02*
X217710187Y-155619095D01*
X217710187Y-155619095D02*
X217614949Y-155570715D01*
X217614949Y-155570715D02*
X217567330Y-155522334D01*
X217567330Y-155522334D02*
X217519711Y-155425572D01*
X217519711Y-155425572D02*
X217519711Y-155232048D01*
X217519711Y-155232048D02*
X217567330Y-155135286D01*
X217567330Y-155135286D02*
X217614949Y-155086905D01*
X217614949Y-155086905D02*
X217710187Y-155038524D01*
X202933095Y-140581142D02*
X202449286Y-140247809D01*
X202933095Y-140009714D02*
X201917095Y-140009714D01*
X201917095Y-140009714D02*
X201917095Y-140390666D01*
X201917095Y-140390666D02*
X201965476Y-140485904D01*
X201965476Y-140485904D02*
X202013857Y-140533523D01*
X202013857Y-140533523D02*
X202110619Y-140581142D01*
X202110619Y-140581142D02*
X202255762Y-140581142D01*
X202255762Y-140581142D02*
X202352524Y-140533523D01*
X202352524Y-140533523D02*
X202400905Y-140485904D01*
X202400905Y-140485904D02*
X202449286Y-140390666D01*
X202449286Y-140390666D02*
X202449286Y-140009714D01*
X201917095Y-141485904D02*
X201917095Y-141009714D01*
X201917095Y-141009714D02*
X202400905Y-140962095D01*
X202400905Y-140962095D02*
X202352524Y-141009714D01*
X202352524Y-141009714D02*
X202304143Y-141104952D01*
X202304143Y-141104952D02*
X202304143Y-141343047D01*
X202304143Y-141343047D02*
X202352524Y-141438285D01*
X202352524Y-141438285D02*
X202400905Y-141485904D01*
X202400905Y-141485904D02*
X202497667Y-141533523D01*
X202497667Y-141533523D02*
X202739572Y-141533523D01*
X202739572Y-141533523D02*
X202836334Y-141485904D01*
X202836334Y-141485904D02*
X202884715Y-141438285D01*
X202884715Y-141438285D02*
X202933095Y-141343047D01*
X202933095Y-141343047D02*
X202933095Y-141104952D01*
X202933095Y-141104952D02*
X202884715Y-141009714D01*
X202884715Y-141009714D02*
X202836334Y-140962095D01*
X201917095Y-141866857D02*
X201917095Y-142485904D01*
X201917095Y-142485904D02*
X202304143Y-142152571D01*
X202304143Y-142152571D02*
X202304143Y-142295428D01*
X202304143Y-142295428D02*
X202352524Y-142390666D01*
X202352524Y-142390666D02*
X202400905Y-142438285D01*
X202400905Y-142438285D02*
X202497667Y-142485904D01*
X202497667Y-142485904D02*
X202739572Y-142485904D01*
X202739572Y-142485904D02*
X202836334Y-142438285D01*
X202836334Y-142438285D02*
X202884715Y-142390666D01*
X202884715Y-142390666D02*
X202933095Y-142295428D01*
X202933095Y-142295428D02*
X202933095Y-142009714D01*
X202933095Y-142009714D02*
X202884715Y-141914476D01*
X202884715Y-141914476D02*
X202836334Y-141866857D01*
X209303857Y-106029334D02*
X209351476Y-106077715D01*
X209351476Y-106077715D02*
X209494333Y-106126095D01*
X209494333Y-106126095D02*
X209589571Y-106126095D01*
X209589571Y-106126095D02*
X209732428Y-106077715D01*
X209732428Y-106077715D02*
X209827666Y-105980953D01*
X209827666Y-105980953D02*
X209875285Y-105884191D01*
X209875285Y-105884191D02*
X209922904Y-105690667D01*
X209922904Y-105690667D02*
X209922904Y-105545524D01*
X209922904Y-105545524D02*
X209875285Y-105352000D01*
X209875285Y-105352000D02*
X209827666Y-105255238D01*
X209827666Y-105255238D02*
X209732428Y-105158476D01*
X209732428Y-105158476D02*
X209589571Y-105110095D01*
X209589571Y-105110095D02*
X209494333Y-105110095D01*
X209494333Y-105110095D02*
X209351476Y-105158476D01*
X209351476Y-105158476D02*
X209303857Y-105206857D01*
X208351476Y-106126095D02*
X208922904Y-106126095D01*
X208637190Y-106126095D02*
X208637190Y-105110095D01*
X208637190Y-105110095D02*
X208732428Y-105255238D01*
X208732428Y-105255238D02*
X208827666Y-105352000D01*
X208827666Y-105352000D02*
X208922904Y-105400381D01*
X207970523Y-105206857D02*
X207922904Y-105158476D01*
X207922904Y-105158476D02*
X207827666Y-105110095D01*
X207827666Y-105110095D02*
X207589571Y-105110095D01*
X207589571Y-105110095D02*
X207494333Y-105158476D01*
X207494333Y-105158476D02*
X207446714Y-105206857D01*
X207446714Y-105206857D02*
X207399095Y-105303619D01*
X207399095Y-105303619D02*
X207399095Y-105400381D01*
X207399095Y-105400381D02*
X207446714Y-105545524D01*
X207446714Y-105545524D02*
X208018142Y-106126095D01*
X208018142Y-106126095D02*
X207399095Y-106126095D01*
X191555666Y-140159334D02*
X191603285Y-140207715D01*
X191603285Y-140207715D02*
X191746142Y-140256095D01*
X191746142Y-140256095D02*
X191841380Y-140256095D01*
X191841380Y-140256095D02*
X191984237Y-140207715D01*
X191984237Y-140207715D02*
X192079475Y-140110953D01*
X192079475Y-140110953D02*
X192127094Y-140014191D01*
X192127094Y-140014191D02*
X192174713Y-139820667D01*
X192174713Y-139820667D02*
X192174713Y-139675524D01*
X192174713Y-139675524D02*
X192127094Y-139482000D01*
X192127094Y-139482000D02*
X192079475Y-139385238D01*
X192079475Y-139385238D02*
X191984237Y-139288476D01*
X191984237Y-139288476D02*
X191841380Y-139240095D01*
X191841380Y-139240095D02*
X191746142Y-139240095D01*
X191746142Y-139240095D02*
X191603285Y-139288476D01*
X191603285Y-139288476D02*
X191555666Y-139336857D01*
X191174713Y-139336857D02*
X191127094Y-139288476D01*
X191127094Y-139288476D02*
X191031856Y-139240095D01*
X191031856Y-139240095D02*
X190793761Y-139240095D01*
X190793761Y-139240095D02*
X190698523Y-139288476D01*
X190698523Y-139288476D02*
X190650904Y-139336857D01*
X190650904Y-139336857D02*
X190603285Y-139433619D01*
X190603285Y-139433619D02*
X190603285Y-139530381D01*
X190603285Y-139530381D02*
X190650904Y-139675524D01*
X190650904Y-139675524D02*
X191222332Y-140256095D01*
X191222332Y-140256095D02*
X190603285Y-140256095D01*
X219844857Y-114304895D02*
X220178190Y-113821086D01*
X220416285Y-114304895D02*
X220416285Y-113288895D01*
X220416285Y-113288895D02*
X220035333Y-113288895D01*
X220035333Y-113288895D02*
X219940095Y-113337276D01*
X219940095Y-113337276D02*
X219892476Y-113385657D01*
X219892476Y-113385657D02*
X219844857Y-113482419D01*
X219844857Y-113482419D02*
X219844857Y-113627562D01*
X219844857Y-113627562D02*
X219892476Y-113724324D01*
X219892476Y-113724324D02*
X219940095Y-113772705D01*
X219940095Y-113772705D02*
X220035333Y-113821086D01*
X220035333Y-113821086D02*
X220416285Y-113821086D01*
X219511523Y-113288895D02*
X218892476Y-113288895D01*
X218892476Y-113288895D02*
X219225809Y-113675943D01*
X219225809Y-113675943D02*
X219082952Y-113675943D01*
X219082952Y-113675943D02*
X218987714Y-113724324D01*
X218987714Y-113724324D02*
X218940095Y-113772705D01*
X218940095Y-113772705D02*
X218892476Y-113869467D01*
X218892476Y-113869467D02*
X218892476Y-114111372D01*
X218892476Y-114111372D02*
X218940095Y-114208134D01*
X218940095Y-114208134D02*
X218987714Y-114256515D01*
X218987714Y-114256515D02*
X219082952Y-114304895D01*
X219082952Y-114304895D02*
X219368666Y-114304895D01*
X219368666Y-114304895D02*
X219463904Y-114256515D01*
X219463904Y-114256515D02*
X219511523Y-114208134D01*
X218035333Y-113288895D02*
X218225809Y-113288895D01*
X218225809Y-113288895D02*
X218321047Y-113337276D01*
X218321047Y-113337276D02*
X218368666Y-113385657D01*
X218368666Y-113385657D02*
X218463904Y-113530800D01*
X218463904Y-113530800D02*
X218511523Y-113724324D01*
X218511523Y-113724324D02*
X218511523Y-114111372D01*
X218511523Y-114111372D02*
X218463904Y-114208134D01*
X218463904Y-114208134D02*
X218416285Y-114256515D01*
X218416285Y-114256515D02*
X218321047Y-114304895D01*
X218321047Y-114304895D02*
X218130571Y-114304895D01*
X218130571Y-114304895D02*
X218035333Y-114256515D01*
X218035333Y-114256515D02*
X217987714Y-114208134D01*
X217987714Y-114208134D02*
X217940095Y-114111372D01*
X217940095Y-114111372D02*
X217940095Y-113869467D01*
X217940095Y-113869467D02*
X217987714Y-113772705D01*
X217987714Y-113772705D02*
X218035333Y-113724324D01*
X218035333Y-113724324D02*
X218130571Y-113675943D01*
X218130571Y-113675943D02*
X218321047Y-113675943D01*
X218321047Y-113675943D02*
X218416285Y-113724324D01*
X218416285Y-113724324D02*
X218463904Y-113772705D01*
X218463904Y-113772705D02*
X218511523Y-113869467D01*
X158891266Y-132059495D02*
X159224599Y-131575686D01*
X159462694Y-132059495D02*
X159462694Y-131043495D01*
X159462694Y-131043495D02*
X159081742Y-131043495D01*
X159081742Y-131043495D02*
X158986504Y-131091876D01*
X158986504Y-131091876D02*
X158938885Y-131140257D01*
X158938885Y-131140257D02*
X158891266Y-131237019D01*
X158891266Y-131237019D02*
X158891266Y-131382162D01*
X158891266Y-131382162D02*
X158938885Y-131478924D01*
X158938885Y-131478924D02*
X158986504Y-131527305D01*
X158986504Y-131527305D02*
X159081742Y-131575686D01*
X159081742Y-131575686D02*
X159462694Y-131575686D01*
X158034123Y-131382162D02*
X158034123Y-132059495D01*
X158272218Y-130995115D02*
X158510313Y-131720829D01*
X158510313Y-131720829D02*
X157891266Y-131720829D01*
D11*
X211376800Y-108598580D02*
X211376800Y-108317420D01*
X212396800Y-108598580D02*
X212396800Y-108317420D01*
X208928580Y-135380000D02*
X208647420Y-135380000D01*
X208928580Y-136400000D02*
X208647420Y-136400000D01*
X165718258Y-137907500D02*
X165243742Y-137907500D01*
X165718258Y-138952500D02*
X165243742Y-138952500D01*
X227836000Y-133236580D02*
X227836000Y-132955420D01*
X228856000Y-133236580D02*
X228856000Y-132955420D01*
X228958358Y-155904500D02*
X229432874Y-155904500D01*
X228958358Y-156949500D02*
X229432874Y-156949500D01*
X214867258Y-110094500D02*
X214392742Y-110094500D01*
X214867258Y-111139500D02*
X214392742Y-111139500D01*
D10*
X224218500Y-129590800D02*
X226072700Y-129590800D01*
X224218500Y-131554220D02*
X224218500Y-130827780D01*
X226072700Y-132791200D02*
X224218500Y-132791200D01*
D11*
X214468942Y-111821700D02*
X214943458Y-111821700D01*
X214468942Y-112866700D02*
X214943458Y-112866700D01*
X161750742Y-129271500D02*
X162225258Y-129271500D01*
X161750742Y-130316500D02*
X162225258Y-130316500D01*
D10*
X205282800Y-139865100D02*
X205282800Y-138010900D01*
X207246220Y-139865100D02*
X206519780Y-139865100D01*
X208483200Y-138010900D02*
X208483200Y-139865100D01*
D11*
X211478400Y-114705820D02*
X211478400Y-114986980D01*
X212498400Y-114705820D02*
X212498400Y-114986980D01*
X180988580Y-139952000D02*
X180707420Y-139952000D01*
X180988580Y-140972000D02*
X180707420Y-140972000D01*
X209649600Y-108649380D02*
X209649600Y-108368220D01*
X210669600Y-108649380D02*
X210669600Y-108368220D01*
X205788800Y-108661780D02*
X205788800Y-108380620D01*
X206808800Y-108661780D02*
X206808800Y-108380620D01*
X227189420Y-127760000D02*
X227470580Y-127760000D01*
X227189420Y-128780000D02*
X227470580Y-128780000D01*
X195705000Y-140321420D02*
X195705000Y-140602580D01*
X196725000Y-140321420D02*
X196725000Y-140602580D01*
X165243742Y-139431500D02*
X165718258Y-139431500D01*
X165243742Y-140476500D02*
X165718258Y-140476500D01*
X204710420Y-135380000D02*
X204991580Y-135380000D01*
X204710420Y-136400000D02*
X204991580Y-136400000D01*
X193673000Y-126986420D02*
X193673000Y-127267580D01*
X194693000Y-126986420D02*
X194693000Y-127267580D01*
X181977420Y-123569000D02*
X182258580Y-123569000D01*
X181977420Y-124589000D02*
X182258580Y-124589000D01*
X219272874Y-156031500D02*
X218798358Y-156031500D01*
X219272874Y-157076500D02*
X218798358Y-157076500D01*
X200518500Y-141461258D02*
X200518500Y-140986742D01*
X201563500Y-141461258D02*
X201563500Y-140986742D01*
X207668400Y-108662380D02*
X207668400Y-108381220D01*
X208688400Y-108662380D02*
X208688400Y-108381220D01*
X191529580Y-140714000D02*
X191248420Y-140714000D01*
X191529580Y-141734000D02*
X191248420Y-141734000D01*
X214545142Y-113523500D02*
X215019658Y-113523500D01*
X214545142Y-114568500D02*
X215019658Y-114568500D01*
X162225258Y-130795500D02*
X161750742Y-130795500D01*
X162225258Y-131840500D02*
X161750742Y-131840500D01*
%LPC*%
D12*
X221352616Y-161696000D03*
X227132616Y-161696000D03*
D13*
X219922616Y-161196000D03*
D14*
X219922616Y-165376000D03*
D13*
X228562616Y-161196000D03*
D14*
X228562616Y-165376000D03*
D15*
X163576000Y-149987000D03*
X166116000Y-149987000D03*
X168656000Y-149987000D03*
X171196000Y-149987000D03*
X171196000Y-142367000D03*
X168656000Y-142367000D03*
X166116000Y-142367000D03*
X163576000Y-142367000D03*
D16*
X238426000Y-108610400D03*
X238426000Y-120040400D03*
D17*
X158369000Y-159131000D03*
D18*
X158369000Y-161671000D03*
X160909000Y-159131000D03*
X160909000Y-161671000D03*
X163449000Y-159131000D03*
X163449000Y-161671000D03*
X165989000Y-159131000D03*
X165989000Y-161671000D03*
X168529000Y-159131000D03*
X168529000Y-161671000D03*
X171069000Y-159131000D03*
X171069000Y-161671000D03*
X173609000Y-159131000D03*
X173609000Y-161671000D03*
X176149000Y-159131000D03*
X176149000Y-161671000D03*
X178689000Y-159131000D03*
X178689000Y-161671000D03*
X181229000Y-159131000D03*
X181229000Y-161671000D03*
X183769000Y-159131000D03*
X183769000Y-161671000D03*
X186309000Y-159131000D03*
X186309000Y-161671000D03*
X188849000Y-159131000D03*
X188849000Y-161671000D03*
X191389000Y-159131000D03*
X191389000Y-161671000D03*
X193929000Y-159131000D03*
X193929000Y-161671000D03*
X196469000Y-159131000D03*
X196469000Y-161671000D03*
X199009000Y-159131000D03*
X199009000Y-161671000D03*
X201549000Y-159131000D03*
X201549000Y-161671000D03*
X204089000Y-159131000D03*
X204089000Y-161671000D03*
X206629000Y-159131000D03*
X206629000Y-161671000D03*
D19*
X211886800Y-109233000D03*
X211886800Y-107683000D03*
D20*
X209563000Y-135890000D03*
X208013000Y-135890000D03*
D21*
X166306000Y-138430000D03*
X164656000Y-138430000D03*
D19*
X228346000Y-133871000D03*
X228346000Y-132321000D03*
D22*
X228370616Y-156427000D03*
X230020616Y-156427000D03*
D21*
X215455000Y-110617000D03*
X213805000Y-110617000D03*
D23*
X226421950Y-130241040D03*
X226421950Y-131191000D03*
X226421950Y-132140960D03*
X223869250Y-132140960D03*
X223869250Y-130241040D03*
D22*
X213881200Y-112344200D03*
X215531200Y-112344200D03*
X161163000Y-129794000D03*
X162813000Y-129794000D03*
D24*
X205933040Y-137661650D03*
X206883000Y-137661650D03*
X207832960Y-137661650D03*
X207832960Y-140214350D03*
X205933040Y-140214350D03*
D25*
X211988400Y-114071400D03*
X211988400Y-115621400D03*
D20*
X181623000Y-140462000D03*
X180073000Y-140462000D03*
D19*
X210159600Y-109283800D03*
X210159600Y-107733800D03*
X206298800Y-109296200D03*
X206298800Y-107746200D03*
D26*
X226555000Y-128270000D03*
X228105000Y-128270000D03*
D25*
X196215000Y-139687000D03*
X196215000Y-141237000D03*
D22*
X164656000Y-139954000D03*
X166306000Y-139954000D03*
D26*
X204076000Y-135890000D03*
X205626000Y-135890000D03*
D25*
X194183000Y-126352000D03*
X194183000Y-127902000D03*
D26*
X181343000Y-124079000D03*
X182893000Y-124079000D03*
D21*
X219860616Y-156554000D03*
X218210616Y-156554000D03*
D27*
X201041000Y-142049000D03*
X201041000Y-140399000D03*
D19*
X208178400Y-109296800D03*
X208178400Y-107746800D03*
D20*
X192164000Y-141224000D03*
X190614000Y-141224000D03*
D22*
X213957400Y-114046000D03*
X215607400Y-114046000D03*
D21*
X162813000Y-131318000D03*
X161163000Y-131318000D03*
%LPD*%
M02*
